{
.appVersion = "1141";
DisplayStrings = (
"creme and sugar"
);
classes = (
{
automatic = 1;
code = "A Aacute Abreve Acircumflex Adieresis Agrave Amacron Aogonek Aring Atilde AE B C Cacute Ccaron Ccedilla Ccircumflex D Eth Dcaron Dcroat E Eacute Ecaron Ecircumflex Edieresis Edotaccent Egrave Emacron Eogonek F G Gcircumflex Gcommaaccent H Hbar Hcircumflex I Iacute Icircumflex Idieresis Igrave Imacron Iogonek J Jcircumflex K Kcommaaccent L Lacute Lcaron Lcommaaccent Lslash M N Nacute Ncaron Ncommaaccent Eng Ntilde O Oacute Ocircumflex Odieresis Ograve Ohungarumlaut Omacron Oslash Otilde OE P Thorn Q R Racute Rcaron Rcommaaccent S Sacute Scaron Scedilla Scircumflex Germandbls T Tbar Tcaron Tcedilla U Uacute Ubreve Ucircumflex Udieresis Ugrave Uhungarumlaut Umacron Uogonek Uring V W Wacute Wcircumflex Wdieresis Wgrave X Y Yacute Ycircumflex Ydieresis Ygrave Z Z.ss01 Zacute Zcaron Zdotaccent";
name = Uppercase;
},
{
code = "b h k l kcommaaccent lacute lcaron lcommaaccent lslash thorn hcircumflex";
name = acender_left;
},
{
code = "abreve acircumflex adieresis amacron atilde ccaron eth iacute icircumflex idieresis igrave imacron iogonek jcircumflex racute rcaron scaron yacute ycircumflex ydieresis ygrave zcaron rcaron";
name = f_vs_diacritics;
}
);
customParameters = (
{
name = note;
value = "--- kerning italic numbers --- look at negative space and counters, bold in partic.---capitals need to thin in italic---2 & 5 too wide---";
}
);
date = "2015-10-09 09:15:36 +0000";
designer = "Mirco Monsees";
designerURL = "http://www.mircomonsees.com";
familyName = "Alenta Serif";
featurePrefixes = (
{
automatic = 1;
code = "languagesystem DFLT dflt;\012";
name = Languagesystems;
}
);
features = (
{
automatic = 1;
code = "feature ccmp;\012feature lnum;\012feature onum;\012feature case;\012feature calt;\012feature salt;\012feature ss01;\012";
name = aalt;
},
{
automatic = 1;

glyphs = (
{
color = 8;
glyphname = A;
lastChange = "2018-06-18 14:47:15 +0000";
layers = (
{
anchors = (
{
name = bottom;
position = "{311, 0}";
},
{
name = ogonek;
position = "{580, 10}";
},
{
name = top;
position = "{368, 680}";
}
);
layerId = "71FD7A9F-05F5-4D76-8D4F-547475A05E4C";
paths = (
{
closed = 1;
nodes = (
"207 1 LINE",
"215 46 LINE",
"145 58 LINE",
"212 220 OFFCURVE",
"290 390 OFFCURVE",
"356 539 CURVE SMOOTH",
"397 632 OFFCURVE",
"391 650 OFFCURVE",
"396 680 CURVE",
"330 617 LINE",
"262 451 OFFCURVE",
"113 139 OFFCURVE",
"74 59 CURVE",
"-6 46 LINE",
"-14 0 LINE"
);
},
{
closed = 1;
nodes = (
"472 279 LINE",
"217 281 LINE",
"207 237 LINE",
"472 236 LINE"
);
},
{
closed = 1;
nodes = (
"645 0 LINE",
"653 46 LINE",
"596 57 LINE",
"567 119 OFFCURVE",
"433 596 OFFCURVE",
"415 682 CURVE",
"270 680 LINE",
"260 635 LINE",
"365 617 LINE",
"369 594 OFFCURVE",
"491 119 OFFCURVE",
"502 87 CURVE SMOOTH",
"507 72 OFFCURVE",
"528 58 OFFCURVE",
"547 57 CURVE",
"438 47 LINE",
"430 0 LINE"
);
}
);
width = 673;
},
{
anchors = (
{
name = bottom;
position = "{310, 0}";
},
{
name = ogonek;
position = "{594, 10}";
},
{
name = top;
position = "{368, 680}";
}
);
background = {
paths = (
{
closed = 1;
nodes = (
"320 337 LINE",
"357 243 OFFCURVE",
"406 130 OFFCURVE",
"428 82 CURVE SMOOTH",
"433 71 OFFCURVE",
"445 59 OFFCURVE",
"468 49 CURVE",
"388 49 LINE",
"383 0 LINE",
"650 0 LINE",
"655 47 LINE",
"607 55 LINE",
"539 158 OFFCURVE",
"461 314 OFFCURVE",
"419 399 CURVE"
);
},
{
closed = 1;
nodes = (
"498 562 OFFCURVE",
"415 442 OFFCURVE",
"373 392 CURVE",
"408 316 LINE",
"476 409 OFFCURVE",
"602 586 OFFCURVE",
"631 615 CURVE SMOOTH",
"655 639 OFFCURVE",
"679 650 OFFCURVE",
"706 650 CURVE",
"711 700 LINE",
"477 700 LINE",
"472 653 LINE",
"526 645 LINE"
);
},
{
closed = 1;
nodes = (
"255 113 OFFCURVE",
"344 253 OFFCURVE",
"375 303 CURVE",
"326 368 LINE",
"266 275 OFFCURVE",
"155 112 OFFCURVE",
"124 85 CURVE SMOOTH",
"96 61 OFFCURVE",
"72 50 OFFCURVE",
"45 50 CURVE",
"40 0 LINE",
"263 0 LINE",
"268 47 LINE",
"221 55 LINE"
);
},
{
closed = 1;
nodes = (
"418 390 LINE",
"377 474 OFFCURVE",
"351 522 OFFCURVE",
"331 574 CURVE SMOOTH",
"317 610 OFFCURVE",
"303 651 OFFCURVE",
"362 651 CURVE",
"367 700 LINE",
"110 700 LINE",
"105 653 LINE",
"152 643 LINE",
"225 505 OFFCURVE",
"284 390 OFFCURVE",
"315 323 CURVE"
);
}
);
};
layerId = "977FCFA9-45AC-4A33-B2D7-4D17E6BBF8E0";
paths = (
{
closed = 1;
nodes = (
"161 190 LINE",
"476 189 LINE",
"486 292 LINE",
"205 294 LINE"
);
},
{
closed = 1;
nodes = (
"264 275 OFFCURVE",
"321 386 OFFCURVE",
"393 535 CURVE SMOOTH",
"440 632 OFFCURVE",
"434 648 OFFCURVE",
"434 685 CURVE",
"347 681 LINE",
"268 511 OFFCURVE",
"103 193 OFFCURVE",
"51 113 CURVE",
"-18 100 LINE",
"-26 73 OFFCURVE",
"-36 27 OFFCURVE",
"-39 0 CURVE",
"251 1 LINE",
"260 28 OFFCURVE",
"270 74 OFFCURVE",
"272 101 CURVE",
"202 113 LINE"
);
},
{
closed = 1;
nodes = (
"611 165 OFFCURVE",
"513 619 OFFCURVE",
"501 697 CURVE",
"240 681 LINE",
"232 652 OFFCURVE",
"228 603 OFFCURVE",
"228 579 CURVE",
"353 551 LINE",
"356 529 OFFCURVE",
"363 524 OFFCURVE",
"367 499 CURVE SMOOTH",
"379 421 OFFCURVE",
"421 167 OFFCURVE",
"426 142 CURVE SMOOTH",
"429 127 OFFCURVE",
"458 113 OFFCURVE",
"477 112 CURVE",
"367 101 LINE",
"359 74 OFFCURVE",
"349 27 OFFCURVE",
"346 0 CURVE",
"662 0 LINE",
"671 27 OFFCURVE",
"681 74 OFFCURVE",
"683 101 CURVE",
"629 113 LINE"
);
}
);
width = 715;
}
);
leftKerningGroup = A;
rightKerningGroup = A;
unicode = 0041;
},
{
color = 1;
glyphname = A.001;
lastChange = "2018-06-18 14:45:46 +0000";
layers = (
{
anchors = (
{
name = bottom;
position = "{369, 0}";
},
{
name = ogonek;
position = "{655, 10}";
},
{
name = top;
position = "{348, 680}";
}
);
background = {
components = (
{
name = V;
transform = "{-1, 0, 0, -1, 741, 700}";
}
);
};
guideLines = (
{
angle = 86;
position = "{328, 98}";
}
);
layerId = "977FCFA9-45AC-4A33-B2D7-4D17E6BBF8E0";
paths = (
{
closed = 1;
nodes = (
"183 190 LINE",
"498 189 LINE",
"494 292 LINE",
"213 294 LINE"
);
},
{
closed = 1;
nodes = (
"274 275 OFFCURVE",
"316 386 OFFCURVE",
"367 535 CURVE SMOOTH",
"400 632 OFFCURVE",
"392 648 OFFCURVE",
"387 685 CURVE",
"301 681 LINE",
"245 511 OFFCURVE",
"125 193 OFFCURVE",
"84 113 CURVE",
"17 100 LINE",
"12 73 OFFCURVE",
"9 27 OFFCURVE",
"10 0 CURVE",
"300 1 LINE",
"305 28 OFFCURVE",
"308 74 OFFCURVE",
"307 101 CURVE",
"235 113 LINE"
);
},
{
closed = 1;
nodes = (
"637 165 OFFCURVE",
"475 619 OFFCURVE",
"452 697 CURVE",
"194 681 LINE",
"190 652 OFFCURVE",
"192 603 OFFCURVE",
"196 579 CURVE",
"325 551 LINE",
"331 529 OFFCURVE",
"338 524 OFFCURVE",
"346 499 CURVE SMOOTH",
"369 421 OFFCURVE",
"446 167 OFFCURVE",
"455 142 CURVE SMOOTH",
"460 127 OFFCURVE",
"491 113 OFFCURVE",
"510 112 CURVE",
"402 101 LINE",
"397 74 OFFCURVE",
"394 27 OFFCURVE",
"395 0 CURVE",
"711 0 LINE",
"716 27 OFFCURVE",
"719 74 OFFCURVE",
"718 101 CURVE",
"662 113 LINE"
);
}
);
width = 729;
},
{
anchors = (
{
name = bottom;
position = "{294, 0}";
},
{
name = ogonek;
position = "{575, 10}";
},
{
name = top;
position = "{278, 680}";
}
);
background = {
paths = (
{
closed = 1;
nodes = (
"637 30 LINE",
"571 40 LINE",
"318 680 LINE",
"266 674 OFFCURVE",
"206 670 OFFCURVE",
"144 670 CURVE",
"139 640 LINE",
"164 631 OFFCURVE",
"195 622 OFFCURVE",
"226 616 CURVE",
"6 55 LINE",
"-20 49 OFFCURVE",
"-45 40 OFFCURVE",
"-68 30 CURVE",
"-68 0 LINE",
"147 0 LINE",
"152 30 LINE",
"71 44 LINE",
"141 230 LINE",
"408 230 LINE",
"472 55 LINE",
"445 49 OFFCURVE",
"420 40 OFFCURVE",
"397 30 CURVE",
"397 0 LINE",
"632 0 LINE"
);
},
{
closed = 1;
nodes = (
"387 285 LINE",
"162 285 LINE",
"271 575 LINE",
"275 625 LINE",
"277 625 LINE",
"281 575 LINE"
);
}
);
};
guideLines = (
{
angle = 86;
position = "{26, 240}";
},
{
angle = -0.1047;
position = "{-900, 49}";
}
);
layerId = "71FD7A9F-05F5-4D76-8D4F-547475A05E4C";
paths = (
{
closed = 1;
nodes = (
"154 237 LINE",
"419 236 LINE",
"416 285 LINE",
"161 287 LINE"
);
},
{
closed = 1;
nodes = (
"176 220 OFFCURVE",
"231 389 OFFCURVE",
"281 538 CURVE SMOOTH",
"295 581 OFFCURVE",
"295 624 OFFCURVE",
"299 668 CURVE",
"249 619 LINE",
"185 418 OFFCURVE",
"81 138 OFFCURVE",
"49 58 CURVE",
"-13 46 LINE",
"-16 31 OFFCURVE",
"-19 15 OFFCURVE",
"-18 0 CURVE",
"209 1 LINE",
"212 16 OFFCURVE",
"214 31 OFFCURVE",
"213 46 CURVE",
"127 58 LINE"
);
},
{
closed = 1;
nodes = (
"526 118 OFFCURVE",
"356 596 OFFCURVE",
"331 682 CURVE",
"284 679 OFFCURVE",
"224 675 OFFCURVE",
"178 670 CURVE",
"176 657 OFFCURVE",
"173 640 OFFCURVE",
"175 627 CURVE",
"277 618 LINE",
"280 596 LINE",
"334 434 OFFCURVE",
"441 123 OFFCURVE",
"455 87 CURVE SMOOTH",
"461 72 OFFCURVE",
"484 58 OFFCURVE",
"503 57 CURVE",
"389 47 LINE",
"386 31 OFFCURVE",
"383 16 OFFCURVE",
"384 0 CURVE",
"614 0 LINE",
"617 15 OFFCURVE",
"619 31 OFFCURVE",
"618 46 CURVE",
"561 56 LINE"
);
}
);
width = 604;
}
);
leftKerningGroup = A;
rightKerningGroup = A;
},
{
color = 8;
glyphname = AE;
lastChange = "2017-09-10 18:25:38 +0000";
layers = (
{
background = {
paths = (
{
closed = 1;
nodes = (
"204 216 LINE",
"500 252 LINE",
"517 341 LINE",
"239 294 LINE"
);
},
{
closed = 1;
nodes = (
"550 280 LINE",
"692 297 LINE",
"699 249 LINE",
"757 252 LINE",
"765 295 OFFCURVE",
"778 392 OFFCURVE",
"763 392 CURVE SMOOTH",
"754 392 OFFCURVE",
"521 349 OFFCURVE",
"558 350 CURVE"
);
},
{
closed = 1;
nodes = (
"525 60 LINE",
"516 0 LINE",
"638 0 OFFCURVE",
"742 -1 OFFCURVE",
"864 -5 CURVE",
"900 168 LINE",
"850 176 LINE",
"812 106 LINE",
"768 92 OFFCURVE",
"674 88 OFFCURVE",
"598 90 CURVE"
);
},
{
closed = 1;
nodes = (
"360 636 LINE",
"280 460 OFFCURVE",
"167 198 OFFCURVE",
"128 126 CURVE SMOOTH",
"109 89 OFFCURVE",
"69 66 OFFCURVE",
"51 58 CURVE",
"55 0 LINE",
"250 1 LINE",
"264 56 LINE",
"207 68 LINE",
"254 195 OFFCURVE",
"447 600 OFFCURVE",
"476 640 CURVE"
);
},
{
closed = 1;
nodes = (
"441 440 OFFCURVE",
"459 105 OFFCURVE",
"462 97 CURVE",
"466 82 OFFCURVE",
"483 68 OFFCURVE",
"502 67 CURVE",
"403 57 LINE",
"395 0 LINE",
"649 0 LINE",
"667 54 LINE",
"612 66 LINE",
"597 115 OFFCURVE",
"572 433 OFFCURVE",
"561 604 CURVE",
"650 603 OFFCURVE",
"707 601 OFFCURVE",
"754 591 CURVE",
"781 529 LINE",
"838 539 LINE",
"828 704 LINE",
"798 703 OFFCURVE",
"641 698 OFFCURVE",
"531 698 CURVE SMOOTH",
"456 698 OFFCURVE",
"397 699 OFFCURVE",
"319 702 CURVE",
"306 638 LINE",
"434 603 LINE"
);
}
);
};
layerId = "71FD7A9F-05F5-4D76-8D4F-547475A05E4C";
paths = (
{
closed = 1;
nodes = (
"207 1 LINE",
"218 46 LINE",
"145 58 LINE",
"169.024 116.967 OFFCURVE",
"197.287 176.994 OFFCURVE",
"226.559 236.683 CURVE",
"413.554 278.311 LINE",
"412.511 163.474 OFFCURVE",
"410 134.201 OFFCURVE",
"410 93 CURVE SMOOTH",
"410 80 OFFCURVE",
"427 61 OFFCURVE",
"453 55 CURVE",
"342 46 LINE",
"338 0 LINE",
"586 0 LINE SMOOTH",
"646.166 -0.095 OFFCURVE",
"706.477 -1.179 OFFCURVE",
"769 -3 CURVE",
"805 152 LINE",
"764 159 LINE",
"722 70 LINE",
"689 60 OFFCURVE",
"616 53 OFFCURVE",
"521 55 CURVE",
"497.544 100.294 OFFCURVE",
"496.331 224.743 OFFCURVE",
"496.724 295.012 CURVE",
"695 321 LINE",
"698 390 LINE",
"684 395 LINE",
"646.399 384.472 OFFCURVE",
"536.408 355.28 OFFCURVE",
"496.93 344.853 CURVE",
"495.955 493.058 OFFCURVE",
"495.047 535.867 OFFCURVE",
"497 572 CURVE SMOOTH",
"497.541 598.485 OFFCURVE",
"501.879 614.453 OFFCURVE",
"515.543 623.85 CURVE",
"625.78 622.636 OFFCURVE",
"688.158 618.56 OFFCURVE",
"735 609 CURVE",
"743 527 LINE",
"789 537 LINE",
"805 689 LINE",
"699 683 OFFCURVE",
"606 680 OFFCURVE",
"490 680 CURVE SMOOTH",
"267 680 LINE",
"257 635 LINE",
"344.798 618.804 LINE",
"269.56 446.029 OFFCURVE",
"137.454 189.129 OFFCURVE",
"101 118 CURVE SMOOTH",
"68 55 OFFCURVE",
"46 47 OFFCURVE",
"-7 47 CURVE",
"-14 0 LINE"
);
},
{
closed = 1;
nodes = (
"275 334 OFFCURVE",
"363 515 OFFCURVE",
"410 619 CURVE",
"415 544 OFFCURVE",
"415 475 OFFCURVE",
"413.852 321.887 CURVE",
"360 310 OFFCURVE",
"305 298 OFFCURVE",
"251.081 286.244 CURVE"
);
}
);
width = 799;
},
{
background = {
paths = (
{
closed = 1;
nodes = (
"198 216 LINE",
"494 252 LINE",
"511 341 LINE",
"233 294 LINE"
);
},
{
closed = 1;
nodes = (
"544 280 LINE",
"686 297 LINE",
"693 249 LINE",
"751 252 LINE",
"759 295 OFFCURVE",
"772 392 OFFCURVE",
"757 392 CURVE SMOOTH",
"748 392 OFFCURVE",
"515 349 OFFCURVE",
"552 350 CURVE"
);
},
{
closed = 1;
nodes = (
"519 60 LINE",
"510 0 LINE",
"632 0 OFFCURVE",
"736 -1 OFFCURVE",
"858 -5 CURVE",
"894 168 LINE",
"844 176 LINE",
"806 106 LINE",
"762 92 OFFCURVE",
"668 88 OFFCURVE",
"592 90 CURVE"
);
},
{
closed = 1;
nodes = (
"354 636 LINE",
"274 460 OFFCURVE",
"161 198 OFFCURVE",
"122 126 CURVE SMOOTH",
"103 89 OFFCURVE",
"63 66 OFFCURVE",
"45 58 CURVE",
"49 0 LINE",
"244 1 LINE",
"258 56 LINE",
"201 68 LINE",
"248 195 OFFCURVE",
"441 600 OFFCURVE",
"470 640 CURVE"
);
},
{
closed = 1;
nodes = (
"435 440 OFFCURVE",
"453 105 OFFCURVE",
"456 97 CURVE",
"460 82 OFFCURVE",
"477 68 OFFCURVE",
"496 67 CURVE",
"397 57 LINE",
"389 0 LINE",
"643 0 LINE",
"661 54 LINE",
"606 66 LINE",
"591 115 OFFCURVE",
"566 433 OFFCURVE",
"555 604 CURVE",
"644 603 OFFCURVE",
"701 601 OFFCURVE",
"748 591 CURVE",
"775 529 LINE",
"832 539 LINE",
"822 704 LINE",
"792 703 OFFCURVE",
"635 698 OFFCURVE",
"525 698 CURVE SMOOTH",
"450 698 OFFCURVE",
"391 699 OFFCURVE",
"313 702 CURVE",
"300 638 LINE",
"428 603 LINE"
);
}
);
};
layerId = "977FCFA9-45AC-4A33-B2D7-4D17E6BBF8E0";
paths = (
{
closed = 1;
nodes = (
"250 1 LINE",
"263 66 LINE",
"191 78 LINE",
"209.388 124.545 OFFCURVE",
"228.932 170.099 OFFCURVE",
"249.015 214.924 CURVE",
"423.535 250.936 LINE",
"423.083 187.796 OFFCURVE",
"421.636 152.094 OFFCURVE",
"421 133 CURVE SMOOTH",
"421 97 OFFCURVE",
"437 84 OFFCURVE",
"464 78 CURVE",
"348 66 LINE",
"345 0 LINE",
"662.913 0 LINE SMOOTH",
"706.796 -0.245 OFFCURVE",
"730.714 -1.143 OFFCURVE",
"833 -4 CURVE",
"872 189 LINE",
"808 197 LINE",
"770 115 LINE",
"734.404 103.926 OFFCURVE",
"663.142 98.483 OFFCURVE",
"595.811 98.182 CURVE",
"576.745 143.702 OFFCURVE",
"573.409 206.118 OFFCURVE",
"572.53 270.932 CURVE",
"724 286 LINE",
"726 393 LINE",
"708 399 LINE",
"664.574 389.267 OFFCURVE",
"617.224 377.291 OFFCURVE",
"571.406 365.591 CURVE",
"570 431 OFFCURVE",
"569 481 OFFCURVE",
"570 519 CURVE SMOOTH",
"570 547 OFFCURVE",
"571 569 OFFCURVE",
"573.131 584.927 CURVE",
"653.216 583.316 OFFCURVE",
"713.736 580.122 OFFCURVE",
"752 574 CURVE",
"762 482 LINE",
"834 492 LINE",
"851 688 LINE",
"701 678 OFFCURVE",
"637 683 OFFCURVE",
"487 680 CURVE SMOOTH",
"254 681 LINE",
"233 615 LINE",
"320.738 594.697 LINE",
"243.702 423.206 OFFCURVE",
"128.872 194.121 OFFCURVE",
"88 126 CURVE SMOOTH",
"57 75 OFFCURVE",
"32 67 OFFCURVE",
"-3 66 CURVE",
"-15 0 LINE"
);
},
{
closed = 1;
nodes = (
"328 386 OFFCURVE",
"358 447 OFFCURVE",
"414.793 576.26 CURVE",
"420 546 OFFCURVE",
"420 527 OFFCURVE",
"423.585 324.394 CURVE",
"378 315 OFFCURVE",
"332 306 OFFCURVE",
"286.651 297.105 CURVE"
);
}
);
width = 857;
}
);
leftKerningGroup = A;
leftMetricsKey = A;
rightKerningGroup = E;
rightMetricsKey = "=E-30";
unicode = 00C6;
},
{
color = 8;
glyphname = B;
lastChange = "2018-06-18 14:53:59 +0000";
layers = (
{
components = (
{
name = _part.stem.cap;
piece = {
"BPR?" = 1;
};
transform = "{1, 0, 0, 1, -12, 0}";
}
);
layerId = "71FD7A9F-05F5-4D76-8D4F-547475A05E4C";
paths = (
{
closed = 1;
nodes = (
"226 628 LINE",
"476 690 OFFCURVE",
"516 438 OFFCURVE",
"355 376 CURVE",
"296 373 OFFCURVE",
"250 375 OFFCURVE",
"204 381 CURVE",
"197 320 LINE",
"260 325 LINE",
"502 344 OFFCURVE",
"516 119 OFFCURVE",
"375 50 CURVE",
"189 61 LINE",
"132 0 LINE",
"305 -3 LINE SMOOTH",
"467 -6 OFFCURVE",
"549 103 OFFCURVE",
"549 201 CURVE SMOOTH",
"549 278 OFFCURVE",
"498 348 OFFCURVE",
"395 352 CURVE",
"480 368 OFFCURVE",
"554 464 OFFCURVE",
"535 555 CURVE SMOOTH",
"510 676 OFFCURVE",
"392 689 OFFCURVE",
"227 685 CURVE SMOOTH",
"185 684 OFFCURVE",
"109 682 OFFCURVE",
"101 679 CURVE"
);
}
);
width = 601;
},
{
anchors = (
{
name = bottom;
position = "{219, 0}";
},
{
name = top;
position = "{363, 680}";
}
);
background = {
components = (
{
name = R;
}
);
};
components = (
{
name = _part.stem.cap;
piece = {
"BPR?" = 1;
};
transform = "{1, 0, 0.0002, 1, -166, 0}";
}
);
layerId = "977FCFA9-45AC-4A33-B2D7-4D17E6BBF8E0";
paths = (
{
closed = 1;
nodes = (
"616 319 OFFCURVE",
"543 360 OFFCURVE",
"483 363 CURVE",
"560 377 OFFCURVE",
"644 462 OFFCURVE",
"632 566 CURVE SMOOTH",
"618 687 OFFCURVE",
"468 697 OFFCURVE",
"304 694 CURVE SMOOTH",
"252 693 OFFCURVE",
"126 688 OFFCURVE",
"80 685 CURVE",
"295 571 LINE",
"447 612 OFFCURVE",
"455 476 OFFCURVE",
"386 413 CURVE",
"347 407 OFFCURVE",
"302 407 OFFCURVE",
"266 418 CURVE",
"222 291 LINE",
"306 298 LINE",
"464 302 OFFCURVE",
"453 142 OFFCURVE",
"378 100 CURVE",
"242 114 LINE",
"175 0 LINE",
"341 -3 LINE SMOOTH",
"472 -5 OFFCURVE",
"652 72 OFFCURVE",
"625 257 CURVE SMOOTH"
);
}
);
width = 634;
}
);
leftKerningGroup = I;
leftMetricsKey = H;
rightKerningGroup = B;
unicode = 0042;
},
{
color = 1;
glyphname = B.001;
lastChange = "2018-06-18 14:45:46 +0000";
layers = (
{
anchors = (
{
name = bottom;
position = "{324, 0}";
},
{
name = top;
position = "{324, 680}";
}
);
background = {
components = (
{
name = R;
transform = "{1, 0, 0, 1, 2, 0}";
}
);
};
components = (
{
name = _part.stem.cap;
piece = {
"BPR?" = 1;
};
transform = "{1, 0, 0, 1, -190, 0}";
}
);
layerId = "977FCFA9-45AC-4A33-B2D7-4D17E6BBF8E0";
paths = (
{
closed = 1;
nodes = (
"613 319 OFFCURVE",
"535 360 OFFCURVE",
"475 363 CURVE",
"550 377 OFFCURVE",
"622 462 OFFCURVE",
"595 566 CURVE SMOOTH",
"564 687 OFFCURVE",
"413 697 OFFCURVE",
"249 694 CURVE SMOOTH",
"197 693 OFFCURVE",
"72 688 OFFCURVE",
"27 685 CURVE",
"258 571 LINE",
"404 612 OFFCURVE",
"431 476 OFFCURVE",
"371 413 CURVE",
"332 407 OFFCURVE",
"287 407 OFFCURVE",
"250 418 CURVE",
"224 291 LINE",
"307 298 LINE",
"464 302 OFFCURVE",
"475 142 OFFCURVE",
"406 100 CURVE",
"268 114 LINE",
"217 0 LINE",
"384 -3 LINE SMOOTH",
"515 -5 OFFCURVE",
"685 72 OFFCURVE",
"631 257 CURVE SMOOTH"
);
}
);
width = 657;
},
{
anchors = (
{
name = bottom;
position = "{315, 0}";
},
{
name = top;
position = "{315, 680}";
}
);
background = {
paths = (
{
closed = 1;
nodes = (
"439 349 LINE",
"472 356 OFFCURVE",
"543 410 OFFCURVE",
"543 500 CURVE SMOOTH",
"543 612 OFFCURVE",
"458 680 OFFCURVE",
"340 680 CURVE SMOOTH",
"269 680 OFFCURVE",
"189 670 OFFCURVE",
"128 670 CURVE SMOOTH",
"58 670 LINE",
"53 640 LINE",
"76 630 OFFCURVE",
"101 621 OFFCURVE",
"128 615 CURVE",
"128 55 LINE",
"101 49 OFFCURVE",
"76 40 OFFCURVE",
"53 30 CURVE",
"53 0 LINE",
"128 0 LINE SMOOTH",
"189 0 OFFCURVE",
"239 -10 OFFCURVE",
"310 -10 CURVE SMOOTH",
"458 -10 OFFCURVE",
"573 49 OFFCURVE",
"573 186 CURVE SMOOTH",
"573 301 OFFCURVE",
"472 340 OFFCURVE",
"439 347 CURVE"
);
},
{
closed = 1;
nodes = (
"213 368 LINE",
"213 622 LINE",
"243 624 OFFCURVE",
"274 625 OFFCURVE",
"310 625 CURVE SMOOTH",
"393 625 OFFCURVE",
"458 587 OFFCURVE",
"458 490 CURVE SMOOTH",
"458 427 OFFCURVE",
"441 398 OFFCURVE",
"441 398 CURVE",
"414 376 OFFCURVE",
"376 368 OFFCURVE",
"323 368 CURVE SMOOTH"
);
},
{
closed = 1;
nodes = (
"453 60 OFFCURVE",
"406 45 OFFCURVE",
"340 45 CURVE SMOOTH",
"297 45 OFFCURVE",
"251 47 OFFCURVE",
"208 49 CURVE",
"211 74 OFFCURVE",
"213 100 OFFCURVE",
"213 130 CURVE SMOOTH",
"213 317 LINE",
"323 317 LINE SMOOTH",
"410 317 OFFCURVE",
"488 286 OFFCURVE",
"488 176 CURVE SMOOTH",
"488 118 OFFCURVE",
"475 81 OFFCURVE",
"475 81 CURVE"
);
}
);
};
components = (
{
name = _part.stem.cap;
piece = {
"BPR?" = 1;
};
transform = "{1, 0, 0, 1, -119, 0}";
}
);
layerId = "71FD7A9F-05F5-4D76-8D4F-547475A05E4C";
paths = (
{
closed = 1;
nodes = (
"479 375 OFFCURVE",
"542 469 OFFCURVE",
"516 559 CURVE SMOOTH",
"485 662 OFFCURVE",
"404 685 OFFCURVE",
"280 685 CURVE SMOOTH",
"259 685 OFFCURVE",
"237 684 OFFCURVE",
"213 683 CURVE SMOOTH",
"171 681 OFFCURVE",
"76 681 OFFCURVE",
"68 678 CURVE",
"217 628 LINE",
"243 635 OFFCURVE",
"267 634 OFFCURVE",
"288 634 CURVE SMOOTH",
"365 634 OFFCURVE",
"413 597 OFFCURVE",
"431 547 CURVE SMOOTH",
"454 483 OFFCURVE",
"424 408 OFFCURVE",
"352 380 CURVE",
"307 378 OFFCURVE",
"260 378 OFFCURVE",
"217 381 CURVE",
"217 316 LINE",
"252 319 OFFCURVE",
"272 322 OFFCURVE",
"308 323 CURVE SMOOTH",
"406 326 OFFCURVE",
"467 274 OFFCURVE",
"484 214 CURVE SMOOTH",
"505 147 OFFCURVE",
"474 73 OFFCURVE",
"409 50 CURVE",
"229 58 LINE",
"178 0 LINE",
"351 -3 LINE SMOOTH",
"500 -6 OFFCURVE",
"568 88 OFFCURVE",
"568 180 CURVE SMOOTH",
"568 268 OFFCURVE",
"507 354 OFFCURVE",
"394 358 CURVE"
);
}
);
width = 608;
}
);
leftKerningGroup = I;
rightKerningGroup = B;
},
{
color = 8;
glyphname = C;
lastChange = "2018-06-19 19:29:13 +0000";
layers = (
{
anchors = (
{
name = bottom;
position = "{324, 0}";
},
{
name = top;
position = "{372, 680}";
}
);
layerId = "71FD7A9F-05F5-4D76-8D4F-547475A05E4C";
paths = (
{
closed = 1;
nodes = (
"526 74 OFFCURVE",
"448 44 OFFCURVE",
"355 48 CURVE SMOOTH",
"265 52 OFFCURVE",
"168 87 OFFCURVE",
"137 273 CURVE SMOOTH",
"107 454 OFFCURVE",
"228 613 OFFCURVE",
"344 642 CURVE",
"434 642 OFFCURVE",
"516 622 OFFCURVE",
"538 599 CURVE",
"542 516 LINE",
"592 526 LINE",
"609 649 LINE",
"576 676 OFFCURVE",
"502 692 OFFCURVE",
"409 693 CURVE SMOOTH",
"150 695 OFFCURVE",
"6 447 OFFCURVE",
"52 209 CURVE SMOOTH",
"83 49 OFFCURVE",
"200 -19 OFFCURVE",
"342 -13 CURVE SMOOTH",
"468 -8 OFFCURVE",
"554 40 OFFCURVE",
"576 58 CURVE",
"563 102 LINE"
);
},
{
closed = 1;
nodes = (
"576 58 LINE",
"587 181 LINE",
"539 177 LINE",
"506 63 LINE"
);
}
);
width = 625;
},
{
anchors = (
{
name = bottom;
position = "{-144, 0}";
},
{
name = top;
position = "{-36, 680}";
}
);
background = {
paths = (
{
closed = 1;
nodes = (
"-251 724 OFFCURVE",
"-404 495 OFFCURVE",
"-370 235 CURVE SMOOTH",
"-347 64 OFFCURVE",
"-231 -5 OFFCURVE",
"-117 -14 CURVE SMOOTH",
"12 -24 OFFCURVE",
"124 12 OFFCURVE",
"179 51 CURVE",
"179 129 OFFCURVE",
"185 227 OFFCURVE",
"192 249 CURVE SMOOTH",
"201 276 OFFCURVE",
"223 282 OFFCURVE",
"231 282 CURVE",
"235 343 LINE",
"150 340 OFFCURVE",
"106 341 OFFCURVE",
"26 344 CURVE",
"18 285 LINE",
"71 269 LINE",
"70 213 OFFCURVE",
"70 117 OFFCURVE",
"33 76 CURVE",
"-104 62 OFFCURVE",
"-185 113 OFFCURVE",
"-212 270 CURVE SMOOTH",
"-248 489 OFFCURVE",
"-144 598 OFFCURVE",
"-81 625 CURVE",
"16 619 OFFCURVE",
"78 584 OFFCURVE",
"105 547 CURVE",
"110 492 LINE",
"175 502 LINE",
"200 640 LINE",
"168 673 OFFCURVE",
"100 718 OFFCURVE",
"-17 720 CURVE SMOOTH"
);
}
);
};
layerId = "977FCFA9-45AC-4A33-B2D7-4D17E6BBF8E0";
paths = (
{
closed = 1;
nodes = (
"319 37 OFFCURVE",
"184 131 OFFCURVE",
"229 373 CURVE SMOOTH",
"249 487 OFFCURVE",
"314 563 OFFCURVE",
"374 583 CURVE",
"410 586 OFFCURVE",
"448 579 OFFCURVE",
"470 565 CURVE",
"473 466 LINE",
"502 465 OFFCURVE",
"562 470 OFFCURVE",
"592 478 CURVE",
"631 661 LINE",
"564 699 OFFCURVE",
"455 707 OFFCURVE",
"353 685 CURVE SMOOTH",
"164 644 OFFCURVE",
"51 514 OFFCURVE",
"17 326 CURVE SMOOTH",
"-23 104 OFFCURVE",
"75 -22 OFFCURVE",
"309 -16 CURVE SMOOTH",
"437 -13 OFFCURVE",
"521 34 OFFCURVE",
"545 52 CURVE",
"541 154 LINE"
);
},
{
closed = 1;
nodes = (
"576 225 LINE",
"547 229 OFFCURVE",
"482 227 OFFCURVE",
"452 222 CURVE",
"391 59 LINE",
"545 52 LINE"
);
}
);
width = 579;
},
{
anchors = (
{
name = bottom;
position = "{287, 0}";
},
{
name = top;
position = "{395, 680}";
}
);
associatedMasterId = "977FCFA9-45AC-4A33-B2D7-4D17E6BBF8E0";
background = {
paths = (
{
closed = 1;
nodes = (
"180 724 OFFCURVE",
"27 495 OFFCURVE",
"61 235 CURVE SMOOTH",
"84 64 OFFCURVE",
"200 -5 OFFCURVE",
"314 -14 CURVE SMOOTH",
"443 -24 OFFCURVE",
"555 12 OFFCURVE",
"610 51 CURVE",
"610 129 OFFCURVE",
"616 227 OFFCURVE",
"623 249 CURVE SMOOTH",
"632 276 OFFCURVE",
"654 282 OFFCURVE",
"662 282 CURVE",
"666 343 LINE",
"581 340 OFFCURVE",
"537 341 OFFCURVE",
"457 344 CURVE",
"449 285 LINE",
"502 269 LINE",
"501 213 OFFCURVE",
"501 117 OFFCURVE",
"464 76 CURVE",
"327 62 OFFCURVE",
"246 113 OFFCURVE",
"219 270 CURVE SMOOTH",
"183 489 OFFCURVE",
"287 598 OFFCURVE",
"350 625 CURVE",
"447 619 OFFCURVE",
"509 584 OFFCURVE",
"536 547 CURVE",
"541 492 LINE",
"606 502 LINE",
"631 640 LINE",
"599 673 OFFCURVE",
"531 718 OFFCURVE",
"414 720 CURVE SMOOTH"
);
}
);
};
layerId = "9208460D-875D-439E-BAA0-8397B49DF3B1";
name = "Jun 19 18, 20:28";
paths = (
{
closed = 1;
nodes = (
"379 65 OFFCURVE",
"239 87 OFFCURVE",
"225 269 CURVE SMOOTH",
"212 442 OFFCURVE",
"294 557 OFFCURVE",
"371 583 CURVE",
"406 586 OFFCURVE",
"444 579 OFFCURVE",
"466 565 CURVE",
"472 466 LINE",
"500 465 OFFCURVE",
"560 470 OFFCURVE",
"590 478 CURVE",
"626 661 LINE",
"558 699 OFFCURVE",
"449 707 OFFCURVE",
"347 685 CURVE SMOOTH",
"260 666 OFFCURVE",
"176 623 OFFCURVE",
"121 558 CURVE SMOOTH",
"36 458 OFFCURVE",
"-1 313 OFFCURVE",
"16 199 CURVE SMOOTH",
"43 18 OFFCURVE",
"165 -20 OFFCURVE",
"316 -16 CURVE SMOOTH",
"445 -13 OFFCURVE",
"528 34 OFFCURVE",
"552 52 CURVE",
"546 154 LINE"
);
},
{
closed = 1;
nodes = (
"579 225 LINE",
"550 229 OFFCURVE",
"485 227 OFFCURVE",
"455 222 CURVE",
"398 59 LINE",
"552 52 LINE"
);
}
);
width = 600;
}
);
leftKerningGroup = O;
leftMetricsKey = O;
rightKerningGroup = C;
unicode = 0043;
},
{
color = 1;
glyphname = C.001;
lastChange = "2018-06-18 14:45:46 +0000";
layers = (
{
anchors = (
{
name = bottom;
position = "{318, 0}";
},
{
name = top;
position = "{342, 680}";
}
);
background = {
components = (
{
name = O;
transform = "{1, 0, 0, 1, -13, 0}";
}
);
};
layerId = "977FCFA9-45AC-4A33-B2D7-4D17E6BBF8E0";
paths = (
{
closed = 1;
nodes = (
"419 65 OFFCURVE",
"276 87 OFFCURVE",
"237 269 CURVE SMOOTH",
"200 442 OFFCURVE",
"266 557 OFFCURVE",
"339 583 CURVE",
"374 586 OFFCURVE",
"413 579 OFFCURVE",
"437 565 CURVE",
"456 466 LINE",
"485 465 OFFCURVE",
"544 470 OFFCURVE",
"573 478 CURVE",
"583 661 LINE",
"510 699 OFFCURVE",
"400 707 OFFCURVE",
"301 685 CURVE SMOOTH",
"217 666 OFFCURVE",
"139 623 OFFCURVE",
"93 558 CURVE SMOOTH",
"22 458 OFFCURVE",
"5 313 OFFCURVE",
"38 199 CURVE SMOOTH",
"90 18 OFFCURVE",
"217 -20 OFFCURVE",
"368 -16 CURVE SMOOTH",
"496 -13 OFFCURVE",
"573 34 OFFCURVE",
"594 52 CURVE",
"574 154 LINE"
);
},
{
closed = 1;
nodes = (
"597 225 LINE",
"568 229 OFFCURVE",
"503 227 OFFCURVE",
"474 222 CURVE",
"439 59 LINE",
"594 52 LINE"
);
}
);
width = 624;
},
{
anchors = (
{
name = bottom;
position = "{310, 0}";
},
{
name = top;
position = "{335, 680}";
}
);
background = {
components = (
{
name = G;
transform = "{1, 0, 0, 1, 1, 0}";
}
);
};
guideLines = (
{
angle = 85;
position = "{541, 285}";
}
);
layerId = "71FD7A9F-05F5-4D76-8D4F-547475A05E4C";
paths = (
{
closed = 1;
nodes = (
"465 63 OFFCURVE",
"408 53 OFFCURVE",
"355 53 CURVE SMOOTH",
"197 53 OFFCURVE",
"117 188 OFFCURVE",
"117 356 CURVE SMOOTH",
"117 512 OFFCURVE",
"216 614 OFFCURVE",
"290 634 CURVE",
"335 635 OFFCURVE",
"432 629 OFFCURVE",
"456 606 CURVE",
"472 522 LINE",
"489 523 OFFCURVE",
"506 527 OFFCURVE",
"521 532 CURVE",
"528 655 LINE",
"486 680 OFFCURVE",
"425 692 OFFCURVE",
"364 692 CURVE SMOOTH",
"164 692 OFFCURVE",
"30 545 OFFCURVE",
"30 330 CURVE SMOOTH",
"30 126 OFFCURVE",
"139 -10 OFFCURVE",
"328 -10 CURVE SMOOTH",
"400 -10 OFFCURVE",
"474 7 OFFCURVE",
"536 49 CURVE",
"519 93 LINE"
);
},
{
closed = 1;
nodes = (
"536 49 LINE",
"536 172 LINE",
"520 173 OFFCURVE",
"504 171 OFFCURVE",
"488 168 CURVE",
"462 54 LINE"
);
}
);
width = 586;
}
);
leftKerningGroup = O;
rightKerningGroup = C;
},
{
color = 8;
glyphname = D;
lastChange = "2017-09-10 18:57:27 +0000";
layers = (
{
anchors = (
{
name = bottom;
position = "{321, 0}";
},
{
name = center;
position = "{210, 340}";
},
{
name = top;
position = "{374, 680}";
}
);
components = (
{
name = _part.stem.cap;
transform = "{1, 0, 0, 1, -13, 0}";
}
);
layerId = "71FD7A9F-05F5-4D76-8D4F-547475A05E4C";
paths = (
{
closed = 1;
nodes = (
"32 0 LINE",
"319 -4 LINE SMOOTH",
"543 -7 OFFCURVE",
"715 233 OFFCURVE",
"659 479 CURVE SMOOTH",
"622 646 OFFCURVE",
"487 685 OFFCURVE",
"321 689 CURVE SMOOTH",
"257 691 OFFCURVE",
"129 682 OFFCURVE",
"96 680 CURVE",
"247 638 LINE",
"417 644 OFFCURVE",
"537 594 OFFCURVE",
"571 447 CURVE SMOOTH",
"619 233 OFFCURVE",
"468 79 OFFCURVE",
"380 45 CURVE",
"195 55 LINE"
);
}
);
width = 682;
},
{
anchors = (
{
name = bottom;
position = "{314, 0}";
},
{
name = center;
position = "{205, 350}";
},
{
name = top;
position = "{357, 680}";
}
);
background = {
paths = (
{
closed = 1;
nodes = (
"531 683 OFFCURVE",
"444 727 OFFCURVE",
"310 709 CURVE",
"21 647 OFFCURVE",
"-38 244 OFFCURVE",
"96 81 CURVE SMOOTH",
"167 -7 OFFCURVE",
"276 -28 OFFCURVE",
"393 0 CURVE",
"648 77 OFFCURVE",
"719 439 OFFCURVE",
"582 616 CURVE SMOOTH"
);
},
{
closed = 1;
nodes = (
"307 74 OFFCURVE",
"254 99 OFFCURVE",
"219 176 CURVE SMOOTH",
"145 333 OFFCURVE",
"173 545 OFFCURVE",
"313 626 CURVE",
"372 626 OFFCURVE",
"422 608 OFFCURVE",
"462 519 CURVE SMOOTH",
"530 371 OFFCURVE",
"505 162 OFFCURVE",
"367 75 CURVE"
);
}
);
};
components = (
{
name = _part.stem.cap;
piece = {
"BPR?" = 1;
};
transform = "{1, 0, 0, 1, -167, 0}";
}
);
layerId = "977FCFA9-45AC-4A33-B2D7-4D17E6BBF8E0";
paths = (
{
closed = 1;
nodes = (
"26 0 LINE",
"324 -2 LINE SMOOTH",
"553 -4 OFFCURVE",
"714 225 OFFCURVE",
"667 480 CURVE SMOOTH",
"636 650 OFFCURVE",
"487 688 OFFCURVE",
"306 688 CURVE SMOOTH",
"224 688 OFFCURVE",
"111 682 OFFCURVE",
"77 680 CURVE",
"288 606 LINE",
"407 620 OFFCURVE",
"493 552 OFFCURVE",
"510 427 CURVE SMOOTH",
"535 245 OFFCURVE",
"450 112 OFFCURVE",
"363 75 CURVE",
"234 90 LINE"
);
}
);
width = 672;
}
);
leftKerningGroup = I;
leftMetricsKey = H;
rightKerningGroup = O;
rightMetricsKey = O;
unicode = 0044;
},
{
color = 1;
glyphname = D.001;
lastChange = "2018-06-18 14:45:47 +0000";
layers = (
{
anchors = (
{
name = bottom;
position = "{337, 0}";
},
{
name = center;
position = "{177, 350}";
},
{
name = top;
position = "{337, 680}";
}
);
background = {
components = (
{
name = C;
transform = "{-1, 0, 0, -1, 713, 687}";
}
);
};
components = (
{
name = _part.stem.cap;
transform = "{1, 0, 0, 1, -190, 0}";
}
);
layerId = "977FCFA9-45AC-4A33-B2D7-4D17E6BBF8E0";
paths = (
{
closed = 1;
nodes = (
"51 1 LINE",
"344 -6 LINE SMOOTH",
"589 -12 OFFCURVE",
"735 220 OFFCURVE",
"666 475 CURVE SMOOTH",
"620 645 OFFCURVE",
"482 690 OFFCURVE",
"280 689 CURVE SMOOTH",
"198 689 OFFCURVE",
"68 688 OFFCURVE",
"35 686 CURVE",
"241 566 LINE",
"359 580 OFFCURVE",
"449 544 OFFCURVE",
"477 419 CURVE SMOOTH",
"518 237 OFFCURVE",
"449 135 OFFCURVE",
"358 104 CURVE",
"230 118 LINE"
);
}
);
width = 705;
},
{
anchors = (
{
name = bottom;
position = "{328, 0}";
},
{
name = center;
position = "{168, 350}";
},
{
name = top;
position = "{328, 680}";
}
);
background = {
components = (
{
name = C;
transform = "{-1, 0, 0, -1, 670, 684}";
}
);
};
components = (
{
name = _part.stem.cap;
piece = {
"BPR?" = 1;
};
transform = "{1, 0, 0, 1, -119, 0}";
}
);
guideLines = (
{
position = "{434, 746}";
},
{
position = "{421, 865}";
}
);
layerId = "71FD7A9F-05F5-4D76-8D4F-547475A05E4C";
paths = (
{
closed = 1;
nodes = (
"63 0 LINE",
"339 -3 LINE SMOOTH",
"559 -5 OFFCURVE",
"687 255 OFFCURVE",
"621 480 CURVE SMOOTH",
"568 654 OFFCURVE",
"449 687 OFFCURVE",
"270 687 CURVE SMOOTH",
"203 687 OFFCURVE",
"97 682 OFFCURVE",
"67 680 CURVE",
"222 638 LINE",
"233 638 OFFCURVE",
"244 639 OFFCURVE",
"254 639 CURVE SMOOTH",
"404 639 OFFCURVE",
"495 597 OFFCURVE",
"538 448 CURVE SMOOTH",
"581 293 OFFCURVE",
"534 107 OFFCURVE",
"390 51 CURVE",
"221 55 LINE"
);
}
);
width = 677;
}
);
leftKerningGroup = I;
rightKerningGroup = O;
},
{
color = 8;
glyphname = E;
lastChange = "2017-09-10 18:25:38 +0000";
layers = (
{
anchors = (
{
name = bottom;
position = "{251, 0}";
},
{
name = ogonek;
position = "{472, 10}";
},
{
name = top;
position = "{322, 680}";
},
{
name = topleft;
position = "{66, 680}";
}
);
components = (
{
name = _part.stem.cap;
transform = "{1, 0, -0.0171, 1, -6, 0}";
}
);
layerId = "71FD7A9F-05F5-4D76-8D4F-547475A05E4C";
paths = (
{
closed = 1;
nodes = (
"178 1 LINE",
"278 1 OFFCURVE",
"388 0 OFFCURVE",
"492 -3 CURVE",
"528 152 LINE",
"487 159 LINE",
"445 70 LINE",
"400 56 OFFCURVE",
"261 51 OFFCURVE",
"184 55 CURVE"
);
},
{
closed = 1;
nodes = (
"330 623 OFFCURVE",
"423 619 OFFCURVE",
"472 609 CURVE",
"480 527 LINE",
"526 537 LINE",
"541 680 LINE",
"533 689 LINE",
"429 683 OFFCURVE",
"313 680 OFFCURVE",
"200 680 CURVE",
"210 624 LINE"
);
},
{
closed = 1;
nodes = (
"193 348 LINE",
"409 330 LINE",
"428 397 LINE",
"416 405 LINE",
"364 402 OFFCURVE",
"170 396 OFFCURVE",
"202 397 CURVE"
);
}
);
width = 552;
},
{
anchors = (
{
name = bottom;
position = "{258, 0}";
},
{
name = ogonek;
position = "{481, 10}";
},
{
name = top;
position = "{316, 680}";
},
{
name = topleft;
position = "{84, 700}";
}
);
background = {
paths = (
{
closed = 1;
nodes = (
"79 700 LINE",
"71 653 LINE",
"121 642 LINE",
"132 602 OFFCURVE",
"125 484 OFFCURVE",
"122 427 CURVE SMOOTH",
"113 249 OFFCURVE",
"88 101 OFFCURVE",
"91 88 CURVE SMOOTH",
"95 74 OFFCURVE",
"133 56 OFFCURVE",
"152 50 CURVE",
"32 51 LINE",
"29 0 LINE",
"527 -1 LINE",
"553 164 LINE",
"503 175 LINE",
"498 165 OFFCURVE",
"483 127 OFFCURVE",
"469 98 CURVE",
"430 85 OFFCURVE",
"331 80 OFFCURVE",
"257 81 CURVE",
"227 114 OFFCURVE",
"235 228 OFFCURVE",
"243 331 CURVE",
"365 325 LINE",
"376 279 LINE",
"416 282 LINE",
"421 325 OFFCURVE",
"428 410 OFFCURVE",
"413 410 CURVE SMOOTH",
"405 410 OFFCURVE",
"242 404 OFFCURVE",
"248 404 CURVE",
"249 455 OFFCURVE",
"265 570 OFFCURVE",
"276 614 CURVE",
"347 614 OFFCURVE",
"446 615 OFFCURVE",
"490 601 CURVE",
"497 585 OFFCURVE",
"509 561 OFFCURVE",
"524 524 CURVE",
"574 535 LINE",
"548 700 LINE"
);
}
);
};
components = (
{
name = _part.stem.cap;
transform = "{1, 0, 0, 1, -166, 0}";
}
);
guideLines = (
{
angle = 12;
position = "{495, 529}";
},
{
angle = -12;
position = "{476, 175}";
},
{
angle = 84;
position = "{490, 548}";
}
);
layerId = "977FCFA9-45AC-4A33-B2D7-4D17E6BBF8E0";
paths = (
{
closed = 1;
nodes = (
"172 0 LINE",
"398 0 OFFCURVE",
"337 1 OFFCURVE",
"517 -4 CURVE",
"556 189 LINE",
"491 197 LINE",
"453 115 LINE",
"409 101 OFFCURVE",
"307 96 OFFCURVE",
"228 99 CURVE"
);
},
{
closed = 1;
nodes = (
"328 585 OFFCURVE",
"417 582 OFFCURVE",
"466 574 CURVE",
"476 482 LINE",
"548 492 LINE",
"565 677 LINE",
"554 687 LINE",
"407 679 OFFCURVE",
"352 683 OFFCURVE",
"202 680 CURVE",
"208 586 LINE"
);
},
{
closed = 1;
nodes = (
"228 323 LINE",
"414 302 LINE",
"441 408 LINE",
"426 418 LINE",
"367 417 OFFCURVE",
"301 414 OFFCURVE",
"241 411 CURVE"
);
}
);
width = 571;
}
);
leftKerningGroup = I;
leftMetricsKey = H;
rightKerningGroup = E;
unicode = 0045;
},
{
color = 1;
glyphname = E.001;
lastChange = "2018-06-18 14:45:47 +0000";
layers = (
{
anchors = (
{
name = bottom;
position = "{320, 0}";
},
{
name = ogonek;
position = "{496, 10}";
},
{
name = top;
position = "{304, 680}";
},
{
name = topleft;
position = "{50, 700}";
}
);
background = {
components = (
{
name = P;
transform = "{1, 0, 0, 1, 30, 0}";
}
);
};
components = (
{
name = _part.stem.cap;
transform = "{1, 0, 0, 1, -190, 0}";
}
);
guideLines = (
{
angle = 90;
position = "{422, 295}";
}
);
layerId = "977FCFA9-45AC-4A33-B2D7-4D17E6BBF8E0";
paths = (
{
closed = 1;
nodes = (
"217 0 LINE",
"443 0 OFFCURVE",
"382 1 OFFCURVE",
"562 -4 CURVE",
"584 204 LINE",
"557 210 OFFCURVE",
"506 212 OFFCURVE",
"479 212 CURVE",
"448 135 LINE",
"405 121 OFFCURVE",
"343 116 OFFCURVE",
"264 119 CURVE"
);
},
{
closed = 1;
nodes = (
"247 300 LINE",
"435 279 LINE",
"451 403 LINE",
"435 413 LINE",
"376 412 OFFCURVE",
"310 409 OFFCURVE",
"251 406 CURVE"
);
},
{
closed = 1;
nodes = (
"322 569 OFFCURVE",
"370 566 OFFCURVE",
"420 558 CURVE",
"438 473 LINE",
"467 472 OFFCURVE",
"521 476 OFFCURVE",
"550 483 CURVE",
"551 682 LINE",
"539 692 LINE",
"393 684 OFFCURVE",
"337 688 OFFCURVE",
"187 685 CURVE",
"202 570 LINE"
);
}
);
width = 604;
},
{
anchors = (
{
name = bottom;
position = "{295, 0}";
},
{
name = ogonek;
position = "{527, 10}";
},
{
name = top;
position = "{306, 680}";
},
{
name = topleft;
position = "{25, 700}";
}
);
background = {
paths = (
{
closed = 1;
nodes = (
"536 151 LINE",
"486 156 LINE",
"469 123 OFFCURVE",
"454 90 OFFCURVE",
"439 53 CURVE",
"207 47 LINE",
"211 68 OFFCURVE",
"212 89 OFFCURVE",
"212 110 CURVE SMOOTH",
"212 317 LINE",
"467 305 LINE",
"469 330 OFFCURVE",
"469 355 OFFCURVE",
"467 380 CURVE",
"212 368 LINE",
"212 623 LINE",
"420 617 LINE",
"443 513 LINE",
"493 508 LINE",
"501 543 OFFCURVE",
"510 616 OFFCURVE",
"512 660 CURVE",
"502 670 LINE",
"57 670 LINE",
"52 640 LINE",
"75 630 OFFCURVE",
"100 621 OFFCURVE",
"127 615 CURVE",
"127 55 LINE",
"100 49 OFFCURVE",
"75 40 OFFCURVE",
"52 30 CURVE",
"52 0 LINE",
"512 0 LINE",
"522 10 LINE"
);
}
);
};
components = (
{
name = _part.stem.cap;
transform = "{1, 0, 0, 1, -121, 0}";
}
);
guideLines = (
{
position = "{421, 322}";
}
);
layerId = "71FD7A9F-05F5-4D76-8D4F-547475A05E4C";
paths = (
{
closed = 1;
nodes = (
"217 0 LINE",
"317 0 OFFCURVE",
"427 0 OFFCURVE",
"531 -3 CURVE",
"553 152 LINE",
"539 157 OFFCURVE",
"526 160 OFFCURVE",
"512 159 CURVE",
"477 70 LINE",
"444 59 OFFCURVE",
"352 54 OFFCURVE",
"277 54 CURVE SMOOTH",
"255 54 OFFCURVE",
"235 54 OFFCURVE",
"218 55 CURVE"
);
},
{
closed = 1;
nodes = (
"201 338 LINE",
"418 320 LINE",
"431 387 LINE",
"419 395 LINE",
"367 392 OFFCURVE",
"174 386 OFFCURVE",
"205 387 CURVE"
);
},
{
closed = 1;
nodes = (
"314 623 OFFCURVE",
"407 619 OFFCURVE",
"457 609 CURVE",
"472 527 LINE",
"488 527 OFFCURVE",
"504 531 OFFCURVE",
"518 537 CURVE",
"520 680 LINE",
"511 689 LINE",
"408 683 OFFCURVE",
"292 680 OFFCURVE",
"179 680 CURVE",
"194 624 LINE"
);
}
);
width = 588;
}
);
leftKerningGroup = I;
rightKerningGroup = E;
},
{
color = 8;
glyphname = F;
lastChange = "2017-09-10 18:25:38 +0000";
layers = (
{
components = (
{
name = _part.stem.cap;
transform = "{1, 0, -0.0171, 1, -6, 0}";
}
);
layerId = "71FD7A9F-05F5-4D76-8D4F-547475A05E4C";
paths = (
{
closed = 1;
nodes = (
"328 623 OFFCURVE",
"422 618 OFFCURVE",
"471 610 CURVE",
"479 527 LINE",
"526 537 LINE",
"539 680 LINE",
"531 688 LINE",
"417 682 OFFCURVE",
"311 683 OFFCURVE",
"198 680 CURVE",
"208 624 LINE"
);
},
{
closed = 1;
nodes = (
"173 0 LINE",
"301 0 LINE",
"315 48 LINE",
"193 58 LINE",
"172 36 LINE"
);
},
{
closed = 1;
nodes = (
"188 338 LINE",
"405 320 LINE",
"424 387 LINE",
"413 395 LINE",
"361 392 OFFCURVE",
"165 386 OFFCURVE",
"196 387 CURVE"
);
}
);
width = 495;
},
{
background = {
components = (
{
name = E;
transform = "{1, 0, 0, 1, -9, 0}";
}
);
};
components = (
{
name = _part.stem.cap;
transform = "{1, 0, 0, 1, -166, 0}";
}
);
guideLines = (
{
position = "{492, 541}";
}
);
layerId = "977FCFA9-45AC-4A33-B2D7-4D17E6BBF8E0";
paths = (
{
closed = 1;
nodes = (
"330 595 OFFCURVE",
"417 592 OFFCURVE",
"466 584 CURVE",
"480 492 LINE",
"550 502 LINE",
"559 678 LINE",
"546 687 LINE",
"433 681 OFFCURVE",
"314 682 OFFCURVE",
"202 680 CURVE",
"210 596 LINE"
);
},
{
closed = 1;
nodes = (
"178 0 LINE",
"360 0 LINE",
"371 66 LINE",
"251 78 LINE",
"169 61 LINE"
);
},
{
closed = 1;
nodes = (
"235 313 LINE",
"421 292 LINE",
"448 398 LINE",
"433 408 LINE",
"374 407 OFFCURVE",
"308 404 OFFCURVE",
"248 401 CURVE"
);
}
);
width = 532;
}
);
leftKerningGroup = I;
leftMetricsKey = H;
rightKerningGroup = F;
unicode = 0046;
},
{
color = 1;
glyphname = F.001;
lastChange = "2018-06-18 14:45:47 +0000";
layers = (
{
anchors = (
{
name = bottom;
position = "{300, 0}";
},
{
name = top;
position = "{300, 680}";
}
);
background = {
components = (
{
name = E;
transform = "{1, 0, 0, 1, -8, 0}";
}
);
};
components = (
{
name = _part.stem.cap;
transform = "{1, 0, 0, 1, -190, 0}";
}
);
guideLines = (
{
angle = 86;
position = "{418, 235}";
}
);
layerId = "977FCFA9-45AC-4A33-B2D7-4D17E6BBF8E0";
paths = (
{
closed = 1;
nodes = (
"215 0 LINE",
"397 0 LINE",
"403 26 OFFCURVE",
"408 73 OFFCURVE",
"406 99 CURVE",
"281 117 LINE",
"201 98 LINE"
);
},
{
closed = 1;
nodes = (
"244 292 LINE",
"432 271 LINE",
"448 394 LINE",
"432 404 LINE",
"373 403 OFFCURVE",
"307 400 OFFCURVE",
"248 397 CURVE"
);
},
{
closed = 1;
nodes = (
"322 570 OFFCURVE",
"371 567 OFFCURVE",
"421 559 CURVE",
"439 472 LINE",
"468 472 OFFCURVE",
"521 476 OFFCURVE",
"550 482 CURVE",
"551 682 LINE",
"539 692 LINE",
"393 684 OFFCURVE",
"337 688 OFFCURVE",
"187 685 CURVE",
"202 571 LINE"
);
}
);
width = 569;
},
{
anchors = (
{
name = bottom;
position = "{286, 0}";
},
{
name = top;
position = "{286, 680}";
}
);
background = {
components = (
{
name = E;
transform = "{1, 0, 0, 1, 2, 0}";
}
);
};
components = (
{
name = _part.stem.cap;
transform = "{1, 0, 0, 1, -121, 0}";
}
);
layerId = "71FD7A9F-05F5-4D76-8D4F-547475A05E4C";
paths = (
{
closed = 1;
nodes = (
"193 318 LINE",
"412 300 LINE",
"425 367 LINE",
"413 375 LINE",
"361 372 OFFCURVE",
"166 366 OFFCURVE",
"197 367 CURVE"
);
},
{
closed = 1;
nodes = (
"308 623 OFFCURVE",
"406 618 OFFCURVE",
"456 610 CURVE",
"471 527 LINE",
"487 529 OFFCURVE",
"502 533 OFFCURVE",
"518 537 CURVE",
"518 680 LINE",
"509 688 LINE",
"396 682 OFFCURVE",
"286 681 OFFCURVE",
"173 680 CURVE",
"188 624 LINE"
);
},
{
closed = 1;
nodes = (
"203 36 LINE",
"208 0 LINE",
"339 0 LINE",
"343 16 OFFCURVE",
"345 32 OFFCURVE",
"345 48 CURVE",
"219 60 LINE"
);
}
);
width = 538;
}
);
leftKerningGroup = I;
rightKerningGroup = F;
},
{
color = 8;
glyphname = G;
lastChange = "2017-09-10 18:25:38 +0000";
layers = (
{
layerId = "71FD7A9F-05F5-4D76-8D4F-547475A05E4C";
paths = (
{
closed = 1;
nodes = (
"171 686 OFFCURVE",
"18 482 OFFCURVE",
"47 235 CURVE SMOOTH",
"67 71 OFFCURVE",
"174 -4 OFFCURVE",
"291 -12 CURVE SMOOTH",
"436 -22 OFFCURVE",
"512 12 OFFCURVE",
"570 51 CURVE",
"572 129 OFFCURVE",
"585 249 OFFCURVE",
"588 271 CURVE",
"622 288 LINE",
"628 331 LINE",
"541 330 OFFCURVE",
"503 330 OFFCURVE",
"418 331 CURVE",
"410 288 LINE",
"514 267 LINE",
"512 211 OFFCURVE",
"508 101 OFFCURVE",
"479 60 CURVE",
"317 18 OFFCURVE",
"166 47 OFFCURVE",
"136 271 CURVE SMOOTH",
"111 462 OFFCURVE",
"224 604 OFFCURVE",
"341 642 CURVE",
"436 644 OFFCURVE",
"525 613 OFFCURVE",
"554 586 CURVE",
"556 503 LINE",
"607 513 LINE",
"626 638 LINE",
"588 666 OFFCURVE",
"506 699 OFFCURVE",
"399 695 CURVE SMOOTH"
);
}
);
width = 647;
},
{
anchors = (
{
name = bottom;
position = "{286, 0}";
},
{
name = top;
position = "{366, 680}";
}
);
background = {
components = (
{
name = C;
transform = "{1, 0, 0, 1, -1, 0}";
}
);
};
layerId = "977FCFA9-45AC-4A33-B2D7-4D17E6BBF8E0";
paths = (
{
closed = 1;
nodes = (
"150 692 OFFCURVE",
"-12 463 OFFCURVE",
"21 223 CURVE SMOOTH",
"44 59 OFFCURVE",
"171 -5 OFFCURVE",
"288 -14 CURVE SMOOTH",
"421 -24 OFFCURVE",
"523 12 OFFCURVE",
"580 51 CURVE",
"585 129 OFFCURVE",
"594 236 OFFCURVE",
"597 258 CURVE",
"633 274 LINE",
"645 344 LINE",
"558 343 OFFCURVE",
"474 343 OFFCURVE",
"391 345 CURVE",
"380 277 LINE",
"463 257 LINE",
"461 201 OFFCURVE",
"453 123 OFFCURVE",
"434 82 CURVE",
"345 64 OFFCURVE",
"207 103 OFFCURVE",
"180 267 CURVE SMOOTH",
"150 450 OFFCURVE",
"271 577 OFFCURVE",
"336 604 CURVE",
"400 607 OFFCURVE",
"487 591 OFFCURVE",
"525 555 CURVE",
"536 474 LINE",
"611 483 LINE",
"636 656 LINE",
"593 677 OFFCURVE",
"507 701 OFFCURVE",
"393 698 CURVE SMOOTH"
);
}
);
width = 644;
}
);
leftKerningGroup = O;
leftMetricsKey = O;
rightKerningGroup = I;
unicode = 0047;
},
{
color = 1;
glyphname = G.001;
lastChange = "2018-06-18 14:45:47 +0000";
layers = (
{
anchors = (
{
name = bottom;
position = "{334, 0}";
},
{
name = top;
position = "{348, 680}";
}
);
background = {
components = (
{
name = C;
transform = "{1, 0, 0, 1, 60, 0}";
}
);
};
guideLines = (
{
angle = 86;
position = "{650, 414}";
},
{
angle = 90;
position = "{606, 214}";
}
);
layerId = "977FCFA9-45AC-4A33-B2D7-4D17E6BBF8E0";
paths = (
{
closed = 1;
nodes = (
"569 685 OFFCURVE",
"493 699 OFFCURVE",
"417 699 CURVE SMOOTH",
"135 699 OFFCURVE",
"-11 477 OFFCURVE",
"43 223 CURVE SMOOTH",
"83 37 OFFCURVE",
"197 -5 OFFCURVE",
"315 -14 CURVE SMOOTH",
"449 -24 OFFCURVE",
"568 12 OFFCURVE",
"622 51 CURVE",
"620 129 OFFCURVE",
"620 210 OFFCURVE",
"621 232 CURVE",
"656 248 LINE",
"661 275 OFFCURVE",
"664 321 OFFCURVE",
"663 348 CURVE",
"576 347 OFFCURVE",
"462 347 OFFCURVE",
"379 349 CURVE",
"374 323 OFFCURVE",
"371 277 OFFCURVE",
"372 251 CURVE",
"459 231 LINE",
"462 175 OFFCURVE",
"462 145 OFFCURVE",
"446 104 CURVE",
"384 92 OFFCURVE",
"281 106 OFFCURVE",
"246 277 CURVE SMOOTH",
"215 429 OFFCURVE",
"269 549 OFFCURVE",
"332 576 CURVE",
"389 579 OFFCURVE",
"435 573 OFFCURVE",
"480 549 CURVE",
"499 461 LINE",
"530 461 OFFCURVE",
"580 464 OFFCURVE",
"611 472 CURVE",
"621 661 LINE"
);
}
);
width = 677;
},
{
anchors = (
{
name = bottom;
position = "{337, 0}";
},
{
name = top;
position = "{351, 680}";
}
);
background = {
components = (
{
name = O;
transform = "{1, 0, 0, 1, 3, 1}";
}
);
};
guideLines = (
{
angle = 90;
position = "{589, 405}";
}
);
layerId = "71FD7A9F-05F5-4D76-8D4F-547475A05E4C";
paths = (
{
closed = 1;
nodes = (
"0 485 OFFCURVE",
"51 230 CURVE SMOOTH",
"85 66 OFFCURVE",
"200 -4 OFFCURVE",
"318 -12 CURVE SMOOTH",
"421 -17 OFFCURVE",
"493 -11 OFFCURVE",
"577 43 CURVE",
"575 76 OFFCURVE",
"574 122 OFFCURVE",
"574 160 CURVE SMOOTH",
"574 211 OFFCURVE",
"575 243 OFFCURVE",
"576 256 CURVE",
"630 273 LINE",
"633 287 OFFCURVE",
"634 302 OFFCURVE",
"633 316 CURVE",
"590 316 OFFCURVE",
"443 316 OFFCURVE",
"400 316 CURVE",
"395 302 OFFCURVE",
"394 287 OFFCURVE",
"395 273 CURVE",
"501 252 LINE",
"502 231 OFFCURVE",
"503 207 OFFCURVE",
"503 185 CURVE SMOOTH",
"503 135 OFFCURVE",
"500 84 OFFCURVE",
"484 58 CURVE",
"455 49 OFFCURVE",
"424 44 OFFCURVE",
"391 44 CURVE SMOOTH",
"285 44 OFFCURVE",
"175 95 OFFCURVE",
"137 266 CURVE SMOOTH",
"101 420 OFFCURVE",
"168 590 OFFCURVE",
"310 638 CURVE",
"389 642 OFFCURVE",
"474 629 OFFCURVE",
"505 602 CURVE",
"514 519 LINE",
"531 519 OFFCURVE",
"547 523 OFFCURVE",
"564 529 CURVE",
"573 654 LINE",
"536 679 OFFCURVE",
"482 695 OFFCURVE",
"395 695 CURVE SMOOTH",
"136 695 OFFCURVE"
);
}
);
width = 678;
}
);
leftKerningGroup = O;
rightKerningGroup = I;
},
{
color = 8;
glyphname = H;
lastChange = "2017-09-10 18:25:38 +0000";
layers = (
{
anchors = (
{
name = bottom;
position = "{332, 0}";
},
{
name = center;
position = "{368, 340}";
},
{
name = top;
position = "{403, 680}";
},
{
name = topleft;
position = "{66, 680}";
}
);
components = (
{
name = _part.stem.cap;
transform = "{1, 0, -0.0171, 1, -6, 0}";
},
{
name = _part.stem.cap;
transform = "{1, 0, -0.0171, 1, 396, 0}";
}
);
layerId = "71FD7A9F-05F5-4D76-8D4F-547475A05E4C";
paths = (
{
closed = 1;
nodes = (
"172 322 LINE",
"559 324 LINE",
"554 372 LINE",
"181 372 LINE"
);
}
);
width = 714;
},
{
anchors = (
{
name = bottom;
position = "{326, 0}";
},
{
name = center;
position = "{369, 350}";
},
{
name = top;
position = "{408, 680}";
},
{
name = topleft;
position = "{72, 700}";
}
);
background = {
paths = (
{
closed = 1;
nodes = (
"549 671 OFFCURVE",
"478 732 OFFCURVE",
"312 696 CURVE SMOOTH",
"60 641 OFFCURVE",
"6 234 OFFCURVE",
"130 89 CURVE SMOOTH",
"201 6 OFFCURVE",
"283 -23 OFFCURVE",
"423 8 CURVE SMOOTH",
"656 60 OFFCURVE",
"724 458 OFFCURVE",
"595 615 CURVE SMOOTH"
);
},
{
closed = 1;
nodes = (
"327 77 OFFCURVE",
"278 104 OFFCURVE",
"244 179 CURVE SMOOTH",
"175 333 OFFCURVE",
"195 544 OFFCURVE",
"330 627 CURVE",
"387 627 OFFCURVE",
"446 609 OFFCURVE",
"484 522 CURVE SMOOTH",
"548 377 OFFCURVE",
"532 162 OFFCURVE",
"395 77 CURVE"
);
}
);
};
components = (
{
name = _part.stem.cap;
transform = "{1, 0, 0, 1, -166, 0}";
},
{
name = _part.stem.cap;
transform = "{1, 0, 0, 1, 235, 0}";
}
);
guideLines = (
{
position = "{1802, 733}";
}
);
layerId = "977FCFA9-45AC-4A33-B2D7-4D17E6BBF8E0";
paths = (
{
closed = 1;
nodes = (
"213 305 LINE",
"539 308 LINE",
"537 391 LINE",
"225 391 LINE"
);
}
);
width = 757;
}
);
leftKerningGroup = I;
rightKerningGroup = I;
unicode = 0048;
},
{
color = 1;
glyphname = H.001;
lastChange = "2018-06-18 14:45:47 +0000";
layers = (
{
anchors = (
{
name = bottom;
position = "{375, 0}";
},
{
name = center;
position = "{375, 350}";
},
{
name = top;
position = "{375, 680}";
},
{
name = topleft;
position = "{34, 700}";
}
);
components = (
{
name = _part.stem.cap;
transform = "{1, 0, 0, 1, -190, 0}";
},
{
name = _part.stem.cap;
transform = "{1, 0, 0, 1, 192, 0}";
}
);
layerId = "977FCFA9-45AC-4A33-B2D7-4D17E6BBF8E0";
paths = (
{
closed = 1;
nodes = (
"226 279 LINE",
"551 282 LINE",
"542 391 LINE",
"230 391 LINE"
);
}
);
width = 771;
},
{
anchors = (
{
name = bottom;
position = "{370, 0}";
},
{
name = center;
position = "{370, 350}";
},
{
name = top;
position = "{370, 680}";
},
{
name = topleft;
position = "{29, 700}";
}
);
background = {
paths = (
{
closed = 1;
nodes = (
"679 629 LINE",
"749 640 LINE",
"744 670 LINE",
"524 670 LINE",
"519 640 LINE",
"542 630 OFFCURVE",
"567 621 OFFCURVE",
"594 615 CURVE",
"594 370 LINE",
"214 370 LINE",
"214 629 LINE",
"284 640 LINE",
"279 670 LINE",
"59 670 LINE",
"54 640 LINE",
"77 630 OFFCURVE",
"102 621 OFFCURVE",
"129 615 CURVE",
"129 55 LINE",
"102 49 OFFCURVE",
"77 40 OFFCURVE",
"54 30 CURVE",
"54 0 LINE",
"279 0 LINE",
"284 30 LINE",
"208 42 LINE",
"212 69 OFFCURVE",
"214 97 OFFCURVE",
"214 130 CURVE SMOOTH",
"214 315 LINE",
"594 315 LINE",
"594 55 LINE",
"567 49 OFFCURVE",
"542 40 OFFCURVE",
"519 30 CURVE",
"519 0 LINE",
"744 0 LINE",
"749 30 LINE",
"673 42 LINE",
"677 69 OFFCURVE",
"679 97 OFFCURVE",
"679 130 CURVE SMOOTH"
);
}
);
};
components = (
{
name = _part.stem.cap;
transform = "{1, 0, 0, 1, -118, 0}";
},
{
name = _part.stem.cap;
transform = "{1, 0, 0, 1, 284, 0}";
}
);
layerId = "71FD7A9F-05F5-4D76-8D4F-547475A05E4C";
paths = (
{
closed = 1;
nodes = (
"194 312 LINE",
"327 316 OFFCURVE",
"460 316 OFFCURVE",
"593 314 CURVE",
"584 375 LINE",
"455 371 OFFCURVE",
"327 371 OFFCURVE",
"198 375 CURVE"
);
}
);
width = 764;
}
);
leftKerningGroup = I;
rightKerningGroup = I;
},
{
color = 8;
glyphname = Hbar;
lastChange = "2017-09-10 18:57:27 +0000";
layers = (
{
components = (
{
name = H;
transform = "{1, 0, 0, 1, 37, 0}";
}
);
layerId = "71FD7A9F-05F5-4D76-8D4F-547475A05E4C";
paths = (
{
closed = 1;
nodes = (
"772 513 LINE",
"763 523 LINE",
"554 523 OFFCURVE",
"325 519 OFFCURVE",
"81 520 CURVE",
"70 474 LINE",
"81 467 LINE",
"307 469 OFFCURVE",
"531 469 OFFCURVE",
"760 468 CURVE"
);
}
);
width = 761;
},
{
components = (
{
name = H;
transform = "{1, 0, 0, 1, 45, 0}";
}
);
layerId = "977FCFA9-45AC-4A33-B2D7-4D17E6BBF8E0";
paths = (
{
closed = 1;
nodes = (
"838 529 LINE",
"822 537 LINE",
"589 537 OFFCURVE",
"340 533 OFFCURVE",
"69 535 CURVE",
"50 462 LINE",
"71 456 LINE",
"322 458 OFFCURVE",
"567 458 OFFCURVE",
"822 457 CURVE"
);
}
);
width = 818;
}
);
leftMetricsKey = H;
rightMetricsKey = H;
unicode = 0126;
},
{
color = 8;
glyphname = I;
lastChange = "2017-09-10 18:57:27 +0000";
layers = (
{
anchors = (
{
name = bottom;
position = "{127, 0}";
},
{
name = ogonek;
position = "{249, 10}";
},
{
name = top;
position = "{195, 680}";
},
{
name = topleft;
position = "{66, 680}";
}
);
components = (
{
name = _part.stem.cap;
transform = "{1, 0, -0.0171, 1, -6, 0}";
}
);
guideLines = (
{
position = "{431, 746}";
},
{
position = "{418, 865}";
}
);
layerId = "71FD7A9F-05F5-4D76-8D4F-547475A05E4C";
width = 312;
},
{
anchors = (
{
name = bottom;
position = "{210, 0}";
},
{
name = ogonek;
position = "{302, 10}";
},
{
name = top;
position = "{207, 680}";
},
{
name = topleft;
position = "{146, 700}";
}
);
background = {
paths = (
{
closed = 1;
nodes = (
"525 175 LINE",
"522 172 OFFCURVE",
"512 96 OFFCURVE",
"453 74 CURVE SMOOTH",
"410 58 OFFCURVE",
"353 58 OFFCURVE",
"302 61 CURVE",
"284 150 OFFCURVE",
"295 278 OFFCURVE",
"312 433 CURVE SMOOTH",
"320 505 OFFCURVE",
"330 614 OFFCURVE",
"359 637 CURVE SMOOTH",
"376 650 OFFCURVE",
"393 649 OFFCURVE",
"400 650 CURVE",
"405 700 LINE",
"300 697 OFFCURVE",
"243 697 OFFCURVE",
"145 700 CURVE",
"141 650 LINE",
"152 650 OFFCURVE",
"170 646 OFFCURVE",
"181 634 CURVE SMOOTH",
"205 608 OFFCURVE",
"193 510 OFFCURVE",
"183 418 CURVE SMOOTH",
"170 299 OFFCURVE",
"139 102 OFFCURVE",
"141 88 CURVE SMOOTH",
"145 77 OFFCURVE",
"161 67 OFFCURVE",
"197 51 CURVE",
"78 53 LINE",
"72 0 LINE",
"234 4 OFFCURVE",
"294 4 OFFCURVE",
"549 0 CURVE",
"559 89 OFFCURVE",
"573 159 OFFCURVE",
"574 165 CURVE"
);
}
);
};
components = (
{
name = _part.stem.cap;
transform = "{1, 0, 0, 1, -166, 0}";
}
);
layerId = "977FCFA9-45AC-4A33-B2D7-4D17E6BBF8E0";
width = 356;
}
);
leftKerningGroup = I;
leftMetricsKey = H;
rightKerningGroup = I;
rightMetricsKey = H;
unicode = 0049;
},
{
color = 8;
glyphname = J;
lastChange = "2017-09-10 18:25:38 +0000";
layers = (
{
layerId = "71FD7A9F-05F5-4D76-8D4F-547475A05E4C";
paths = (
{
closed = 1;
nodes = (
"90 681 LINE",
"82 636 LINE",
"152 626 LINE",
"163 601 OFFCURVE",
"139 338 OFFCURVE",
"124 186 CURVE SMOOTH",
"100 -57 OFFCURVE",
"50 -106 OFFCURVE",
"7 -151 CURVE",
"31 -187 LINE",
"128 -120 OFFCURVE",
"183 0 OFFCURVE",
"208 275 CURVE SMOOTH",
"222 441 OFFCURVE",
"232 600 OFFCURVE",
"241 623 CURVE",
"310 635 LINE",
"318 680 LINE"
);
}
);
width = 297;
},
{
anchors = (
{
name = bottom;
position = "{71, 0}";
},
{
name = top;
position = "{209, 680}";
}
);
background = {
paths = (
{
closed = 1;
nodes = (
"85 681 LINE",
"75 624 LINE",
"129 615 LINE",
"140 590 OFFCURVE",
"131 489 OFFCURVE",
"126 429 CURVE",
"94 30 OFFCURVE",
"74 -37 OFFCURVE",
"39 -97 CURVE",
"-12 -78 LINE",
"-37 -134 LINE",
"33 -174 LINE",
"148 -146 OFFCURVE",
"212 -56 OFFCURVE",
"223 67 CURVE SMOOTH",
"253 384 OFFCURVE",
"269 569 OFFCURVE",
"283 591 CURVE SMOOTH",
"295 611 OFFCURVE",
"318 619 OFFCURVE",
"341 621 CURVE",
"347 680 LINE"
);
}
);
};
guideLines = (
{
position = "{1345, 737}";
}
);
layerId = "977FCFA9-45AC-4A33-B2D7-4D17E6BBF8E0";
paths = (
{
closed = 1;
nodes = (
"60 681 LINE",
"49 613 LINE",
"102 603 LINE",
"113 578 OFFCURVE",
"82 269 OFFCURVE",
"77 209 CURVE SMOOTH",
"56 -39 OFFCURVE",
"23 -115 OFFCURVE",
"-21 -163 CURVE",
"12 -206 LINE",
"133 -145 OFFCURVE",
"201 -31 OFFCURVE",
"229 275 CURVE SMOOTH",
"244 441 OFFCURVE",
"254 561 OFFCURVE",
"266 603 CURVE",
"324 613 LINE",
"335 680 LINE"
);
}
);
width = 299;
}
);
leftKerningGroup = I;
rightKerningGroup = I;
unicode = 004A;
},
{
color = 1;
glyphname = J.001;
lastChange = "2018-06-18 14:45:48 +0000";
layers = (
{
anchors = (
{
name = bottom;
position = "{180, 0}";
},
{
name = top;
position = "{180, 680}";
}
);
background = {
components = (
{
name = I;
transform = "{1, 0, 0, 1, -7, 0}";
}
);
};
guideLines = (
{
position = "{-158, -204}";
},
{
angle = 86;
position = "{59, 377}";
},
{
angle = 86;
position = "{306, 233}";
}
);
layerId = "977FCFA9-45AC-4A33-B2D7-4D17E6BBF8E0";
paths = (
{
closed = 1;
nodes = (
"19 686 LINE",
"14 660 OFFCURVE",
"10 605 OFFCURVE",
"11 579 CURVE",
"74 569 LINE",
"87 544 OFFCURVE",
"83 269 OFFCURVE",
"83 209 CURVE",
"83 -39 OFFCURVE",
"58 -84 OFFCURVE",
"18 -132 CURVE",
"24 -164 OFFCURVE",
"37 -188 OFFCURVE",
"55 -206 CURVE",
"170 -145 OFFCURVE",
"259 -31 OFFCURVE",
"259 275 CURVE SMOOTH",
"259 441 OFFCURVE",
"259 526 OFFCURVE",
"268 568 CURVE",
"330 578 LINE",
"335 604 OFFCURVE",
"339 659 OFFCURVE",
"338 685 CURVE"
);
}
);
width = 349;
},
{
anchors = (
{
name = bottom;
position = "{176, 0}";
},
{
name = top;
position = "{171, 680}";
}
);
background = {
components = (
{
name = I;
transform = "{1, 0, 0, 1, 14, 0}";
}
);
};
guideLines = (
{
position = "{-162, -204}";
},
{
angle = 85;
position = "{298, 452}";
}
);
layerId = "71FD7A9F-05F5-4D76-8D4F-547475A05E4C";
paths = (
{
closed = 1;
nodes = (
"54 681 LINE",
"51 666 OFFCURVE",
"49 651 OFFCURVE",
"50 636 CURVE",
"121 626 LINE",
"128 613 OFFCURVE",
"128 536 OFFCURVE",
"129 443 CURVE SMOOTH",
"130 338 OFFCURVE",
"130 286 OFFCURVE",
"129 186 CURVE SMOOTH",
"127 -62 OFFCURVE",
"90 -108 OFFCURVE",
"50 -153 CURVE",
"75 -187 LINE",
"166 -120 OFFCURVE",
"211 0 OFFCURVE",
"211 275 CURVE SMOOTH",
"211 364 OFFCURVE",
"210 450 OFFCURVE",
"210 515 CURVE SMOOTH",
"210 572 OFFCURVE",
"211 612 OFFCURVE",
"214 623 CURVE",
"282 635 LINE",
"285 650 OFFCURVE",
"287 665 OFFCURVE",
"286 680 CURVE"
);
}
);
width = 318;
}
);
leftKerningGroup = I;
rightKerningGroup = I;
},
{
color = 8;
glyphname = K;
lastChange = "2017-09-10 18:57:27 +0000";
layers = (
{
background = {
components = (
{
name = _part.stem.cap;
transform = "{1, 0, 0, 1, -13, 0}";
}
);
paths = (
{
closed = 1;
nodes = (
"232 327 LINE",
"307 209 OFFCURVE",
"341 147 OFFCURVE",
"447 -5 CURVE",
"485 -3 OFFCURVE",
"523 5 OFFCURVE",
"569 18 CURVE",
"579 62 LINE",
"518 62 LINE",
"461 129 OFFCURVE",
"409 203 OFFCURVE",
"291 383 CURVE"
);
},
{
closed = 1;
nodes = (
"435 563 OFFCURVE",
"384 508 OFFCURVE",
"235 352 CURVE",
"232 327 LINE",
"287 350 LINE",
"605 680 LINE",
"416 680 LINE",
"408 635 LINE",
"475 624 LINE"
);
},
{
closed = 1;
nodes = (
"526 618 LINE",
"619 635 LINE",
"627 680 LINE",
"549 680 LINE"
);
}
);
};
components = (
{
name = _part.stem.cap;
transform = "{1, 0, 0, 1, -13, 0}";
}
);
layerId = "71FD7A9F-05F5-4D76-8D4F-547475A05E4C";
paths = (
{
closed = 1;
nodes = (
"627 680 LINE",
"415 680 LINE",
"407 635 LINE",
"474 624 LINE",
"434 563 OFFCURVE",
"383 508 OFFCURVE",
"234 352 CURVE",
"231 327 LINE",
"306 209 OFFCURVE",
"340 147 OFFCURVE",
"446 -5 CURVE",
"484 -3 OFFCURVE",
"522 5 OFFCURVE",
"568 18 CURVE",
"578 62 LINE",
"517 62 LINE",
"462 127 OFFCURVE",
"411 198 OFFCURVE",
"301 366 CURVE",
"383 451 OFFCURVE",
"466 537 OFFCURVE",
"548 622 CURVE",
"619 635 LINE"
);
}
);
width = 632;
},
{
anchors = (
{
name = bottom;
position = "{323, 0}";
},
{
name = top;
position = "{401, 680}";
}
);
background = {
components = (
{
name = _part.stem.cap;
transform = "{1, 0, 0, 1, -166, 0}";
}
);
paths = (
{
closed = 1;
nodes = (
"448 545 OFFCURVE",
"362 460 OFFCURVE",
"279 372 CURVE",
"274 321 LINE",
"369 351 LINE",
"452 444 OFFCURVE",
"571 572 OFFCURVE",
"600 601 CURVE",
"680 615 LINE",
"692 680 LINE",
"435 680 LINE",
"423 615 LINE",
"485 603 LINE"
);
},
{
closed = 1;
nodes = (
"274 321 LINE",
"319 220 OFFCURVE",
"400 69 OFFCURVE",
"441 0 CURVE",
"500 -9 OFFCURVE",
"582 -1 OFFCURVE",
"639 18 CURVE",
"651 78 LINE",
"591 82 LINE",
"525 150 OFFCURVE",
"435 281 OFFCURVE",
"370 381 CURVE"
);
}
);
};
components = (
{
name = _part.stem.cap;
transform = "{1, 0, 0, 1, -166, 0}";
}
);
layerId = "977FCFA9-45AC-4A33-B2D7-4D17E6BBF8E0";
paths = (
{
closed = 1;
nodes = (
"692 680 LINE",
"435 680 LINE",
"423 615 LINE",
"485 603 LINE",
"448 545 OFFCURVE",
"362 460 OFFCURVE",
"279 372 CURVE",
"274 321 LINE",
"319 220 OFFCURVE",
"400 69 OFFCURVE",
"441 0 CURVE",
"500 -9 OFFCURVE",
"582 -1 OFFCURVE",
"639 18 CURVE",
"651 78 LINE",
"591 82 LINE",
"529 146 OFFCURVE",
"445 267 OFFCURVE",
"381 364 CURVE",
"463 456 OFFCURVE",
"572 573 OFFCURVE",
"600 601 CURVE",
"680 615 LINE"
);
}
);
width = 701;
}
);
leftKerningGroup = I;
leftMetricsKey = H;
rightKerningGroup = X;
unicode = 004B;
},
{
color = 1;
glyphname = K.001;
lastChange = "2018-06-18 14:45:48 +0000";
layers = (
{
anchors = (
{
name = bottom;
position = "{383, 0}";
},
{
name = top;
position = "{383, 680}";
}
);
background = {
components = (
{
name = R;
transform = "{1, 0, 0, 1, 41, 0}";
}
);
};
components = (
{
name = _part.stem.cap;
transform = "{1, 0, 0, 1, -190, 0}";
}
);
guideLines = (
{
position = "{-227, 248}";
},
{
angle = 86;
position = "{716, 218}";
}
);
layerId = "977FCFA9-45AC-4A33-B2D7-4D17E6BBF8E0";
paths = (
{
closed = 1;
nodes = (
"432 533 OFFCURVE",
"390 490 OFFCURVE",
"287 372 CURVE",
"282 321 LINE",
"399 337 LINE",
"449 400 OFFCURVE",
"535 501 OFFCURVE",
"595 568 CURVE",
"672 581 LINE",
"677 609 OFFCURVE",
"681 658 OFFCURVE",
"680 686 CURVE",
"404 686 LINE",
"399 658 OFFCURVE",
"395 609 OFFCURVE",
"396 581 CURVE",
"450 569 LINE"
);
},
{
closed = 1;
nodes = (
"282 321 LINE",
"338 220 OFFCURVE",
"430 69 OFFCURVE",
"479 0 CURVE",
"539 -9 OFFCURVE",
"647 -1 OFFCURVE",
"702 18 CURVE",
"708 43 OFFCURVE",
"710 88 OFFCURVE",
"709 113 CURVE",
"631 117 LINE",
"591 154 OFFCURVE",
"575 182 OFFCURVE",
"426 384 CURVE"
);
}
);
width = 723;
},
{
anchors = (
{
name = bottom;
position = "{353, 0}";
},
{
name = top;
position = "{353, 680}";
}
);
background = {
components = (
{
name = R;
transform = "{1, 0, 0, 1, 34, 0}";
}
);
};
components = (
{
name = _part.stem.cap;
transform = "{1, 0, 0, 1, -118, 0}";
}
);
guideLines = (
{
position = "{188, 680}";
},
{
angle = 90;
position = "{614, 358}";
},
{
angle = 85;
position = "{692, 231}";
},
{
position = "{1201, 18}";
}
);
layerId = "71FD7A9F-05F5-4D76-8D4F-547475A05E4C";
paths = (
{
closed = 1;
nodes = (
"248 337 LINE",
"463 69 LINE SMOOTH",
"483 44 OFFCURVE",
"509 16 OFFCURVE",
"535 -5 CURVE",
"573 0 OFFCURVE",
"606 11 OFFCURVE",
"644 26 CURVE",
"647 41 OFFCURVE",
"647 51 OFFCURVE",
"647 65 CURVE",
"576 65 LINE",
"458 199 OFFCURVE",
"400 256 OFFCURVE",
"316 362 CURVE"
);
},
{
closed = 1;
nodes = (
"438 563 OFFCURVE",
"344 463 OFFCURVE",
"248 362 CURVE",
"248 337 LINE",
"316 356 LINE",
"608 680 LINE",
"403 680 LINE",
"399 665 OFFCURVE",
"397 650 OFFCURVE",
"399 635 CURVE",
"478 624 LINE"
);
},
{
closed = 1;
nodes = (
"529 618 LINE",
"620 635 LINE",
"624 650 OFFCURVE",
"626 665 OFFCURVE",
"624 680 CURVE",
"546 680 LINE"
);
}
);
width = 652;
}
);
leftKerningGroup = I;
rightKerningGroup = X;
},
{
color = 8;
glyphname = L;
lastChange = "2017-09-10 18:25:38 +0000";
layers = (
{
anchors = (
{
name = bottom;
position = "{244, 0}";
},
{
name = center;
position = "{172, 340}";
},
{
name = top;
position = "{201, 680}";
},
{
name = topright;
position = "{563, 680}";
}
);
components = (
{
name = _part.stem.cap;
transform = "{1, 0, -0.0171, 1, -6, 0}";
}
);
guideLines = (
{
position = "{431, 746}";
},
{
position = "{418, 865}";
}
);
layerId = "71FD7A9F-05F5-4D76-8D4F-547475A05E4C";
paths = (
{
closed = 1;
nodes = (
"122 0 LINE",
"487 0 LINE",
"498 64 OFFCURVE",
"516 153 OFFCURVE",
"517 159 CURVE",
"480 166 LINE",
"434 72 LINE",
"391 57 OFFCURVE",
"247 49 OFFCURVE",
"210 54 CURVE",
"155 54 LINE"
);
}
);
width = 536;
},
{
anchors = (
{
name = bottom;
position = "{235, 0}";
},
{
name = center;
position = "{187, 354}";
},
{
name = top;
position = "{210, 680}";
},
{
name = topright;
position = "{562, 700}";
}
);
background = {
paths = (
{
closed = 1;
nodes = (
"60 700 LINE",
"52 653 LINE",
"102 642 LINE",
"113 602 OFFCURVE",
"106 484 OFFCURVE",
"103 427 CURVE SMOOTH",
"94 249 OFFCURVE",
"69 101 OFFCURVE",
"72 88 CURVE SMOOTH",
"76 74 OFFCURVE",
"114 56 OFFCURVE",
"133 50 CURVE",
"13 51 LINE",
"10 0 LINE",
"508 -1 LINE",
"535 163 LINE",
"490 173 LINE",
"486 166 OFFCURVE",
"481 115 OFFCURVE",
"418 94 CURVE SMOOTH",
"379 81 OFFCURVE",
"312 80 OFFCURVE",
"238 81 CURVE",
"208 114 OFFCURVE",
"216 228 OFFCURVE",
"224 331 CURVE",
"346 325 LINE",
"357 279 LINE",
"397 282 LINE",
"402 325 OFFCURVE",
"409 410 OFFCURVE",
"394 410 CURVE SMOOTH",
"386 410 OFFCURVE",
"223 404 OFFCURVE",
"229 404 CURVE",
"230 455 OFFCURVE",
"246 569 OFFCURVE",
"257 613 CURVE",
"372 613 LINE",
"466 610 OFFCURVE",
"495 580 OFFCURVE",
"503 527 CURVE",
"550 537 LINE",
"532 699 LINE"
);
}
);
};
components = (
{
name = _part.stem.cap;
transform = "{1, 0, 0, 1, -166, 0}";
}
);
guideLines = (
{
angle = -12;
position = "{455, 184}";
}
);
layerId = "977FCFA9-45AC-4A33-B2D7-4D17E6BBF8E0";
paths = (
{
closed = 1;
nodes = (
"130 0 LINE",
"517 0 LINE",
"535 99 OFFCURVE",
"545 138 OFFCURVE",
"554 180 CURVE",
"487 188 LINE",
"446 106 LINE",
"404 91 OFFCURVE",
"285 85 OFFCURVE",
"249 91 CURVE",
"151 54 LINE"
);
}
);
width = 570;
}
);
leftKerningGroup = I;
leftMetricsKey = H;
rightKerningGroup = L;
unicode = 004C;
},
{
color = 1;
glyphname = L.001;
lastChange = "2018-06-18 14:45:48 +0000";
layers = (
{
anchors = (
{
name = bottom;
position = "{357, 0}";
},
{
name = center;
position = "{186, 350}";
},
{
name = top;
position = "{250, 680}";
},
{
name = topright;
position = "{618, 700}";
}
);
background = {
components = (
{
name = E;
transform = "{1, 0, 0, 1, 75, 0}";
}
);
};
components = (
{
name = _part.stem.cap;
transform = "{1, 0, 0, 1, -190, 0}";
}
);
guideLines = (
{
angle = 86;
position = "{594, 399}";
}
);
layerId = "977FCFA9-45AC-4A33-B2D7-4D17E6BBF8E0";
paths = (
{
closed = 1;
nodes = (
"167 0 LINE",
"564 0 LINE",
"574 122 OFFCURVE",
"580 161 OFFCURVE",
"585 203 CURVE",
"558 209 OFFCURVE",
"506 211 OFFCURVE",
"479 211 CURVE",
"445 129 LINE",
"404 114 OFFCURVE",
"315 108 OFFCURVE",
"278 114 CURVE",
"183 54 LINE"
);
}
);
width = 600;
},
{
anchors = (
{
name = bottom;
position = "{297, 0}";
},
{
name = center;
position = "{183, 351}";
},
{
name = top;
position = "{186, 680}";
},
{
name = topright;
position = "{558, 700}";
}
);
background = {
paths = (
{
closed = 1;
nodes = (
"539 151 LINE",
"489 156 LINE",
"473 125 OFFCURVE",
"459 93 OFFCURVE",
"445 59 CURVE",
"217 56 LINE",
"219 74 OFFCURVE",
"220 92 OFFCURVE",
"220 110 CURVE SMOOTH",
"220 629 LINE",
"290 640 LINE",
"285 670 LINE",
"65 670 LINE",
"60 640 LINE",
"83 630 OFFCURVE",
"108 621 OFFCURVE",
"135 615 CURVE",
"135 55 LINE",
"108 49 OFFCURVE",
"83 40 OFFCURVE",
"60 30 CURVE",
"60 0 LINE",
"515 0 LINE",
"525 10 LINE"
);
}
);
};
components = (
{
name = _part.stem.cap;
transform = "{1, 0, 0, 1, -118, 0}";
}
);
layerId = "71FD7A9F-05F5-4D76-8D4F-547475A05E4C";
paths = (
{
closed = 1;
nodes = (
"162 0 LINE",
"527 0 LINE",
"532 64 OFFCURVE",
"542 153 OFFCURVE",
"543 159 CURVE",
"529 164 OFFCURVE",
"516 165 OFFCURVE",
"502 164 CURVE",
"467 72 LINE",
"434 60 OFFCURVE",
"336 53 OFFCURVE",
"279 53 CURVE SMOOTH",
"264 53 OFFCURVE",
"252 53 OFFCURVE",
"245 54 CURVE",
"190 54 LINE"
);
}
);
width = 573;
}
);
leftKerningGroup = I;
rightKerningGroup = L;
},
{
color = 8;
glyphname = M;
lastChange = "2017-09-10 18:25:38 +0000";
layers = (
{
layerId = "71FD7A9F-05F5-4D76-8D4F-547475A05E4C";
paths = (
{
closed = 1;
nodes = (
"268 468 LINE",
"307 317 OFFCURVE",
"385 -1 OFFCURVE",
"388 -7 CURVE",
"440 92 LINE",
"434 111 OFFCURVE",
"339 500 OFFCURVE",
"301 680 CURVE",
"296 675 LINE",
"299 680 LINE",
"237 613 LINE"
);
},
{
closed = 1;
nodes = (
"510 154 OFFCURVE",
"638 456 OFFCURVE",
"672 538 CURVE",
"671 455 OFFCURVE",
"679 144 OFFCURVE",
"681 104 CURVE SMOOTH",
"681 88 OFFCURVE",
"695 66 OFFCURVE",
"723 56 CURVE",
"618 46 LINE",
"610 0 LINE",
"823 0 LINE",
"831 46 LINE",
"771 56 LINE",
"751 141 OFFCURVE",
"755 232 OFFCURVE",
"744 622 CURVE",
"819 635 LINE",
"826 680 LINE",
"668 680 LINE",
"573 434 OFFCURVE",
"504 279 OFFCURVE",
"444 146 CURVE",
"421 87 OFFCURVE",
"414 52 OFFCURVE",
"388 -7 CURVE",
"442 2 LINE"
);
},
{
closed = 1;
nodes = (
"156 89 OFFCURVE",
"220 384 OFFCURVE",
"249 543 CURVE",
"265 598 OFFCURVE",
"276 660 OFFCURVE",
"301 680 CURVE",
"143 680 LINE",
"136 635 LINE",
"204 624 LINE",
"158 369 OFFCURVE",
"101 107 OFFCURVE",
"90 64 CURVE",
"13 45 LINE",
"5 0 LINE",
"222 0 LINE",
"230 46 LINE",
"167 55 LINE"
);
}
);
width = 869;
},
{
layerId = "977FCFA9-45AC-4A33-B2D7-4D17E6BBF8E0";
paths = (
{
closed = 1;
nodes = (
"234 467 LINE",
"273 316 OFFCURVE",
"366 -1 OFFCURVE",
"369 -7 CURVE",
"467 161 LINE",
"461 180 OFFCURVE",
"368 500 OFFCURVE",
"327 680 CURVE",
"304 680 LINE",
"315 680 LINE",
"197 588 LINE"
);
},
{
closed = 1;
nodes = (
"509 146 OFFCURVE",
"598 347 OFFCURVE",
"637 441 CURVE",
"633 179 OFFCURVE",
"636 156 OFFCURVE",
"638 141 CURVE SMOOTH",
"642 102 OFFCURVE",
"655 85 OFFCURVE",
"683 76 CURVE",
"576 66 LINE",
"566 0 LINE",
"849 0 LINE",
"858 66 LINE",
"798 76 LINE",
"776 161 OFFCURVE",
"778 472 OFFCURVE",
"776 603 CURVE",
"855 615 LINE",
"866 680 LINE",
"645 680 LINE",
"555 434 OFFCURVE",
"465 280 OFFCURVE",
"410 146 CURVE",
"387 87 OFFCURVE",
"395 52 OFFCURVE",
"369 -7 CURVE",
"452 3 LINE"
);
},
{
closed = 1;
nodes = (
"175 109 OFFCURVE",
"227 362 OFFCURVE",
"255 521 CURVE",
"270 565 OFFCURVE",
"292 660 OFFCURVE",
"317 680 CURVE",
"109 680 LINE",
"98 615 LINE",
"176 604 LINE",
"127 349 OFFCURVE",
"79 120 OFFCURVE",
"67 77 CURVE",
"-6 65 LINE",
"-15 0 LINE",
"254 0 LINE",
"264 66 LINE",
"187 75 LINE"
);
}
);
width = 886;
}
);
leftKerningGroup = A;
rightKerningGroup = A;
unicode = 004D;
},
{
color = 1;
glyphname = M.001;
lastChange = "2018-06-18 14:45:48 +0000";
layers = (
{
anchors = (
{
name = bottom;
position = "{456, 0}";
},
{
name = top;
position = "{456, 680}";
}
);
background = {
paths = (
{
closed = 1;
nodes = (
"476 43 OFFCURVE",
"491 90 OFFCURVE",
"506 137 CURVE SMOOTH",
"536 230 OFFCURVE",
"564 314 OFFCURVE",
"590 382 CURVE SMOOTH",
"603 416 OFFCURVE",
"612 445 OFFCURVE",
"620 470 CURVE",
"630 470 LINE",
"634 412 OFFCURVE",
"638 358 OFFCURVE",
"640 308 CURVE SMOOTH",
"641 287 OFFCURVE",
"644 266 OFFCURVE",
"645 246 CURVE SMOOTH",
"646 225 OFFCURVE",
"647 206 OFFCURVE",
"648 188 CURVE SMOOTH",
"650 153 OFFCURVE",
"651 125 OFFCURVE",
"651 115 CURVE SMOOTH",
"651 83 OFFCURVE",
"634 68 OFFCURVE",
"593 64 CURVE",
"585 -8 LINE",
"586 -7 OFFCURVE",
"593 -7 OFFCURVE",
"607 -6 CURVE SMOOTH",
"620 -5 OFFCURVE",
"635 -4 OFFCURVE",
"652 -3 CURVE SMOOTH",
"686 -1 OFFCURVE",
"722 0 OFFCURVE",
"739 0 CURVE SMOOTH",
"760 0 OFFCURVE",
"787 0 OFFCURVE",
"808 -2 CURVE SMOOTH",
"821 -3 OFFCURVE",
"833 -3 OFFCURVE",
"846 -3 CURVE",
"856 66 LINE",
"851 72 LINE",
"844 71 OFFCURVE",
"839 70 OFFCURVE",
"831 70 CURVE SMOOTH",
"828 70 OFFCURVE",
"824 70 OFFCURVE",
"821 70 CURVE SMOOTH",
"805 70 OFFCURVE",
"793 76 OFFCURVE",
"786 90 CURVE SMOOTH",
"779 103 OFFCURVE",
"773 128 OFFCURVE",
"770 166 CURVE SMOOTH",
"765 228 OFFCURVE",
"759 315 OFFCURVE",
"754 392 CURVE SMOOTH",
"749 468 OFFCURVE",
"745 534 OFFCURVE",
"745 558 CURVE SMOOTH",
"745 597 OFFCURVE",
"762 610 OFFCURVE",
"822 614 CURVE",
"828 680 LINE",
"824 684 LINE",
"799 681 OFFCURVE",
"775 680 OFFCURVE",
"751 679 CURVE SMOOTH",
"726 678 OFFCURVE",
"708 676 OFFCURVE",
"684 676 CURVE SMOOTH",
"659 676 OFFCURVE",
"636 678 OFFCURVE",
"615 679 CURVE",
"605 679 OFFCURVE",
"595 679 OFFCURVE",
"588 679 CURVE",
"570 621 OFFCURVE",
"552 566 OFFCURVE",
"536 514 CURVE SMOOTH",
"520 462 OFFCURVE",
"504 417 OFFCURVE",
"492 377 CURVE SMOOTH",
"478 331 OFFCURVE",
"463 287 OFFCURVE",
"450 248 CURVE",
"441 248 LINE",
"427 287 OFFCURVE",
"414 331 OFFCURVE",
"400 377 CURVE SMOOTH",
"388 417 OFFCURVE",
"375 463 OFFCURVE",
"359 515 CURVE SMOOTH",
"343 567 OFFCURVE",
"326 622 OFFCURVE",
"310 682 CURVE",
"297 681 OFFCURVE",
"283 681 OFFCURVE",
"269 680 CURVE SMOOTH",
"245 678 OFFCURVE",
"216 678 OFFCURVE",
"195 678 CURVE SMOOTH",
"186 678 OFFCURVE",
"173 678 OFFCURVE",
"158 679 CURVE",
"128 679 OFFCURVE",
"98 680 OFFCURVE",
"61 683 CURVE",
"52 620 LINE",
"57 613 LINE",
"90 610 OFFCURVE",
"109 607 OFFCURVE",
"121 599 CURVE",
"133 591 OFFCURVE",
"136 578 OFFCURVE",
"136 560 CURVE SMOOTH",
"136 555 OFFCURVE",
"135 543 OFFCURVE",
"134 522 CURVE",
"130 480 OFFCURVE",
"125 420 OFFCURVE",
"117 354 CURVE SMOOTH",
"109 286 OFFCURVE",
"104 226 OFFCURVE",
"99 182 CURVE",
"96 160 OFFCURVE",
"95 145 OFFCURVE",
"94 139 CURVE",
"90 85 OFFCURVE",
"72 68 OFFCURVE",
"31 63 CURVE",
"23 -8 LINE",
"35 -7 OFFCURVE",
"48 -5 OFFCURVE",
"60 -4 CURVE",
"81 -1 OFFCURVE",
"109 0 OFFCURVE",
"130 0 CURVE SMOOTH",
"147 0 OFFCURVE",
"177 0 OFFCURVE",
"206 -2 CURVE SMOOTH",
"222 -3 OFFCURVE",
"239 -3 OFFCURVE",
"255 -4 CURVE",
"267 65 LINE",
"261 71 LINE",
"249 70 OFFCURVE",
"243 69 OFFCURVE",
"235 69 CURVE SMOOTH",
"231 69 OFFCURVE",
"228 69 OFFCURVE",
"226 69 CURVE SMOOTH",
"204 69 OFFCURVE",
"192 81 OFFCURVE",
"192 104 CURVE SMOOTH",
"192 107 OFFCURVE",
"192 114 OFFCURVE",
"193 127 CURVE SMOOTH",
"194 139 OFFCURVE",
"195 153 OFFCURVE",
"196 171 CURVE SMOOTH",
"197 189 OFFCURVE",
"198 208 OFFCURVE",
"200 230 CURVE SMOOTH",
"202 251 OFFCURVE",
"202 274 OFFCURVE",
"203 296 CURVE SMOOTH",
"205 347 OFFCURVE",
"209 405 OFFCURVE",
"213 470 CURVE",
"222 470 LINE",
"240 420 OFFCURVE",
"265 351 OFFCURVE",
"292 267 CURVE SMOOTH",
"319 183 OFFCURVE",
"350 86 OFFCURVE",
"383 -16 CURVE",
"460 -7 LINE"
);
}
);
};
guideLines = (
{
position = "{673, 440}";
},
{
angle = 86;
position = "{-28, 200}";
},
{
angle = 86;
position = "{21, 152}";
}
);
layerId = "977FCFA9-45AC-4A33-B2D7-4D17E6BBF8E0";
paths = (
{
closed = 1;
nodes = (
"291 0 LINE",
"296 27 OFFCURVE",
"299 74 OFFCURVE",
"298 101 CURVE",
"222 111 LINE",
"209 140 OFFCURVE",
"233 304 OFFCURVE",
"248 453 CURVE",
"293 295 OFFCURVE",
"362 2 OFFCURVE",
"365 -4 CURVE",
"410 -4 OFFCURVE",
"465 0 OFFCURVE",
"510 6 CURVE",
"547 149 OFFCURVE",
"594 359 OFFCURVE",
"616 453 CURVE",
"635 213 OFFCURVE",
"638 191 OFFCURVE",
"640 176 CURVE SMOOTH",
"645 137 OFFCURVE",
"662 120 OFFCURVE",
"691 111 CURVE",
"587 101 LINE",
"582 74 OFFCURVE",
"579 27 OFFCURVE",
"580 0 CURVE",
"892 0 LINE",
"896 27 OFFCURVE",
"901 74 OFFCURVE",
"899 101 CURVE",
"836 111 LINE",
"811 182 OFFCURVE",
"792 371 OFFCURVE",
"777 511 CURVE SMOOTH",
"776 524 OFFCURVE",
"773 554 OFFCURVE",
"772 570 CURVE",
"843 581 LINE",
"848 608 OFFCURVE",
"851 659 OFFCURVE",
"850 686 CURVE",
"561 686 LINE",
"514 501 OFFCURVE",
"490 405 OFFCURVE",
"456 290 CURVE",
"429 405 OFFCURVE",
"393 556 OFFCURVE",
"364 686 CURVE",
"80 686 LINE",
"74 659 OFFCURVE",
"72 605 OFFCURVE",
"72 578 CURVE",
"144 566 LINE",
"144 550 OFFCURVE",
"143 539 OFFCURVE",
"140 516 CURVE SMOOTH",
"111 296 OFFCURVE",
"92 152 OFFCURVE",
"85 111 CURVE",
"17 101 LINE",
"13 73 OFFCURVE",
"8 30 OFFCURVE",
"10 0 CURVE"
);
}
);
width = 910;
},
{
anchors = (
{
name = bottom;
position = "{499, 0}";
},
{
name = top;
position = "{499, 680}";
}
);
guideLines = (
{
angle = 86;
position = "{974, 115}";
}
);
layerId = "71FD7A9F-05F5-4D76-8D4F-547475A05E4C";
paths = (
{
closed = 1;
nodes = (
"278 468 LINE",
"334 313 OFFCURVE",
"395 151 OFFCURVE",
"448 -10 CURVE",
"496 98 LINE",
"489 117 OFFCURVE",
"353 500 OFFCURVE",
"294 680 CURVE",
"289 675 LINE",
"292 680 LINE",
"242 615 LINE"
);
},
{
closed = 1;
nodes = (
"554 159 OFFCURVE",
"659 477 OFFCURVE",
"685 559 CURVE",
"684 476 OFFCURVE",
"716 144 OFFCURVE",
"719 104 CURVE SMOOTH",
"721 80 OFFCURVE",
"737 65 OFFCURVE",
"766 56 CURVE",
"652 46 LINE",
"649 31 OFFCURVE",
"647 15 OFFCURVE",
"648 0 CURVE",
"884 0 LINE",
"887 15 OFFCURVE",
"889 31 OFFCURVE",
"888 46 CURVE",
"819 56 LINE",
"791 141 OFFCURVE",
"789 240 OFFCURVE",
"760 622 CURVE",
"834 635 LINE",
"837 650 OFFCURVE",
"838 665 OFFCURVE",
"837 680 CURVE",
"660 680 LINE",
"589 441 OFFCURVE",
"525 264 OFFCURVE",
"479 131 CURVE",
"479 72 OFFCURVE",
"469 49 OFFCURVE",
"448 -10 CURVE",
"469 -10 OFFCURVE",
"485 -4 OFFCURVE",
"500 7 CURVE"
);
},
{
closed = 1;
nodes = (
"216 60 OFFCURVE",
"214 71 OFFCURVE",
"215 87 CURVE SMOOTH",
"218 175 OFFCURVE",
"239 408 OFFCURVE",
"252 543 CURVE",
"263 598 OFFCURVE",
"271 660 OFFCURVE",
"294 680 CURVE",
"125 680 LINE",
"121 665 OFFCURVE",
"118 647 OFFCURVE",
"120 632 CURVE",
"195 621 LINE",
"176 366 OFFCURVE",
"151 107 OFFCURVE",
"144 64 CURVE",
"73 45 LINE",
"70 30 OFFCURVE",
"68 15 OFFCURVE",
"69 0 CURVE",
"304 0 LINE",
"307 15 OFFCURVE",
"309 31 OFFCURVE",
"308 46 CURVE",
"218 55 LINE"
);
}
);
width = 945;
},
{
anchors = (
{
name = bottom;
position = "{442, 0}";
},
{
name = top;
position = "{442, 680}";
}
);
associatedMasterId = "977FCFA9-45AC-4A33-B2D7-4D17E6BBF8E0";
background = {
paths = (
{
closed = 1;
nodes = (
"462 43 OFFCURVE",
"477 90 OFFCURVE",
"492 137 CURVE SMOOTH",
"522 230 OFFCURVE",
"550 314 OFFCURVE",
"576 382 CURVE SMOOTH",
"589 416 OFFCURVE",
"598 445 OFFCURVE",
"606 470 CURVE",
"616 470 LINE",
"620 412 OFFCURVE",
"624 358 OFFCURVE",
"626 308 CURVE SMOOTH",
"627 287 OFFCURVE",
"630 266 OFFCURVE",
"631 246 CURVE SMOOTH",
"632 225 OFFCURVE",
"633 206 OFFCURVE",
"634 188 CURVE SMOOTH",
"636 153 OFFCURVE",
"637 125 OFFCURVE",
"637 115 CURVE SMOOTH",
"637 83 OFFCURVE",
"620 68 OFFCURVE",
"579 64 CURVE",
"571 -8 LINE",
"572 -7 OFFCURVE",
"579 -7 OFFCURVE",
"593 -6 CURVE SMOOTH",
"606 -5 OFFCURVE",
"621 -4 OFFCURVE",
"638 -3 CURVE SMOOTH",
"672 -1 OFFCURVE",
"708 0 OFFCURVE",
"725 0 CURVE SMOOTH",
"746 0 OFFCURVE",
"773 0 OFFCURVE",
"794 -2 CURVE SMOOTH",
"807 -3 OFFCURVE",
"819 -3 OFFCURVE",
"832 -3 CURVE",
"842 66 LINE",
"837 72 LINE",
"830 71 OFFCURVE",
"825 70 OFFCURVE",
"817 70 CURVE SMOOTH",
"814 70 OFFCURVE",
"810 70 OFFCURVE",
"807 70 CURVE SMOOTH",
"791 70 OFFCURVE",
"779 76 OFFCURVE",
"772 90 CURVE SMOOTH",
"765 103 OFFCURVE",
"759 128 OFFCURVE",
"756 166 CURVE SMOOTH",
"751 228 OFFCURVE",
"745 315 OFFCURVE",
"740 392 CURVE SMOOTH",
"735 468 OFFCURVE",
"731 534 OFFCURVE",
"731 558 CURVE SMOOTH",
"731 597 OFFCURVE",
"748 610 OFFCURVE",
"808 614 CURVE",
"814 680 LINE",
"810 684 LINE",
"785 681 OFFCURVE",
"761 680 OFFCURVE",
"737 679 CURVE SMOOTH",
"712 678 OFFCURVE",
"694 676 OFFCURVE",
"670 676 CURVE SMOOTH",
"645 676 OFFCURVE",
"622 678 OFFCURVE",
"601 679 CURVE",
"591 679 OFFCURVE",
"581 679 OFFCURVE",
"574 679 CURVE",
"556 621 OFFCURVE",
"538 566 OFFCURVE",
"522 514 CURVE SMOOTH",
"506 462 OFFCURVE",
"490 417 OFFCURVE",
"478 377 CURVE SMOOTH",
"464 331 OFFCURVE",
"449 287 OFFCURVE",
"436 248 CURVE",
"427 248 LINE",
"413 287 OFFCURVE",
"400 331 OFFCURVE",
"386 377 CURVE SMOOTH",
"374 417 OFFCURVE",
"361 463 OFFCURVE",
"345 515 CURVE SMOOTH",
"329 567 OFFCURVE",
"312 622 OFFCURVE",
"296 682 CURVE",
"283 681 OFFCURVE",
"269 681 OFFCURVE",
"255 680 CURVE SMOOTH",
"231 678 OFFCURVE",
"202 678 OFFCURVE",
"181 678 CURVE SMOOTH",
"172 678 OFFCURVE",
"159 678 OFFCURVE",
"144 679 CURVE",
"114 679 OFFCURVE",
"84 680 OFFCURVE",
"47 683 CURVE",
"38 620 LINE",
"43 613 LINE",
"76 610 OFFCURVE",
"95 607 OFFCURVE",
"107 599 CURVE",
"119 591 OFFCURVE",
"122 578 OFFCURVE",
"122 560 CURVE SMOOTH",
"122 555 OFFCURVE",
"121 543 OFFCURVE",
"120 522 CURVE",
"116 480 OFFCURVE",
"111 420 OFFCURVE",
"103 354 CURVE SMOOTH",
"95 286 OFFCURVE",
"90 226 OFFCURVE",
"85 182 CURVE",
"82 160 OFFCURVE",
"81 145 OFFCURVE",
"80 139 CURVE",
"76 85 OFFCURVE",
"58 68 OFFCURVE",
"17 63 CURVE",
"9 -8 LINE",
"21 -7 OFFCURVE",
"34 -5 OFFCURVE",
"46 -4 CURVE",
"67 -1 OFFCURVE",
"95 0 OFFCURVE",
"116 0 CURVE SMOOTH",
"133 0 OFFCURVE",
"163 0 OFFCURVE",
"192 -2 CURVE SMOOTH",
"208 -3 OFFCURVE",
"225 -3 OFFCURVE",
"241 -4 CURVE",
"253 65 LINE",
"247 71 LINE",
"235 70 OFFCURVE",
"229 69 OFFCURVE",
"221 69 CURVE SMOOTH",
"217 69 OFFCURVE",
"214 69 OFFCURVE",
"212 69 CURVE SMOOTH",
"190 69 OFFCURVE",
"178 81 OFFCURVE",
"178 104 CURVE SMOOTH",
"178 107 OFFCURVE",
"178 114 OFFCURVE",
"179 127 CURVE SMOOTH",
"180 139 OFFCURVE",
"181 153 OFFCURVE",
"182 171 CURVE SMOOTH",
"183 189 OFFCURVE",
"184 208 OFFCURVE",
"186 230 CURVE SMOOTH",
"188 251 OFFCURVE",
"188 274 OFFCURVE",
"189 296 CURVE SMOOTH",
"191 347 OFFCURVE",
"195 405 OFFCURVE",
"199 470 CURVE",
"208 470 LINE",
"226 420 OFFCURVE",
"251 351 OFFCURVE",
"278 267 CURVE SMOOTH",
"305 183 OFFCURVE",
"336 86 OFFCURVE",
"369 -16 CURVE",
"446 -7 LINE"
);
}
);
};
guideLines = (
{
position = "{659, 440}";
},
{
angle = 86;
position = "{-42, 200}";
}
);
layerId = "ED3502F3-CD64-4B49-AB45-43E3F32AB8EB";
name = "Aug 19 17, 19:22";
paths = (
{
closed = 1;
nodes = (
"276 0 LINE",
"281 27 OFFCURVE",
"285 74 OFFCURVE",
"284 101 CURVE",
"208 111 LINE",
"195 140 OFFCURVE",
"218 304 OFFCURVE",
"233 453 CURVE",
"278 295 OFFCURVE",
"348 2 OFFCURVE",
"351 -4 CURVE",
"396 -4 OFFCURVE",
"440 0 OFFCURVE",
"485 6 CURVE",
"530 149 OFFCURVE",
"579 359 OFFCURVE",
"601 453 CURVE",
"602 435 OFFCURVE",
"629 195 OFFCURVE",
"631 111 CURVE",
"563 101 LINE",
"558 74 OFFCURVE",
"555 27 OFFCURVE",
"556 0 CURVE",
"879 0 LINE",
"883 27 OFFCURVE",
"887 74 OFFCURVE",
"885 101 CURVE",
"822 111 LINE",
"797 182 OFFCURVE",
"778 371 OFFCURVE",
"763 511 CURVE SMOOTH",
"762 524 OFFCURVE",
"759 554 OFFCURVE",
"758 570 CURVE",
"829 581 LINE",
"834 608 OFFCURVE",
"839 659 OFFCURVE",
"838 686 CURVE",
"547 686 LINE",
"500 501 OFFCURVE",
"476 405 OFFCURVE",
"442 290 CURVE",
"415 405 OFFCURVE",
"379 556 OFFCURVE",
"350 686 CURVE",
"66 686 LINE",
"60 659 OFFCURVE",
"55 605 OFFCURVE",
"55 578 CURVE",
"130 566 LINE",
"130 550 OFFCURVE",
"129 539 OFFCURVE",
"126 516 CURVE SMOOTH",
"97 296 OFFCURVE",
"78 152 OFFCURVE",
"71 111 CURVE",
"3 101 LINE",
"-1 73 OFFCURVE",
"-6 30 OFFCURVE",
"-4 0 CURVE"
);
}
);
width = 884;
}
);
leftKerningGroup = A;
rightKerningGroup = A;
},
{
color = 8;
glyphname = N;
lastChange = "2017-09-10 18:25:38 +0000";
layers = (
{
anchors = (
{
name = bottom;
position = "{331, 0}";
},
{
name = top;
position = "{402, 680}";
}
);
layerId = "71FD7A9F-05F5-4D76-8D4F-547475A05E4C";
paths = (
{
closed = 1;
nodes = (
"169 550 LINE",
"183 537 OFFCURVE",
"204 510 OFFCURVE",
"224 483 CURVE SMOOTH",
"245 454 OFFCURVE",
"270 415 OFFCURVE",
"291 383 CURVE SMOOTH",
"473 107 OFFCURVE",
"528 -5 OFFCURVE",
"531 -9 CURVE",
"558 76 LINE",
"541 100 OFFCURVE",
"582 109 OFFCURVE",
"551 147 CURVE SMOOTH",
"522 182 OFFCURVE",
"475 244 OFFCURVE",
"439 298 CURVE SMOOTH",
"288 522 OFFCURVE",
"273 562 OFFCURVE",
"221 680 CURVE",
"217 675 LINE",
"219 680 LINE",
"149 579 LINE"
);
},
{
closed = 1;
nodes = (
"165 82 OFFCURVE",
"165 160 OFFCURVE",
"172 236 CURVE SMOOTH",
"183 363 OFFCURVE",
"193 521 OFFCURVE",
"221 680 CURVE",
"80 680 LINE",
"72 635 LINE",
"127 626 LINE",
"146 600 OFFCURVE",
"136 479 OFFCURVE",
"122 317 CURVE SMOOTH",
"107 145 OFFCURVE",
"99 103 OFFCURVE",
"91 60 CURVE",
"16 45 LINE",
"8 0 LINE",
"223 0 LINE",
"231 46 LINE",
"174 57 LINE"
);
},
{
closed = 1;
nodes = (
"575 600 OFFCURVE",
"568 534 OFFCURVE",
"559 424 CURVE SMOOTH",
"528 73 OFFCURVE",
"534 99 OFFCURVE",
"531 -9 CURVE",
"580 0 LINE",
"601 286 OFFCURVE",
"632 560 OFFCURVE",
"645 622 CURVE",
"719 635 LINE",
"727 680 LINE",
"509 680 LINE",
"501 635 LINE",
"563 626 LINE"
);
}
);
width = 711;
},
{
anchors = (
{
name = bottom;
position = "{285, 0}";
},
{
name = top;
position = "{389, 680}";
}
);
layerId = "977FCFA9-45AC-4A33-B2D7-4D17E6BBF8E0";
paths = (
{
closed = 1;
nodes = (
"143 544 LINE",
"157 530 OFFCURVE",
"166 468 OFFCURVE",
"190 445 CURVE SMOOTH",
"224 414 OFFCURVE",
"251 363 OFFCURVE",
"277 330 CURVE SMOOTH",
"396 181 OFFCURVE",
"512 -7 OFFCURVE",
"515 -11 CURVE",
"610 115 LINE",
"593 139 OFFCURVE",
"578 191 OFFCURVE",
"543 223 CURVE SMOOTH",
"512 252 OFFCURVE",
"484 304 OFFCURVE",
"464 333 CURVE SMOOTH",
"385 444 OFFCURVE",
"298 562 OFFCURVE",
"246 680 CURVE",
"238 675 LINE",
"243 680 LINE",
"133 572 LINE"
);
},
{
closed = 1;
nodes = (
"186 102 OFFCURVE",
"186 171 OFFCURVE",
"192 236 CURVE SMOOTH",
"203 363 OFFCURVE",
"216 521 OFFCURVE",
"244 680 CURVE",
"60 680 LINE",
"49 615 LINE",
"106 605 LINE",
"125 579 OFFCURVE",
"119 502 OFFCURVE",
"105 340 CURVE SMOOTH",
"99 268 OFFCURVE",
"82 122 OFFCURVE",
"72 79 CURVE",
"-3 65 LINE",
"-13 0 LINE",
"256 0 LINE",
"266 66 LINE",
"196 77 LINE"
);
},
{
closed = 1;
nodes = (
"552 580 OFFCURVE",
"548 474 OFFCURVE",
"544 424 CURVE SMOOTH",
"513 73 OFFCURVE",
"518 97 OFFCURVE",
"515 -11 CURVE",
"606 3 LINE",
"627 289 OFFCURVE",
"652 541 OFFCURVE",
"664 603 CURVE",
"743 615 LINE",
"754 680 LINE",
"477 680 LINE",
"466 615 LINE",
"541 606 LINE"
);
}
);
width = 718;
}
);
leftKerningGroup = I;
rightKerningGroup = I;
unicode = 004E;
},
{
color = 1;
glyphname = N.001;
lastChange = "2018-06-18 14:45:48 +0000";
layers = (
{
anchors = (
{
name = bottom;
position = "{357, 0}";
},
{
name = top;
position = "{357, 680}";
}
);
background = {
components = (
{
name = I;
transform = "{-1, 0, 0, -1, 333, 700}";
}
);
paths = (
{
closed = 1;
nodes = (
"511 603 OFFCURVE",
"511 514 OFFCURVE",
"511 464 CURVE SMOOTH",
"511 317 OFFCURVE",
"515 159 OFFCURVE",
"501 0 CURVE",
"682 0 LINE",
"687 55 LINE",
"635 65 LINE",
"588 143 OFFCURVE",
"611 528 OFFCURVE",
"618 571 CURVE SMOOTH",
"628 630 OFFCURVE",
"666 642 OFFCURVE",
"692 642 CURVE",
"693 700 LINE",
"439 700 LINE",
"434 642 LINE",
"495 633 LINE"
);
}
);
};
guideLines = (
{
angle = 86;
position = "{704, 410}";
}
);
layerId = "977FCFA9-45AC-4A33-B2D7-4D17E6BBF8E0";
paths = (
{
closed = 1;
nodes = (
"129 550 LINE",
"144 536 OFFCURVE",
"159 483 OFFCURVE",
"190 460 CURVE SMOOTH",
"228 432 OFFCURVE",
"269 346 OFFCURVE",
"291 310 CURVE SMOOTH",
"391 146 OFFCURVE",
"462 -5 OFFCURVE",
"465 -9 CURVE",
"636 115 LINE",
"617 139 OFFCURVE",
"598 179 OFFCURVE",
"560 211 CURVE SMOOTH",
"526 240 OFFCURVE",
"494 321 OFFCURVE",
"473 356 CURVE SMOOTH",
"397 483 OFFCURVE",
"361 563 OFFCURVE",
"299 686 CURVE",
"271 686 LINE",
"276 686 LINE",
"116 573 LINE"
);
},
{
closed = 1;
nodes = (
"231 137 OFFCURVE",
"228 179 OFFCURVE",
"228 236 CURVE SMOOTH",
"228 490 OFFCURVE",
"231 542 OFFCURVE",
"277 686 CURVE",
"31 686 LINE",
"26 659 OFFCURVE",
"23 608 OFFCURVE",
"24 581 CURVE",
"87 571 LINE",
"108 545 OFFCURVE",
"109 508 OFFCURVE",
"109 336 CURVE SMOOTH",
"109 264 OFFCURVE",
"105 157 OFFCURVE",
"99 114 CURVE",
"25 100 LINE",
"20 73 OFFCURVE",
"17 27 OFFCURVE",
"18 0 CURVE",
"313 0 LINE",
"318 27 OFFCURVE",
"321 74 OFFCURVE",
"320 101 CURVE",
"243 112 LINE"
);
},
{
closed = 1;
nodes = (
"514 546 OFFCURVE",
"519 480 OFFCURVE",
"519 430 CURVE SMOOTH",
"519 79 OFFCURVE",
"480 75 OFFCURVE",
"465 -9 CURVE",
"518 -7 OFFCURVE",
"591 -2 OFFCURVE",
"642 6 CURVE",
"638 292 OFFCURVE",
"641 507 OFFCURVE",
"648 569 CURVE",
"716 581 LINE",
"721 608 OFFCURVE",
"724 659 OFFCURVE",
"723 686 CURVE",
"427 686 LINE",
"422 659 OFFCURVE",
"419 608 OFFCURVE",
"420 581 CURVE",
"500 572 LINE"
);
}
);
width = 734;
},
{
anchors = (
{
name = bottom;
position = "{343, 0}";
},
{
name = top;
position = "{360, 680}";
}
);
background = {
components = (
{
name = V;
transform = "{1, 0, 0, 1, 276, 0}";
}
);
};
guideLines = (
{
angle = 85;
position = "{262, 152}";
},
{
angle = 85;
position = "{673, 158}";
}
);
layerId = "71FD7A9F-05F5-4D76-8D4F-547475A05E4C";
paths = (
{
closed = 1;
nodes = (
"152 633 LINE",
"183 566 OFFCURVE",
"213 515 OFFCURVE",
"233 487 CURVE SMOOTH",
"338 337 OFFCURVE",
"453 165 OFFCURVE",
"574 -17 CURVE",
"605 69 LINE",
"596 80 OFFCURVE",
"570 146 OFFCURVE",
"466 298 CURVE SMOOTH",
"360 453 OFFCURVE",
"285 564 OFFCURVE",
"212 680 CURVE",
"208 675 LINE",
"210 680 LINE"
);
},
{
closed = 1;
nodes = (
"184 89 OFFCURVE",
"185 160 OFFCURVE",
"185 236 CURVE SMOOTH",
"185 364 OFFCURVE",
"186 421 OFFCURVE",
"186 502 CURVE SMOOTH",
"186 560 OFFCURVE",
"184 620 OFFCURVE",
"212 680 CURVE",
"50 680 LINE",
"47 665 OFFCURVE",
"45 650 OFFCURVE",
"46 635 CURVE",
"111 624 LINE",
"128 598 OFFCURVE",
"128 489 OFFCURVE",
"124 317 CURVE SMOOTH",
"120 145 OFFCURVE",
"118 103 OFFCURVE",
"112 60 CURVE",
"39 45 LINE",
"36 30 OFFCURVE",
"34 15 OFFCURVE",
"35 0 CURVE",
"260 0 LINE",
"263 15 OFFCURVE",
"265 31 OFFCURVE",
"264 46 CURVE",
"195 57 LINE"
);
},
{
closed = 1;
nodes = (
"572 599 OFFCURVE",
"571 525 OFFCURVE",
"571 424 CURVE SMOOTH",
"571 229 OFFCURVE",
"567 114 OFFCURVE",
"567 61 CURVE SMOOTH",
"567 42 OFFCURVE",
"572 12 OFFCURVE",
"574 -17 CURVE",
"595 -17 OFFCURVE",
"613 -8 OFFCURVE",
"630 2 CURVE",
"629 72 OFFCURVE",
"628 141 OFFCURVE",
"628 206 CURVE SMOOTH",
"629 404 OFFCURVE",
"634 575 OFFCURVE",
"640 622 CURVE",
"713 635 LINE",
"716 650 OFFCURVE",
"718 665 OFFCURVE",
"717 680 CURVE",
"489 680 LINE",
"486 665 OFFCURVE",
"484 650 OFFCURVE",
"485 635 CURVE",
"558 626 LINE"
);
}
);
width = 757;
}
);
leftKerningGroup = I;
rightKerningGroup = I;
},
{
color = 8;
glyphname = Eng;
lastChange = "2017-09-10 18:25:38 +0000";
layers = (
{
anchors = (
{
name = bottom;
position = "{282, 0}";
},
{
name = top;
position = "{336, 661}";
}
);
background = {
paths = (
{
closed = 1;
nodes = (
"355 -271 OFFCURVE",
"441 -240 CURVE SMOOTH",
"558 -199 OFFCURVE",
"545 -45 OFFCURVE",
"472 23 CURVE",
"425 21 LINE",
"458 -16 OFFCURVE",
"457 -97 OFFCURVE",
"411 -140 CURVE SMOOTH",
"385 -165 OFFCURVE",
"359 -165 OFFCURVE",
"331 -153 CURVE SMOOTH",
"293 -136 OFFCURVE",
"267 -101 OFFCURVE",
"262 -87 CURVE",
"236 -119 LINE",
"261 -203 OFFCURVE"
);
}
);
};
layerId = "71FD7A9F-05F5-4D76-8D4F-547475A05E4C";
paths = (
{
closed = 1;
nodes = (
"510 49 LINE",
"574 -84 OFFCURVE",
"454 -190 OFFCURVE",
"309 -98 CURVE",
"295 -102 LINE",
"282 -128 LINE",
"313 -167 OFFCURVE",
"426 -234 OFFCURVE",
"516 -188 CURVE SMOOTH",
"588 -151 OFFCURVE",
"588 -64 OFFCURVE",
"593 15 CURVE"
);
},
{
closed = 1;
nodes = (
"179 550 LINE",
"194 537 OFFCURVE",
"215 510 OFFCURVE",
"234 483 CURVE SMOOTH",
"256 454 OFFCURVE",
"280 415 OFFCURVE",
"302 383 CURVE SMOOTH",
"484 107 OFFCURVE",
"539 -5 OFFCURVE",
"541 -9 CURVE",
"569 76 LINE",
"552 100 OFFCURVE",
"593 109 OFFCURVE",
"562 147 CURVE SMOOTH",
"533 182 OFFCURVE",
"486 244 OFFCURVE",
"449 298 CURVE SMOOTH",
"299 522 OFFCURVE",
"283 562 OFFCURVE",
"232 680 CURVE",
"227 675 LINE",
"230 680 LINE",
"160 579 LINE"
);
},
{
closed = 1;
nodes = (
"175 82 OFFCURVE",
"176 160 OFFCURVE",
"183 236 CURVE SMOOTH",
"194 363 OFFCURVE",
"204 521 OFFCURVE",
"232 680 CURVE",
"91 680 LINE",
"83 635 LINE",
"138 626 LINE",
"157 600 OFFCURVE",
"147 479 OFFCURVE",
"133 317 CURVE SMOOTH",
"118 145 OFFCURVE",
"110 103 OFFCURVE",
"101 60 CURVE",
"27 45 LINE",
"19 0 LINE",
"234 0 LINE",
"242 46 LINE",
"185 57 LINE"
);
},
{
closed = 1;
nodes = (
"586 600 OFFCURVE",
"579 534 OFFCURVE",
"569 424 CURVE SMOOTH",
"539 73 OFFCURVE",
"545 99 OFFCURVE",
"541 -9 CURVE",
"591 0 LINE",
"612 286 OFFCURVE",
"643 560 OFFCURVE",
"655 622 CURVE",
"730 635 LINE",
"738 680 LINE",
"520 680 LINE",
"512 635 LINE",
"574 626 LINE"
);
}
);
width = 664;
},
{
anchors = (
{
name = bottom;
position = "{314, 0}";
},
{
name = top;
position = "{368, 661}";
}
);
background = {
paths = (
{
closed = 1;
nodes = (
"387 -271 OFFCURVE",
"473 -240 CURVE SMOOTH",
"590 -199 OFFCURVE",
"577 -45 OFFCURVE",
"504 23 CURVE",
"457 21 LINE",
"490 -16 OFFCURVE",
"489 -97 OFFCURVE",
"443 -140 CURVE SMOOTH",
"417 -165 OFFCURVE",
"391 -165 OFFCURVE",
"363 -153 CURVE SMOOTH",
"325 -136 OFFCURVE",
"299 -101 OFFCURVE",
"294 -87 CURVE",
"268 -119 LINE",
"293 -203 OFFCURVE"
);
}
);
};
layerId = "977FCFA9-45AC-4A33-B2D7-4D17E6BBF8E0";
paths = (
{
closed = 1;
nodes = (
"207 91 OFFCURVE",
"207 160 OFFCURVE",
"214 236 CURVE SMOOTH",
"227 383 OFFCURVE",
"237 541 OFFCURVE",
"265 700 CURVE",
"84 700 LINE",
"74 643 LINE",
"131 633 LINE",
"149 607 OFFCURVE",
"141 499 OFFCURVE",
"127 337 CURVE SMOOTH",
"118 238 OFFCURVE",
"108 172 OFFCURVE",
"98 129 CURVE SMOOTH",
"85 70 OFFCURVE",
"44 55 OFFCURVE",
"18 55 CURVE",
"11 0 LINE",
"265 0 LINE",
"275 55 LINE",
"217 66 LINE"
);
},
{
closed = 1;
nodes = (
"472 645 LINE",
"534 636 LINE",
"546 610 OFFCURVE",
"540 494 OFFCURVE",
"535 444 CURVE SMOOTH",
"527 364 OFFCURVE",
"522 303 OFFCURVE",
"518 255 CURVE",
"492 285 OFFCURVE",
"469 325 OFFCURVE",
"454 351 CURVE SMOOTH",
"377 480 OFFCURVE",
"316 582 OFFCURVE",
"265 700 CURVE",
"260 695 LINE",
"263 700 LINE",
"156 592 LINE",
"167 564 LINE",
"180 550 OFFCURVE",
"191 500 OFFCURVE",
"215 477 CURVE SMOOTH",
"248 446 OFFCURVE",
"281 384 OFFCURVE",
"300 351 CURVE SMOOTH",
"374 223 OFFCURVE",
"471 59 OFFCURVE",
"496 13 CURVE SMOOTH",
"535 -60 OFFCURVE",
"502 -119 OFFCURVE",
"464 -148 CURVE",
"421 -175 OFFCURVE",
"361 -176 OFFCURVE",
"308 -138 CURVE",
"290 -185 LINE",
"321 -224 OFFCURVE",
"421 -283 OFFCURVE",
"505 -233 CURVE SMOOTH",
"594 -180 OFFCURVE",
"591 -78 OFFCURVE",
"596 0 CURVE SMOOTH",
"618 286 OFFCURVE",
"638 504 OFFCURVE",
"653 566 CURVE SMOOTH",
"666 619 OFFCURVE",
"699 645 OFFCURVE",
"737 645 CURVE",
"744 700 LINE",
"483 700 LINE"
);
}
);
width = 718;
}
);
leftKerningGroup = I;
rightKerningGroup = I;
unicode = 014A;
},
{
color = 8;
glyphname = O;
lastChange = "2017-09-10 18:25:38 +0000";
layers = (
{
anchors = (
{
name = bottom;
position = "{326, 0}";
},
{
name = center;
position = "{362, 340}";
},
{
name = ogonek;
position = "{606, 10}";
},
{
name = top;
position = "{386, 680}";
},
{
name = topleft;
position = "{66, 680}";
},
{
name = topright;
position = "{727, 680}";
}
);
guideLines = (
{
position = "{431, 746}";
},
{
position = "{418, 865}";
}
);
layerId = "71FD7A9F-05F5-4D76-8D4F-547475A05E4C";
paths = (
{
closed = 1;
nodes = (
"567 672 OFFCURVE",
"483 715 OFFCURVE",
"339 688 CURVE SMOOTH",
"24 629 OFFCURVE",
"-17 222 OFFCURVE",
"109 76 CURVE SMOOTH",
"186 -13 OFFCURVE",
"292 -34 OFFCURVE",
"420 0 CURVE SMOOTH",
"699 74 OFFCURVE",
"752 443 OFFCURVE",
"621 605 CURVE SMOOTH"
);
},
{
closed = 1;
nodes = (
"234 15 OFFCURVE",
"157 111 OFFCURVE",
"135 267 CURVE SMOOTH",
"112 430 OFFCURVE",
"194 605 OFFCURVE",
"368 656 CURVE",
"366 666 LINE",
"295 653 LINE",
"295 642 LINE",
"503 664 OFFCURVE",
"583 557 OFFCURVE",
"600 406 CURVE SMOOTH",
"619 241 OFFCURVE",
"528 78 OFFCURVE",
"376 31 CURVE",
"380 16 LINE",
"447 24 LINE",
"444 40 LINE"
);
}
);
width = 701;
},
{
anchors = (
{
name = bottom;
position = "{265, 0}";
},
{
name = center;
position = "{338, 350}";
},
{
name = ogonek;
position = "{535, 10}";
},
{
name = top;
position = "{388, 680}";
},
{
name = topleft;
position = "{94, 700}";
},
{
name = topright;
position = "{728, 700}";
}
);
background = {
paths = (
{
closed = 1;
nodes = (
"570 685 OFFCURVE",
"476 730 OFFCURVE",
"332 711 CURVE",
"22 649 OFFCURVE",
"-33 244 OFFCURVE",
"116 81 CURVE SMOOTH",
"194 -8 OFFCURVE",
"311 -29 OFFCURVE",
"437 -1 CURVE",
"710 77 OFFCURVE",
"778 440 OFFCURVE",
"626 618 CURVE SMOOTH"
);
},
{
closed = 1;
nodes = (
"343 77 OFFCURVE",
"267 99 OFFCURVE",
"227 176 CURVE SMOOTH",
"143 334 OFFCURVE",
"187 547 OFFCURVE",
"337 628 CURVE",
"400 628 OFFCURVE",
"474 610 OFFCURVE",
"518 521 CURVE SMOOTH",
"595 372 OFFCURVE",
"553 165 OFFCURVE",
"407 78 CURVE"
);
}
);
};
layerId = "977FCFA9-45AC-4A33-B2D7-4D17E6BBF8E0";
paths = (
{
closed = 1;
nodes = (
"590 662 OFFCURVE",
"488 719 OFFCURVE",
"333 692 CURVE SMOOTH",
"28 639 OFFCURVE",
"-55 249 OFFCURVE",
"77 85 CURVE SMOOTH",
"149 -4 OFFCURVE",
"286 -37 OFFCURVE",
"410 -5 CURVE SMOOTH",
"680 65 OFFCURVE",
"773 414 OFFCURVE",
"640 595 CURVE SMOOTH"
);
},
{
closed = 1;
nodes = (
"348 69 OFFCURVE",
"252 97 OFFCURVE",
"207 187 CURVE SMOOTH",
"131 338 OFFCURVE",
"201 554 OFFCURVE",
"360 615 CURVE",
"356 634 LINE",
"307 620 LINE",
"311 601 LINE",
"376 613 OFFCURVE",
"472 584 OFFCURVE",
"515 488 CURVE SMOOTH",
"583 336 OFFCURVE",
"514 137 OFFCURVE",
"356 63 CURVE",
"358 38 LINE",
"411 54 LINE",
"406 80 LINE"
);
}
);
width = 696;
}
);
leftKerningGroup = O;
rightKerningGroup = O;
unicode = 004F;
},
{
color = 1;
glyphname = O.001;
lastChange = "2018-06-18 14:45:49 +0000";
layers = (
{
anchors = (
{
name = bottom;
position = "{357, 0}";
},
{
name = center;
position = "{357, 350}";
},
{
name = ogonek;
position = "{647, 10}";
},
{
name = top;
position = "{357, 680}";
},
{
name = topleft;
position = "{13, 700}";
},
{
name = topright;
position = "{700, 700}";
}
);
background = {
paths = (
{
closed = 1;
nodes = (
"555 671 OFFCURVE",
"437 705 OFFCURVE",
"294 686 CURVE",
"-13 624 OFFCURVE",
"-75 264 OFFCURVE",
"93 76 CURVE SMOOTH",
"175 -15 OFFCURVE",
"312 -26 OFFCURVE",
"436 2 CURVE",
"705 80 OFFCURVE",
"779 400 OFFCURVE",
"611 603 CURVE SMOOTH"
);
},
{
closed = 1;
nodes = (
"292 74 OFFCURVE",
"210 152 OFFCURVE",
"184 269 CURVE SMOOTH",
"162 368 OFFCURVE",
"171 549 OFFCURVE",
"329 602 CURVE",
"326 614 LINE",
"257 603 LINE",
"258 592 LINE",
"427 603 OFFCURVE",
"503 516 OFFCURVE",
"526 411 CURVE SMOOTH",
"549 306 OFFCURVE",
"539 129 OFFCURVE",
"392 82 CURVE",
"397 68 LINE",
"463 80 LINE",
"458 93 LINE"
);
}
);
};
guideLines = (
{
angle = 90;
position = "{340, 177}";
}
);
layerId = "977FCFA9-45AC-4A33-B2D7-4D17E6BBF8E0";
paths = (
{
closed = 1;
nodes = (
"538 733 OFFCURVE",
"301 692 CURVE SMOOTH",
"101 657 OFFCURVE",
"22 488 OFFCURVE",
"22 317 CURVE SMOOTH",
"22 73 OFFCURVE",
"205 -63 OFFCURVE",
"439 -5 CURVE SMOOTH",
"619 40 OFFCURVE",
"696 193 OFFCURVE",
"696 358 CURVE SMOOTH",
"696 589 OFFCURVE"
);
},
{
closed = 1;
nodes = (
"303 77 OFFCURVE",
"229 212 OFFCURVE",
"229 369 CURVE SMOOTH",
"229 460 OFFCURVE",
"262 554 OFFCURVE",
"339 585 CURVE",
"334 602 LINE",
"290 589 LINE",
"296 572 LINE",
"419 596 OFFCURVE",
"495 457 OFFCURVE",
"495 321 CURVE SMOOTH",
"495 224 OFFCURVE",
"458 125 OFFCURVE",
"376 85 CURVE",
"380 62 LINE",
"427 77 LINE",
"419 100 LINE"
);
}
);
width = 718;
},
{
anchors = (
{
name = bottom;
position = "{360, 0}";
},
{
name = center;
position = "{360, 350}";
},
{
name = ogonek;
position = "{650, 10}";
},
{
name = top;
position = "{361, 680}";
},
{
name = topleft;
position = "{16, 700}";
},
{
name = topright;
position = "{703, 700}";
}
);
background = {
components = (
{
name = D;
transform = "{1, 0, 0, 1, 19, 0}";
}
);
};
guideLines = (
{
angle = 90;
position = "{343, 177}";
},
{
position = "{431, 746}";
},
{
position = "{418, 865}";
}
);
layerId = "71FD7A9F-05F5-4D76-8D4F-547475A05E4C";
paths = (
{
closed = 1;
nodes = (
"545 656 OFFCURVE",
"480 694 OFFCURVE",
"384 694 CURVE SMOOTH",
"359 694 OFFCURVE",
"332 692 OFFCURVE",
"303 686 CURVE SMOOTH",
"116 650 OFFCURVE",
"40 488 OFFCURVE",
"40 334 CURVE SMOOTH",
"40 233 OFFCURVE",
"72 135 OFFCURVE",
"127 77 CURVE SMOOTH",
"187 15 OFFCURVE",
"258 -14 OFFCURVE",
"338 -14 CURVE SMOOTH",
"372 -14 OFFCURVE",
"408 -9 OFFCURVE",
"445 1 CURVE SMOOTH",
"609 46 OFFCURVE",
"682 197 OFFCURVE",
"682 345 CURVE SMOOTH",
"682 443 OFFCURVE",
"650 539 OFFCURVE",
"593 603 CURVE SMOOTH"
);
},
{
closed = 1;
nodes = (
"443 38 OFFCURVE",
"422 37 OFFCURVE",
"403 37 CURVE SMOOTH",
"240 37 OFFCURVE",
"168 129 OFFCURVE",
"136 268 CURVE SMOOTH",
"129 297 OFFCURVE",
"126 326 OFFCURVE",
"126 355 CURVE SMOOTH",
"126 488 OFFCURVE",
"196 612 OFFCURVE",
"335 654 CURVE",
"332 664 LINE",
"262 651 LINE",
"263 640 LINE",
"281 642 OFFCURVE",
"298 643 OFFCURVE",
"315 643 CURVE SMOOTH",
"484 643 OFFCURVE",
"562 542 OFFCURVE",
"589 404 CURVE SMOOTH",
"594 378 OFFCURVE",
"597 353 OFFCURVE",
"597 328 CURVE SMOOTH",
"597 192 OFFCURVE",
"523 72 OFFCURVE",
"398 32 CURVE",
"403 17 LINE",
"469 25 LINE",
"465 41 LINE"
);
}
);
width = 722;
}
);
leftKerningGroup = O;
rightKerningGroup = O;
},
{
color = 8;
glyphname = OE;
lastChange = "2017-09-10 18:25:38 +0000";
layers = (
{
anchors = (
{
name = bottom;
position = "{363, 0}";
},
{
name = top;
position = "{497, 700}";
}
);
layerId = "71FD7A9F-05F5-4D76-8D4F-547475A05E4C";
paths = (
{
closed = 1;
nodes = (
"114 4 OFFCURVE",
"230 -3 OFFCURVE",
"360 0 CURVE",
"370 50 LINE",
"197 45 OFFCURVE",
"86 139 OFFCURVE",
"67 276 CURVE SMOOTH",
"46 427 OFFCURVE",
"114 565 OFFCURVE",
"265 626 CURVE",
"345 626 OFFCURVE",
"404 616 OFFCURVE",
"448 601 CURVE",
"464 680 LINE",
"410 680 OFFCURVE",
"336 685 OFFCURVE",
"247 671 CURVE",
"-50 599 OFFCURVE",
"-89 238 OFFCURVE",
"34 96 CURVE SMOOTH"
);
},
{
closed = 1;
nodes = (
"796 159 LINE",
"754 70 LINE",
"714 57 OFFCURVE",
"604 52 OFFCURVE",
"526 54 CURVE",
"515 55 LINE",
"491 111 OFFCURVE",
"511 288 OFFCURVE",
"515 334 CURVE SMOOTH",
"515 340 LINE",
"717 323 LINE",
"736 390 LINE",
"724 398 LINE",
"684 396 OFFCURVE",
"561 392 OFFCURVE",
"520 390 CURVE",
"530 514 OFFCURVE",
"539 591 OFFCURVE",
"543 623 CURVE",
"547 624 LINE",
"653 622 OFFCURVE",
"736 618 OFFCURVE",
"781 609 CURVE",
"789 527 LINE",
"835 537 LINE",
"851 689 LINE",
"745 683 OFFCURVE",
"625 680 OFFCURVE",
"509 680 CURVE SMOOTH",
"394 680 LINE",
"386 636 LINE",
"445 626 LINE",
"455 601 OFFCURVE",
"449 515 OFFCURVE",
"437 388 CURVE SMOOTH",
"419 178 OFFCURVE",
"411 145 OFFCURVE",
"407 93 CURVE SMOOTH",
"406 80 OFFCURVE",
"422 61 OFFCURVE",
"447 55 CURVE",
"335 46 LINE",
"327 0 LINE",
"575 0 LINE",
"575 1 LINE",
"650 0 OFFCURVE",
"726 -1 OFFCURVE",
"801 -3 CURVE",
"837 152 LINE"
);
}
);
width = 936;
},
{
anchors = (
{
name = bottom;
position = "{389, 0}";
},
{
name = top;
position = "{523, 700}";
}
);
layerId = "977FCFA9-45AC-4A33-B2D7-4D17E6BBF8E0";
paths = (
{
closed = 1;
nodes = (
"543 12 LINE",
"540 115 LINE",
"514 97 OFFCURVE",
"385 86 OFFCURVE",
"334 80 CURVE",
"335 55 LINE",
"389 71 LINE",
"382 82 LINE",
"324 71 OFFCURVE",
"230 111 OFFCURVE",
"195 207 CURVE SMOOTH",
"139 357 OFFCURVE",
"196 541 OFFCURVE",
"344 604 CURVE",
"339 623 LINE",
"290 609 LINE",
"294 590 LINE",
"355 595 OFFCURVE",
"502 582 OFFCURVE",
"558 522 CURVE",
"571 648 LINE",
"481 680 LINE",
"446 681 OFFCURVE",
"376 682 OFFCURVE",
"316 679 CURVE",
"21 617 OFFCURVE",
"-46 269 OFFCURVE",
"60 100 CURVE SMOOTH",
"123 1 OFFCURVE",
"260 -11 OFFCURVE",
"393 0 CURVE SMOOTH"
);
},
{
closed = 1;
nodes = (
"892 197 LINE",
"854 115 LINE",
"814 102 OFFCURVE",
"728 97 OFFCURVE",
"654 98 CURVE",
"637 156 OFFCURVE",
"646 250 OFFCURVE",
"653 310 CURVE",
"816 292 LINE",
"841 398 LINE",
"826 408 LINE",
"773 407 OFFCURVE",
"715 405 OFFCURVE",
"661 402 CURVE",
"669 484 OFFCURVE",
"675 547 OFFCURVE",
"683 585 CURVE",
"766 583 OFFCURVE",
"828 580 OFFCURVE",
"867 574 CURVE",
"877 482 LINE",
"949 492 LINE",
"966 676 LINE",
"952 688 LINE",
"802 678 OFFCURVE",
"752 683 OFFCURVE",
"602 680 CURVE SMOOTH",
"462 680 LINE",
"450 615 LINE",
"517 605 LINE",
"528 580 OFFCURVE",
"525 515 OFFCURVE",
"510 388 CURVE SMOOTH",
"485 166 OFFCURVE",
"487 190 OFFCURVE",
"483 159 CURVE SMOOTH",
"479 123 OFFCURVE",
"496 110 OFFCURVE",
"523 104 CURVE",
"404 66 LINE",
"393 0 LINE",
"717 0 LINE SMOOTH",
"784 0 OFFCURVE",
"793 -1 OFFCURVE",
"917 -4 CURVE",
"956 189 LINE"
);
}
);
width = 993;
}
);
unicode = 0152;
},
{
color = 8;
glyphname = P;
lastChange = "2017-09-10 18:57:27 +0000";
layers = (
{
components = (
{
name = _part.stem.cap;
transform = "{1, 0, 0, 1, -13, 0}";
}
);
layerId = "71FD7A9F-05F5-4D76-8D4F-547475A05E4C";
paths = (
{
closed = 1;
nodes = (
"174 299 LINE",
"204 287 OFFCURVE",
"297 288 OFFCURVE",
"332 293 CURVE",
"554 328 OFFCURVE",
"617 595 OFFCURVE",
"438 661 CURVE SMOOTH",
"343 696 OFFCURVE",
"279 687 OFFCURVE",
"97 680 CURVE",
"228 631 LINE",
"475 686 OFFCURVE",
"542 425 OFFCURVE",
"353 342 CURVE",
"304 341 OFFCURVE",
"234 342 OFFCURVE",
"187 357 CURVE"
);
},
{
closed = 1;
nodes = (
"112 0 LINE",
"284 0 LINE",
"293 46 LINE",
"172 60 LINE"
);
}
);
width = 531;
},
{
background = {
components = (
{
name = R;
transform = "{1, 0, 0, 1, -15, 0}";
}
);
};
components = (
{
name = _part.stem.cap;
piece = {
"BPR?" = 1;
};
transform = "{1, 0, 0, 1, -167, 0}";
}
);
guideLines = (
{
angle = 84;
position = "{607, 311}";
}
);
layerId = "977FCFA9-45AC-4A33-B2D7-4D17E6BBF8E0";
paths = (
{
closed = 1;
nodes = (
"226 274 LINE",
"256 262 OFFCURVE",
"326 261 OFFCURVE",
"361 266 CURVE",
"606 314 OFFCURVE",
"663 575 OFFCURVE",
"495 655 CURVE SMOOTH",
"401 700 OFFCURVE",
"250 689 OFFCURVE",
"86 678 CURVE",
"256 600 LINE",
"461 632 OFFCURVE",
"459 415 OFFCURVE",
"371 361 CURVE",
"346 353 OFFCURVE",
"261 356 OFFCURVE",
"226 373 CURVE"
);
},
{
closed = 1;
nodes = (
"122 0 LINE",
"344 0 LINE",
"356 66 LINE",
"209 83 LINE"
);
}
);
width = 574;
}
);
leftKerningGroup = I;
leftMetricsKey = H;
unicode = 0050;
},
{
color = 1;
glyphname = P.001;
lastChange = "2018-06-18 14:45:49 +0000";
layers = (
{
anchors = (
{
name = bottom;
position = "{301, 0}";
},
{
name = top;
position = "{301, 680}";
}
);
background = {
components = (
{
name = R;
transform = "{1, 0, 0, 1, 2, 0}";
}
);
};
components = (
{
name = _part.stem.cap;
piece = {
"BPR?" = 1;
};
transform = "{1, 0, 0, 1, -190, 0}";
}
);
layerId = "977FCFA9-45AC-4A33-B2D7-4D17E6BBF8E0";
paths = (
{
closed = 1;
nodes = (
"255 268 LINE",
"286 256 OFFCURVE",
"356 256 OFFCURVE",
"391 261 CURVE",
"632 309 OFFCURVE",
"664 583 OFFCURVE",
"491 664 CURVE SMOOTH",
"393 710 OFFCURVE",
"199 696 OFFCURVE",
"25 684 CURVE",
"223 585 LINE",
"425 617 OFFCURVE",
"440 434 OFFCURVE",
"357 380 CURVE",
"332 370 OFFCURVE",
"283 368 OFFCURVE",
"246 381 CURVE"
);
},
{
closed = 1;
nodes = (
"144 0 LINE",
"366 0 LINE",
"372 66 LINE",
"224 83 LINE"
);
}
);
width = 615;
},
{
anchors = (
{
name = bottom;
position = "{302, 0}";
},
{
name = top;
position = "{302, 680}";
}
);
background = {
components = (
{
name = R;
transform = "{1, 0, 0, 1, -7, 0}";
}
);
};
components = (
{
name = _part.stem.cap;
piece = {
"BPR?" = 1;
};
transform = "{1, 0, 0, 1, -119, 0}";
}
);
layerId = "71FD7A9F-05F5-4D76-8D4F-547475A05E4C";
paths = (
{
closed = 1;
nodes = (
"190 299 LINE",
"208 292 OFFCURVE",
"246 289 OFFCURVE",
"282 289 CURVE SMOOTH",
"309 289 OFFCURVE",
"334 291 OFFCURVE",
"349 293 CURVE",
"474 313 OFFCURVE",
"540 411 OFFCURVE",
"540 503 CURVE SMOOTH",
"540 573 OFFCURVE",
"502 641 OFFCURVE",
"423 669 CURVE SMOOTH",
"377 685 OFFCURVE",
"336 690 OFFCURVE",
"287 690 CURVE SMOOTH",
"231 690 OFFCURVE",
"164 684 OFFCURVE",
"67 680 CURVE",
"216 633 LINE",
"237 638 OFFCURVE",
"257 640 OFFCURVE",
"276 640 CURVE SMOOTH",
"375 640 OFFCURVE",
"432 587 OFFCURVE",
"449 520 CURVE SMOOTH",
"468 447 OFFCURVE",
"435 374 OFFCURVE",
"366 342 CURVE",
"317 341 OFFCURVE",
"247 342 OFFCURVE",
"198 357 CURVE"
);
},
{
closed = 1;
nodes = (
"155 0 LINE",
"327 0 LINE",
"332 15 OFFCURVE",
"333 31 OFFCURVE",
"332 46 CURVE",
"209 60 LINE"
);
}
);
width = 560;
},
{
associatedMasterId = "977FCFA9-45AC-4A33-B2D7-4D17E6BBF8E0";
layerId = "C213273F-1890-4B8A-8B3A-AF00810518FC";
name = bubble;
paths = (
{
closed = 1;
nodes = (
"161 366 LINE",
"170 267 LINE",
"221 199 LINE",
"261 184 OFFCURVE",
"343 179 OFFCURVE",
"400 187 CURVE",
"701 246 OFFCURVE",
"781 608 OFFCURVE",
"519 728 CURVE SMOOTH",
"403 781 OFFCURVE",
"232 769 OFFCURVE",
"70 758 CURVE",
"43 605 LINE",
"362 464 LINE",
"364 454 OFFCURVE",
"361 445 OFFCURVE",
"354 436 CURVE",
"333 436 OFFCURVE",
"285 441 OFFCURVE",
"274 446 CURVE"
);
},
{
closed = 1;
nodes = (
"-18 -80 LINE",
"465 -80 LINE",
"485 137 LINE",
"220 167 LINE"
);
}
);
width = 601;
}
);
leftKerningGroup = I;
},
{
color = 8;
glyphname = Thorn;
lastChange = "2017-09-10 18:25:38 +0000";
layers = (
{
layerId = "71FD7A9F-05F5-4D76-8D4F-547475A05E4C";
paths = (
{
closed = 1;
nodes = (
"128 163 LINE",
"158 151 OFFCURVE",
"251 152 OFFCURVE",
"286 157 CURVE",
"508 192 OFFCURVE",
"571 460 OFFCURVE",
"392 525 CURVE SMOOTH",
"321 551 OFFCURVE",
"259 553 OFFCURVE",
"155 549 CURVE",
"183 492 LINE",
"429 550 OFFCURVE",
"496 289 OFFCURVE",
"308 206 CURVE",
"258 205 OFFCURVE",
"189 206 OFFCURVE",
"141 221 CURVE"
);
},
{
closed = 1;
nodes = (
"71 0 LINE",
"243 0 LINE",
"252 46 LINE",
"130 60 LINE"
);
},
{
closed = 1;
nodes = (
"289 634 LINE",
"298 680 LINE",
"122 680 LINE",
"171 620 LINE"
);
},
{
closed = 1;
nodes = (
"50 680 LINE",
"42 636 LINE",
"100 626 LINE",
"110 601 OFFCURVE",
"104 515 OFFCURVE",
"92 388 CURVE SMOOTH",
"74 178 OFFCURVE",
"66 145 OFFCURVE",
"62 93 CURVE SMOOTH",
"61 80 OFFCURVE",
"77 61 OFFCURVE",
"102 55 CURVE",
"-10 46 LINE",
"-18 0 LINE",
"231 0 LINE",
"239 46 LINE",
"170 55 LINE",
"146 111 OFFCURVE",
"166 288 OFFCURVE",
"170 334 CURVE SMOOTH",
"183 491 OFFCURVE",
"188 532 OFFCURVE",
"192 569 CURVE SMOOTH",
"198 618 OFFCURVE",
"193 667 OFFCURVE",
"255 669 CURVE",
"282 680 LINE"
);
}
);
width = 512;
},
{
layerId = "977FCFA9-45AC-4A33-B2D7-4D17E6BBF8E0";
paths = (
{
closed = 1;
nodes = (
"210 142 LINE",
"240 130 OFFCURVE",
"310 129 OFFCURVE",
"345 134 CURVE",
"590 182 OFFCURVE",
"647 443 OFFCURVE",
"479 523 CURVE SMOOTH",
"408 557 OFFCURVE",
"303 559 OFFCURVE",
"186 553 CURVE",
"240 468 LINE",
"445 500 OFFCURVE",
"443 283 OFFCURVE",
"356 229 CURVE",
"330 221 OFFCURVE",
"245 224 OFFCURVE",
"210 241 CURVE"
);
},
{
closed = 1;
nodes = (
"118 0 LINE",
"335 0 LINE",
"346 66 LINE",
"205 83 LINE"
);
},
{
closed = 1;
nodes = (
"381 613 LINE",
"393 680 LINE",
"174 680 LINE",
"247 596 LINE"
);
},
{
closed = 1;
nodes = (
"56 680 LINE",
"45 616 LINE",
"113 605 LINE",
"124 580 OFFCURVE",
"120 515 OFFCURVE",
"104 388 CURVE SMOOTH",
"82 201 OFFCURVE",
"79 166 OFFCURVE",
"75 136 CURVE SMOOTH",
"71 100 OFFCURVE",
"89 84 OFFCURVE",
"115 78 CURVE",
"-2 66 LINE",
"-12 0 LINE",
"313 0 LINE",
"324 66 LINE",
"257 78 LINE",
"227 137 OFFCURVE",
"241 229 OFFCURVE",
"250 334 CURVE SMOOTH",
"263 491 OFFCURVE",
"272 587 OFFCURVE",
"286 609 CURVE SMOOTH",
"299 630 OFFCURVE",
"316 645 OFFCURVE",
"360 646 CURVE",
"368 680 LINE"
);
}
);
width = 566;
}
);
leftKerningGroup = I;
rightKerningGroup = B;
unicode = 00DE;
},
{
color = 8;
glyphname = Q;
lastChange = "2017-09-10 18:25:38 +0000";
layers = (
{
components = (
{
name = O;
}
);
layerId = "71FD7A9F-05F5-4D76-8D4F-547475A05E4C";
paths = (
{
closed = 1;
nodes = (
"397 -90 OFFCURVE",
"575 -192 OFFCURVE",
"668 -208 CURVE",
"760 -157 LINE",
"748 -118 LINE",
"696 -129 LINE",
"560 -103 OFFCURVE",
"416 -24 OFFCURVE",
"348 32 CURVE",
"297 42 LINE"
);
}
);
width = 717;
},
{
background = {
paths = (
{
closed = 1;
nodes = (
"360 -45 OFFCURVE",
"563 -202 OFFCURVE",
"671 -191 CURVE",
"724 -169 OFFCURVE",
"772 -133 OFFCURVE",
"794 -106 CURVE",
"767 -56 LINE",
"751 -71 OFFCURVE",
"732 -83 OFFCURVE",
"717 -88 CURVE",
"653 -73 OFFCURVE",
"307 61 OFFCURVE",
"271 138 CURVE",
"220 109 LINE"
);
},
{
closed = 1;
nodes = (
"564 683 OFFCURVE",
"477 727 OFFCURVE",
"343 709 CURVE",
"54 647 OFFCURVE",
"-5 244 OFFCURVE",
"129 81 CURVE SMOOTH",
"200 -7 OFFCURVE",
"309 -28 OFFCURVE",
"426 0 CURVE",
"681 77 OFFCURVE",
"752 439 OFFCURVE",
"615 616 CURVE SMOOTH"
);
},
{
closed = 1;
nodes = (
"340 58 OFFCURVE",
"287 99 OFFCURVE",
"252 176 CURVE SMOOTH",
"178 333 OFFCURVE",
"206 545 OFFCURVE",
"346 626 CURVE",
"405 626 OFFCURVE",
"455 608 OFFCURVE",
"495 519 CURVE SMOOTH",
"563 371 OFFCURVE",
"538 146 OFFCURVE",
"400 59 CURVE"
);
}
);
};
components = (
{
name = O;
}
);
layerId = "977FCFA9-45AC-4A33-B2D7-4D17E6BBF8E0";
paths = (
{
closed = 1;
nodes = (
"353 -72 OFFCURVE",
"547 -237 OFFCURVE",
"656 -226 CURVE",
"790 -158 LINE",
"770 -96 LINE",
"708 -109 LINE",
"645 -94 OFFCURVE",
"354 -4 OFFCURVE",
"297 73 CURVE",
"216 82 LINE"
);
}
);
width = 695;
}
);
leftKerningGroup = O;
leftMetricsKey = O;
rightKerningGroup = O;
unicode = 0051;
},
{
color = 1;
glyphname = Q.001;
lastChange = "2018-06-18 14:45:49 +0000";
layers = (
{
anchors = (
{
name = bottom;
position = "{362, 0}";
},
{
name = top;
position = "{362, 680}";
}
);
components = (
{
name = O;
}
);
layerId = "977FCFA9-45AC-4A33-B2D7-4D17E6BBF8E0";
paths = (
{
closed = 1;
nodes = (
"368 -49 OFFCURVE",
"444 -195 OFFCURVE",
"538 -211 CURVE",
"594 -185 OFFCURVE",
"633 -153 OFFCURVE",
"685 -115 CURVE",
"673 -74 LINE",
"511 -42 OFFCURVE",
"425 10 OFFCURVE",
"365 69 CURVE",
"235 105 LINE"
);
}
);
width = 718;
},
{
anchors = (
{
name = bottom;
position = "{362, 0}";
},
{
name = top;
position = "{362, 680}";
}
);
components = (
{
name = O;
}
);
layerId = "71FD7A9F-05F5-4D76-8D4F-547475A05E4C";
paths = (
{
closed = 1;
nodes = (
"386 -91 OFFCURVE",
"516 -189 OFFCURVE",
"610 -205 CURVE",
"635 -189 OFFCURVE",
"660 -169 OFFCURVE",
"679 -149 CURVE",
"672 -132 LINE",
"528 -112 OFFCURVE",
"404 -24 OFFCURVE",
"337 28 CURVE",
"274 41 LINE"
);
}
);
width = 698;
}
);
leftKerningGroup = O;
rightKerningGroup = O;
},
{
color = 8;
glyphname = R;
lastChange = "2017-09-10 18:57:27 +0000";
layers = (
{
anchors = (
{
name = bottom;
position = "{292, 0}";
},
{
name = top;
position = "{335, 680}";
}
);
components = (
{
name = _part.stem.cap;
transform = "{1, 0, 0, 1, -13, 0}";
}
);
layerId = "71FD7A9F-05F5-4D76-8D4F-547475A05E4C";
paths = (
{
closed = 1;
nodes = (
"190 309 LINE",
"196 306 OFFCURVE",
"309 303 OFFCURVE",
"336 304 CURVE",
"395 319 LINE",
"478 338 OFFCURVE",
"562 434 OFFCURVE",
"543 549 CURVE SMOOTH",
"511 727 OFFCURVE",
"273 685 OFFCURVE",
"94 679 CURVE",
"237 630 LINE",
"492 690 OFFCURVE",
"536 426 OFFCURVE",
"363 352 CURVE",
"319 351 OFFCURVE",
"248 351 OFFCURVE",
"205 365 CURVE"
);
},
{
closed = 1;
nodes = (
"295 327 LINE",
"353 204 OFFCURVE",
"375 139 OFFCURVE",
"466 -5 CURVE",
"504 -3 OFFCURVE",
"542 5 OFFCURVE",
"588 18 CURVE",
"598 62 LINE",
"537 62 LINE",
"477 126 OFFCURVE",
"461 147 OFFCURVE",
"347 327 CURVE"
);
}
);
width = 625;
},
{
anchors = (
{
name = bottom;
position = "{284, -2}";
},
{
name = top;
position = "{337, 680}";
}
);
background = {
components = (
{
name = k;
transform = "{1, 0, 0, 1, 152, 0}";
}
);
};
components = (
{
name = _part.stem.cap;
transform = "{1, 0, 0, 1, -166, 0}";
}
);
guideLines = (
{
position = "{502, 480}";
}
);
layerId = "977FCFA9-45AC-4A33-B2D7-4D17E6BBF8E0";
paths = (
{
closed = 1;
nodes = (
"239 283 LINE",
"244 280 OFFCURVE",
"317 281 OFFCURVE",
"344 282 CURVE",
"428 291 LINE",
"536 343 OFFCURVE",
"607 425 OFFCURVE",
"589 540 CURVE SMOOTH",
"557 743 OFFCURVE",
"275 684 OFFCURVE",
"76 678 CURVE",
"258 600 LINE",
"458 633 OFFCURVE",
"477 408 OFFCURVE",
"357 363 CURVE",
"334 363 OFFCURVE",
"285 357 OFFCURVE",
"227 382 CURVE"
);
},
{
closed = 1;
nodes = (
"293 322 LINE",
"334 221 OFFCURVE",
"396 69 OFFCURVE",
"437 0 CURVE",
"496 -9 OFFCURVE",
"578 -1 OFFCURVE",
"635 18 CURVE",
"647 78 LINE",
"587 82 LINE",
"521 150 OFFCURVE",
"455 253 OFFCURVE",
"390 353 CURVE"
);
}
);
width = 664;
}
);
leftKerningGroup = I;
leftMetricsKey = H;
rightKerningGroup = B;
unicode = 0052;
},
{
color = 1;
glyphname = R.001;
lastChange = "2018-06-18 14:45:49 +0000";
layers = (
{
anchors = (
{
name = bottom;
position = "{338, 0}";
},
{
name = top;
position = "{312, 680}";
}
);
background = {
anchors = (
{
name = bottom;
position = "{300, 0}";
},
{
name = top;
position = "{300, 680}";
}
);
components = (
{
name = K;
transform = "{1, 0, 0, 1, -22, 0}";
}
);
};
components = (
{
name = _part.stem.cap;
piece = {
"BPR?" = 1;
};
transform = "{1, 0, 0, 1, -190, 0}";
}
);
guideLines = (
{
position = "{978, 578}";
},
{
position = "{971, 694}";
},
{
angle = 86;
position = "{670, 95}";
}
);
layerId = "977FCFA9-45AC-4A33-B2D7-4D17E6BBF8E0";
paths = (
{
closed = 1;
nodes = (
"263 283 LINE",
"269 280 OFFCURVE",
"342 281 OFFCURVE",
"369 282 CURVE",
"452 291 LINE",
"555 343 OFFCURVE",
"622 442 OFFCURVE",
"592 557 CURVE SMOOTH",
"545 739 OFFCURVE",
"225 692 OFFCURVE",
"27 686 CURVE",
"253 572 LINE",
"407 621 OFFCURVE",
"451 430 OFFCURVE",
"363 384 CURVE",
"340 382 OFFCURVE",
"292 372 OFFCURVE",
"243 391 CURVE"
);
},
{
closed = 1;
nodes = (
"308 321 LINE",
"350 220 OFFCURVE",
"396 69 OFFCURVE",
"445 0 CURVE",
"505 -9 OFFCURVE",
"610 -1 OFFCURVE",
"665 18 CURVE",
"671 43 OFFCURVE",
"673 87 OFFCURVE",
"671 113 CURVE",
"596 117 LINE",
"555 175 OFFCURVE",
"500 260 OFFCURVE",
"440 367 CURVE"
);
}
);
width = 683;
},
{
anchors = (
{
name = bottom;
position = "{332, 0}";
},
{
name = top;
position = "{290, 680}";
}
);
background = {
components = (
{
name = P;
}
);
};
components = (
{
name = _part.stem.cap;
piece = {
"BPR?" = 1;
};
transform = "{1, 0, 0, 1, -119, 0}";
}
);
layerId = "71FD7A9F-05F5-4D76-8D4F-547475A05E4C";
paths = (
{
closed = 1;
nodes = (
"200 295 LINE",
"207 293 OFFCURVE",
"305 292 OFFCURVE",
"332 293 CURVE",
"376 307 LINE",
"469 331 OFFCURVE",
"561 442 OFFCURVE",
"533 553 CURVE SMOOTH",
"504 667 OFFCURVE",
"388 686 OFFCURVE",
"269 686 CURVE SMOOTH",
"203 686 OFFCURVE",
"134 683 OFFCURVE",
"71 679 CURVE",
"218 635 LINE",
"242 641 OFFCURVE",
"264 639 OFFCURVE",
"284 639 CURVE SMOOTH",
"371 639 OFFCURVE",
"433 589 OFFCURVE",
"447 529 CURVE SMOOTH",
"470 434 OFFCURVE",
"423 374 OFFCURVE",
"365 343 CURVE",
"324 338 OFFCURVE",
"255 340 OFFCURVE",
"210 344 CURVE"
);
},
{
closed = 1;
nodes = (
"307 303 LINE",
"415 99 OFFCURVE",
"455 31 OFFCURVE",
"503 -5 CURVE",
"537 0 OFFCURVE",
"579 11 OFFCURVE",
"609 25 CURVE",
"612 36 OFFCURVE",
"614 53 OFFCURVE",
"613 65 CURVE",
"533 65 LINE",
"487 126 OFFCURVE",
"402 264 OFFCURVE",
"368 332 CURVE"
);
}
);
width = 616;
},
{
associatedMasterId = "977FCFA9-45AC-4A33-B2D7-4D17E6BBF8E0";
layerId = "C2672A67-BEF8-46FB-8723-7839228BF894";
name = bubble;
paths = (
{
closed = 1;
nodes = (
"602 194 OFFCURVE",
"572 233 OFFCURVE",
"545 269 CURVE",
"638 344 OFFCURVE",
"675 445 OFFCURVE",
"648 559 CURVE SMOOTH",
"581 837 OFFCURVE",
"233 764 OFFCURVE",
"43 758 CURVE",
"14 604 LINE",
"345 468 LINE",
"346 458 OFFCURVE",
"343 449 OFFCURVE",
"334 443 CURVE",
"311 442 OFFCURVE",
"284 443 OFFCURVE",
"253 456 CURVE",
"144 366 LINE",
"164 267 LINE",
"206 211 LINE",
"219 205 OFFCURVE",
"239 202 OFFCURVE",
"265 201 CURVE",
"320 87 OFFCURVE",
"381 -45 OFFCURVE",
"415 -76 CURVE",
"525 -92 OFFCURVE",
"647 -75 OFFCURVE",
"722 -31 CURVE",
"732 151 LINE",
"630 160 LINE"
);
}
);
width = 669;
}
);
leftKerningGroup = I;
rightKerningGroup = B;
},
{
color = 1;
glyphname = S;
lastChange = "2018-04-04 18:48:39 +0000";
layers = (
{
anchors = (
{
name = bottom;
position = "{190, 0}";
},
{
name = top;
position = "{261, 680}";
}
);
background = {
paths = (
{
closed = 1;
nodes = (
"438 43 OFFCURVE",
"450 179 CURVE SMOOTH",
"459 283 OFFCURVE",
"351 336 OFFCURVE",
"285 369 CURVE SMOOTH",
"184 420 OFFCURVE",
"119 451 OFFCURVE",
"126 529 CURVE SMOOTH",
"136 647 OFFCURVE",
"315 669 OFFCURVE",
"390 600 CURVE",
"395 513 LINE",
"410 513 OFFCURVE",
"427 517 OFFCURVE",
"442 523 CURVE",
"466 646 LINE",
"424 679 OFFCURVE",
"367 690 OFFCURVE",
"290 690 CURVE SMOOTH",
"161 690 OFFCURVE",
"52 630 OFFCURVE",
"41 512 CURVE SMOOTH",
"33 412 OFFCURVE",
"125 357 OFFCURVE",
"195 320 CURVE SMOOTH",
"307 261 OFFCURVE",
"373 240 OFFCURVE",
"366 151 CURVE SMOOTH",
"355 29 OFFCURVE",
"116 11 OFFCURVE",
"66 84 CURVE",
"63 173 LINE",
"47 173 OFFCURVE",
"30 171 OFFCURVE",
"14 165 CURVE",
"-11 38 LINE",
"25 1 OFFCURVE",
"97 -15 OFFCURVE",
"174 -15 CURVE SMOOTH",
"313 -15 OFFCURVE"
);
}
);
};
layerId = "71FD7A9F-05F5-4D76-8D4F-547475A05E4C";
paths = (
{
closed = 1;
nodes = (
"438 43 OFFCURVE",
"450 179 CURVE SMOOTH",
"459 283 OFFCURVE",
"351 336 OFFCURVE",
"285 369 CURVE SMOOTH",
"184 420 OFFCURVE",
"119 451 OFFCURVE",
"126 529 CURVE SMOOTH",
"136 647 OFFCURVE",
"315 669 OFFCURVE",
"390 600 CURVE",
"395 513 LINE",
"410 513 OFFCURVE",
"427 517 OFFCURVE",
"442 523 CURVE",
"466 646 LINE",
"424 679 OFFCURVE",
"367 690 OFFCURVE",
"290 690 CURVE SMOOTH",
"161 690 OFFCURVE",
"52 630 OFFCURVE",
"41 512 CURVE SMOOTH",
"33 412 OFFCURVE",
"125 357 OFFCURVE",
"195 320 CURVE SMOOTH",
"307 261 OFFCURVE",
"373 240 OFFCURVE",
"366 151 CURVE SMOOTH",
"355 29 OFFCURVE",
"116 11 OFFCURVE",
"66 84 CURVE",
"63 173 LINE",
"47 173 OFFCURVE",
"30 171 OFFCURVE",
"14 165 CURVE",
"-11 38 LINE",
"25 1 OFFCURVE",
"97 -15 OFFCURVE",
"174 -15 CURVE SMOOTH",
"313 -15 OFFCURVE"
);
}
);
width = 466;
},
{
anchors = (
{
name = bottom;
position = "{192, 0}";
},
{
name = top;
position = "{324, 680}";
}
);
background = {
paths = (
{
closed = 1;
nodes = (
"567 47 LINE",
"557 53 OFFCURVE",
"541 65 OFFCURVE",
"528 76 CURVE SMOOTH",
"499 100 OFFCURVE",
"440 211 OFFCURVE",
"358 349 CURVE SMOOTH",
"276 487 OFFCURVE",
"254 525 OFFCURVE",
"217 589 CURVE",
"284 589 OFFCURVE",
"402 585 OFFCURVE",
"470 579 CURVE",
"504 511 LINE",
"551 519 LINE",
"517 700 LINE",
"373 700 OFFCURVE",
"196 693 OFFCURVE",
"41 700 CURVE",
"28 650 LINE",
"39 645 OFFCURVE",
"52 635 OFFCURVE",
"69 620 CURVE SMOOTH",
"106 588 OFFCURVE",
"157 525 OFFCURVE",
"264 347 CURVE",
"338 213 OFFCURVE",
"360 172 OFFCURVE",
"386 114 CURVE",
"342 116 OFFCURVE",
"305 118 OFFCURVE",
"262 121 CURVE SMOOTH",
"164 128 OFFCURVE",
"125 143 OFFCURVE",
"111 188 CURVE",
"66 178 LINE",
"101 0 LINE",
"268 0 OFFCURVE",
"396 5 OFFCURVE",
"551 0 CURVE"
);
}
);
};
guideLines = (
{
position = "{-65, 57}";
}
);
layerId = "977FCFA9-45AC-4A33-B2D7-4D17E6BBF8E0";
paths = (
{
closed = 1;
nodes = (
"474 57 OFFCURVE",
"509 114 OFFCURVE",
"518 208 CURVE SMOOTH",
"528 322 OFFCURVE",
"422 374 OFFCURVE",
"332 418 CURVE SMOOTH",
"281 443 OFFCURVE",
"209 477 OFFCURVE",
"202 521 CURVE SMOOTH",
"196 556 OFFCURVE",
"224 586 OFFCURVE",
"271 599 CURVE",
"328 600 OFFCURVE",
"383 596 OFFCURVE",
"419 546 CURVE",
"429 461 LINE",
"498 474 LINE",
"503 503 OFFCURVE",
"521 610 OFFCURVE",
"526 638 CURVE",
"477 683 OFFCURVE",
"387 706 OFFCURVE",
"288 695 CURVE SMOOTH",
"170 682 OFFCURVE",
"78 613 OFFCURVE",
"68 500 CURVE SMOOTH",
"58 381 OFFCURVE",
"163 317 OFFCURVE",
"236 281 CURVE SMOOTH",
"313 243 OFFCURVE",
"368 209 OFFCURVE",
"377 170 CURVE SMOOTH",
"385 136 OFFCURVE",
"343 97 OFFCURVE",
"288 84 CURVE",
"236 81 OFFCURVE",
"176 80 OFFCURVE",
"130 132 CURVE",
"124 219 LINE",
"49 205 LINE",
"44 171 OFFCURVE",
"35 112 OFFCURVE",
"24 43 CURVE",
"90 -20 OFFCURVE",
"260 -40 OFFCURVE",
"384 16 CURVE SMOOTH"
);
}
);
width = 550;
}
);
unicode = 0053;
},
{
color = 1;
glyphname = S.001;
lastChange = "2018-06-18 14:45:49 +0000";
layers = (
{
anchors = (
{
name = bottom;
position = "{276, 0}";
},
{
name = top;
position = "{268, 680}";
}
);
background = {
paths = (
{
closed = 1;
nodes = (
"311 -13 OFFCURVE",
"377 9 OFFCURVE",
"424 46 CURVE SMOOTH",
"471 84 OFFCURVE",
"498 135 OFFCURVE",
"498 196 CURVE SMOOTH",
"498 244 OFFCURVE",
"472 282 OFFCURVE",
"435 313 CURVE SMOOTH",
"396 343 OFFCURVE",
"347 366 OFFCURVE",
"300 391 CURVE SMOOTH",
"261 411 OFFCURVE",
"225 431 OFFCURVE",
"199 453 CURVE SMOOTH",
"172 476 OFFCURVE",
"154 501 OFFCURVE",
"154 534 CURVE SMOOTH",
"154 594 OFFCURVE",
"211 637 OFFCURVE",
"289 637 CURVE SMOOTH",
"385 637 OFFCURVE",
"417 612 OFFCURVE",
"417 538 CURVE SMOOTH",
"417 521 OFFCURVE",
"416 507 OFFCURVE",
"415 497 CURVE",
"413 492 OFFCURVE",
"413 486 OFFCURVE",
"413 482 CURVE",
"420 477 LINE",
"462 481 LINE",
"463 506 OFFCURVE",
"465 529 OFFCURVE",
"468 552 CURVE",
"472 594 OFFCURVE",
"478 629 OFFCURVE",
"485 662 CURVE",
"482 668 LINE",
"468 674 OFFCURVE",
"453 678 OFFCURVE",
"436 681 CURVE",
"407 689 OFFCURVE",
"365 695 OFFCURVE",
"318 695 CURVE SMOOTH",
"249 695 OFFCURVE",
"186 673 OFFCURVE",
"143 637 CURVE SMOOTH",
"99 602 OFFCURVE",
"72 552 OFFCURVE",
"72 496 CURVE SMOOTH",
"72 449 OFFCURVE",
"93 413 OFFCURVE",
"128 385 CURVE SMOOTH",
"161 355 OFFCURVE",
"204 331 OFFCURVE",
"246 308 CURVE SMOOTH",
"288 287 OFFCURVE",
"329 267 OFFCURVE",
"359 243 CURVE SMOOTH",
"389 220 OFFCURVE",
"409 192 OFFCURVE",
"409 157 CURVE SMOOTH",
"409 85 OFFCURVE",
"350 40 OFFCURVE",
"260 40 CURVE SMOOTH",
"201 40 OFFCURVE",
"168 48 OFFCURVE",
"148 75 CURVE SMOOTH",
"126 102 OFFCURVE",
"121 149 OFFCURVE",
"121 226 CURVE",
"73 221 LINE",
"73 194 OFFCURVE",
"72 170 OFFCURVE",
"71 148 CURVE SMOOTH",
"68 103 OFFCURVE",
"64 69 OFFCURVE",
"60 34 CURVE",
"65 24 LINE",
"78 16 OFFCURVE",
"93 11 OFFCURVE",
"111 5 CURVE",
"140 -4 OFFCURVE",
"183 -13 OFFCURVE",
"234 -13 CURVE SMOOTH"
);
}
);
};
layerId = "71FD7A9F-05F5-4D76-8D4F-547475A05E4C";
paths = (
{
closed = 1;
nodes = (
"499 43 OFFCURVE",
"499 179 CURVE SMOOTH",
"499 283 OFFCURVE",
"386 336 OFFCURVE",
"317 369 CURVE SMOOTH",
"212 420 OFFCURVE",
"144 451 OFFCURVE",
"144 529 CURVE SMOOTH",
"144 647 OFFCURVE",
"321 669 OFFCURVE",
"402 600 CURVE",
"415 513 LINE",
"430 513 OFFCURVE",
"446 517 OFFCURVE",
"461 523 CURVE",
"474 646 LINE",
"429 679 OFFCURVE",
"371 690 OFFCURVE",
"294 690 CURVE SMOOTH",
"165 690 OFFCURVE",
"61 630 OFFCURVE",
"61 512 CURVE SMOOTH",
"61 412 OFFCURVE",
"158 357 OFFCURVE",
"232 320 CURVE SMOOTH",
"349 261 OFFCURVE",
"417 240 OFFCURVE",
"417 151 CURVE SMOOTH",
"417 29 OFFCURVE",
"179 11 OFFCURVE",
"123 84 CURVE",
"112 173 LINE",
"96 173 OFFCURVE",
"80 171 OFFCURVE",
"64 165 CURVE",
"50 38 LINE",
"89 1 OFFCURVE",
"163 -15 OFFCURVE",
"240 -15 CURVE SMOOTH",
"379 -15 OFFCURVE"
);
}
);
width = 549;
},
{
anchors = (
{
name = bottom;
position = "{269, 0}";
},
{
name = top;
position = "{269, 680}";
}
);
background = {
components = (
{
name = C;
transform = "{-1, 0, 0, -1, 616, 683}";
}
);
};
layerId = "977FCFA9-45AC-4A33-B2D7-4D17E6BBF8E0";
paths = (
{
closed = 1;
nodes = (
"485 56 OFFCURVE",
"524 127 OFFCURVE",
"524 221 CURVE SMOOTH",
"524 335 OFFCURVE",
"464 375 OFFCURVE",
"310 439 CURVE SMOOTH",
"255 462 OFFCURVE",
"206 485 OFFCURVE",
"206 528 CURVE SMOOTH",
"206 584 OFFCURVE",
"313 583 OFFCURVE",
"346 550 CURVE",
"361 479 LINE",
"394 479 OFFCURVE",
"445 484 OFFCURVE",
"478 492 CURVE",
"492 655 LINE",
"439 700 OFFCURVE",
"339 706 OFFCURVE",
"241 695 CURVE SMOOTH",
"113 679 OFFCURVE",
"32 601 OFFCURVE",
"32 479 CURVE SMOOTH",
"32 355 OFFCURVE",
"105 303 OFFCURVE",
"226 252 CURVE SMOOTH",
"293 223 OFFCURVE",
"353 193 OFFCURVE",
"353 154 CURVE SMOOTH",
"353 98 OFFCURVE",
"238 95 OFFCURVE",
"188 139 CURVE",
"174 237 LINE",
"137 238 OFFCURVE",
"76 236 OFFCURVE",
"42 227 CURVE",
"31 38 LINE",
"102 -25 OFFCURVE",
"307 -25 OFFCURVE",
"397 16 CURVE SMOOTH"
);
}
);
width = 543;
}
);
},
{
color = 8;
glyphname = Germandbls;
lastChange = "2017-09-10 18:25:38 +0000";
layers = (
{
background = {
paths = (
{
closed = 1;
nodes = (
"148 716 OFFCURVE",
"-7 489 OFFCURVE",
"33 235 CURVE SMOOTH",
"59 71 OFFCURVE",
"177 -5 OFFCURVE",
"295 -14 CURVE SMOOTH",
"428 -24 OFFCURVE",
"530 12 OFFCURVE",
"587 51 CURVE",
"587 129 OFFCURVE",
"593 227 OFFCURVE",
"600 249 CURVE SMOOTH",
"609 276 OFFCURVE",
"632 282 OFFCURVE",
"640 282 CURVE",
"644 343 LINE",
"556 340 OFFCURVE",
"511 341 OFFCURVE",
"428 344 CURVE",
"420 285 LINE",
"475 269 LINE",
"474 213 OFFCURVE",
"474 117 OFFCURVE",
"436 76 CURVE",
"317 57 OFFCURVE",
"210 114 OFFCURVE",
"185 271 CURVE SMOOTH",
"153 469 OFFCURVE",
"267 601 OFFCURVE",
"331 628 CURVE",
"413 622 OFFCURVE",
"498 573 OFFCURVE",
"525 536 CURVE",
"530 481 LINE",
"593 492 LINE",
"622 651 LINE",
"588 684 OFFCURVE",
"517 716 OFFCURVE",
"390 716 CURVE SMOOTH"
);
}
);
};
layerId = "71FD7A9F-05F5-4D76-8D4F-547475A05E4C";
paths = (
{
closed = 1;
nodes = (
"394 -82 OFFCURVE",
"561 53 OFFCURVE",
"571 184 CURVE SMOOTH",
"581 331 OFFCURVE",
"503 410 OFFCURVE",
"283 383 CURVE",
"264 346 LINE",
"519 374 OFFCURVE",
"555 116 OFFCURVE",
"399 36 CURVE",
"295 36 LINE",
"282 117 LINE",
"236 106 LINE",
"224 21 LINE"
);
},
{
closed = 1;
nodes = (
"506 652 OFFCURVE",
"412 730 OFFCURVE",
"252 677 CURVE SMOOTH",
"137 639 OFFCURVE",
"74 534 OFFCURVE",
"60 377 CURVE SMOOTH",
"51 267 OFFCURVE",
"42 179 OFFCURVE",
"36 104 CURVE",
"34 80 OFFCURVE",
"47 57 OFFCURVE",
"71 55 CURVE",
"-38 45 LINE",
"-44 0 LINE",
"178 0 LINE",
"187 44 LINE",
"128 55 LINE",
"107 131 OFFCURVE",
"116 158 OFFCURVE",
"134 361 CURVE SMOOTH",
"151 552 OFFCURVE",
"194 598 OFFCURVE",
"250 633 CURVE",
"361 647 OFFCURVE",
"430 594 OFFCURVE",
"442 535 CURVE",
"333 448 OFFCURVE",
"301 429 OFFCURVE",
"243 383 CURVE",
"264 346 LINE",
"301 374 LINE",
"512 532 LINE",
"523 575 LINE"
);
}
);
width = 599;
},
{
background = {
components = (
{
name = N;
transform = "{1, 0, 0, 1, -50, 0}";
}
);
};
layerId = "977FCFA9-45AC-4A33-B2D7-4D17E6BBF8E0";
paths = (
{
closed = 1;
nodes = (
"365 -78 OFFCURVE",
"607 -1 OFFCURVE",
"634 184 CURVE SMOOTH",
"657 354 OFFCURVE",
"492 417 OFFCURVE",
"317 372 CURVE",
"288 320 LINE",
"469 320 OFFCURVE",
"508 162 OFFCURVE",
"441 76 CURVE",
"327 77 LINE",
"314 156 LINE",
"249 146 LINE",
"236 39 LINE"
);
},
{
closed = 1;
nodes = (
"549 714 OFFCURVE",
"310 743 OFFCURVE",
"175 645 CURVE SMOOTH",
"112 599 OFFCURVE",
"62 534 OFFCURVE",
"50 375 CURVE SMOOTH",
"42 265 OFFCURVE",
"34 193 OFFCURVE",
"30 118 CURVE SMOOTH",
"29 94 OFFCURVE",
"50 78 OFFCURVE",
"69 75 CURVE",
"-36 64 LINE",
"-45 0 LINE",
"197 0 LINE",
"209 65 LINE",
"168 74 LINE",
"183 275 OFFCURVE",
"189 345 OFFCURVE",
"193 389 CURVE SMOOTH",
"205 534 OFFCURVE",
"237 577 OFFCURVE",
"268 596 CURVE",
"354 596 OFFCURVE",
"411 562 OFFCURVE",
"431 528 CURVE",
"354 472 OFFCURVE",
"275 414 OFFCURVE",
"250 391 CURVE",
"287 319 LINE",
"345 372 LINE",
"559 522 LINE",
"571 579 LINE"
);
}
);
width = 633;
}
);
rightKerningGroup = B;
unicode = 1E9E;
},
{
color = 8;
glyphname = T;
lastChange = "2017-09-10 18:25:38 +0000";
layers = (
{
anchors = (
{
name = bottom;
position = "{262, 0}";
},
{
name = center;
position = "{298, 340}";
},
{
name = top;
position = "{333, 680}";
}
);
components = (
{
name = _part.stem.cap;
transform = "{1, 0, -0.0171, 1, 122, 0}";
}
);
guideLines = (
{
position = "{431, 746}";
},
{
position = "{418, 865}";
}
);
layerId = "71FD7A9F-05F5-4D76-8D4F-547475A05E4C";
paths = (
{
closed = 1;
nodes = (
"410 625 OFFCURVE",
"481 619 OFFCURVE",
"539 611 CURVE",
"547 533 LINE",
"594 539 LINE",
"609 687 LINE",
"417 676 OFFCURVE",
"237 677 OFFCURVE",
"57 687 CURVE",
"43 538 LINE",
"91 532 LINE",
"102 575 OFFCURVE",
"105 586 OFFCURVE",
"113 612 CURVE",
"135 620 OFFCURVE",
"190 621 OFFCURVE",
"255 624 CURVE",
"375 624 LINE"
);
}
);
width = 573;
},
{
anchors = (
{
name = bottom;
position = "{312, 0}";
},
{
name = center;
position = "{326, 350}";
},
{
name = top;
position = "{355, 680}";
}
);
background = {
components = (
{
name = H;
transform = "{1, 0, 0, 1, -64, 0}";
}
);
};
components = (
{
name = _part.stem.cap;
transform = "{1, 0, 0, 1, -33, 0}";
}
);
guideLines = (
{
position = "{412, 637}";
},
{
position = "{582, 535}";
}
);
layerId = "977FCFA9-45AC-4A33-B2D7-4D17E6BBF8E0";
paths = (
{
closed = 1;
nodes = (
"449 595 OFFCURVE",
"502 592 OFFCURVE",
"541 585 CURVE",
"554 499 LINE",
"622 509 LINE",
"640 689 LINE",
"469 679 OFFCURVE",
"241 678 OFFCURVE",
"57 688 CURVE",
"42 509 LINE",
"110 499 LINE",
"121 535 OFFCURVE",
"126 559 OFFCURVE",
"137 589 CURVE",
"172 594 OFFCURVE",
"224 596 OFFCURVE",
"281 595 CURVE",
"414 594 LINE"
);
}
);
width = 604;
}
);
leftKerningGroup = T;
rightKerningGroup = T;
unicode = 0054;
},
{
color = 1;
glyphname = T.001;
lastChange = "2018-06-18 14:45:49 +0000";
layers = (
{
anchors = (
{
name = bottom;
position = "{319, 0}";
},
{
name = center;
position = "{313, 350}";
},
{
name = top;
position = "{319, 680}";
}
);
components = (
{
name = _part.stem.cap;
transform = "{1, 0, 0, 1, -62, 0}";
}
);
layerId = "977FCFA9-45AC-4A33-B2D7-4D17E6BBF8E0";
paths = (
{
closed = 1;
nodes = (
"480 559 LINE",
"500 458 LINE",
"528 456 OFFCURVE",
"593 460 OFFCURVE",
"619 468 CURVE",
"622 695 LINE",
"452 685 OFFCURVE",
"204 684 OFFCURVE",
"19 694 CURVE",
"19 468 LINE",
"45 460 OFFCURVE",
"104 456 OFFCURVE",
"134 458 CURVE",
"153 563 LINE",
"261 569 LINE",
"394 568 LINE"
);
}
);
width = 640;
},
{
anchors = (
{
name = bottom;
position = "{283, 0}";
},
{
name = center;
position = "{283, 350}";
},
{
name = top;
position = "{283, 680}";
}
);
background = {
components = (
{
name = F;
transform = "{-1, 0, 0, 1, 499, 0}";
}
);
};
components = (
{
name = _part.stem.cap;
transform = "{1, 0, 0, 1, -13, 0}";
}
);
guideLines = (
{
angle = 85;
position = "{-7, 348}";
}
);
layerId = "71FD7A9F-05F5-4D76-8D4F-547475A05E4C";
paths = (
{
closed = 1;
nodes = (
"370 626 OFFCURVE",
"430 629 OFFCURVE",
"489 621 CURVE",
"516 533 LINE",
"531 533 OFFCURVE",
"546 535 OFFCURVE",
"561 539 CURVE",
"563 683 LINE",
"470 681 OFFCURVE",
"379 680 OFFCURVE",
"290 680 CURVE SMOOTH",
"196 680 OFFCURVE",
"104 679 OFFCURVE",
"11 683 CURVE",
"10 538 LINE",
"25 534 OFFCURVE",
"42 532 OFFCURVE",
"59 532 CURVE",
"80 619 LINE",
"115 623 OFFCURVE",
"156 624 OFFCURVE",
"215 624 CURVE",
"335 625 LINE"
);
}
);
width = 573;
},
{
associatedMasterId = "977FCFA9-45AC-4A33-B2D7-4D17E6BBF8E0";
layerId = "3E977C83-94CB-4442-A360-2779AD70A990";
name = bubble;
paths = (
{
closed = 1;
nodes = (
"421 513 OFFCURVE",
"430 513 OFFCURVE",
"438 512 CURVE",
"462 409 LINE",
"669 440 LINE",
"674 775 LINE",
"472 757 OFFCURVE",
"142 756 OFFCURVE",
"-70 774 CURVE",
"-70 440 LINE",
"139 409 LINE",
"152 458 OFFCURVE",
"159 490 OFFCURVE",
"164 514 CURVE",
"187 515 OFFCURVE",
"213 516 OFFCURVE",
"241 515 CURVE SMOOTH",
"413 514 LINE SMOOTH"
);
}
);
width = 603;
}
);
leftKerningGroup = T;
rightKerningGroup = T;
},
{
color = 8;
glyphname = U;
lastChange = "2017-09-10 18:57:27 +0000";
layers = (
{
anchors = (
{
name = bottom;
position = "{345, 0}";
},
{
name = ogonek;
position = "{435, 10}";
},
{
name = top;
position = "{416, 680}";
},
{
name = topright;
position = "{735, 680}";
}
);
layerId = "71FD7A9F-05F5-4D76-8D4F-547475A05E4C";
paths = (
{
closed = 1;
nodes = (
"515 636 LINE",
"592 626 LINE",
"604 598 OFFCURVE",
"590 486 OFFCURVE",
"574 304 CURVE SMOOTH",
"561 154 OFFCURVE",
"511 78 OFFCURVE",
"428 49 CURVE",
"267 40 OFFCURVE",
"203 114 OFFCURVE",
"216 253 CURVE SMOOTH",
"221 318 OFFCURVE",
"242 537 OFFCURVE",
"247 591 CURVE SMOOTH",
"249 613 OFFCURVE",
"217 625 OFFCURVE",
"207 627 CURVE",
"246 629 OFFCURVE",
"293 635 OFFCURVE",
"315 636 CURVE",
"323 679 LINE",
"95 680 LINE",
"87 636 LINE",
"151 625 LINE",
"160 590 OFFCURVE",
"136 374 OFFCURVE",
"127 265 CURVE SMOOTH",
"120 184 OFFCURVE",
"129 109 OFFCURVE",
"159 64 CURVE SMOOTH",
"216 -23 OFFCURVE",
"357 -38 OFFCURVE",
"463 2 CURVE SMOOTH",
"560 39 OFFCURVE",
"622 138 OFFCURVE",
"635 281 CURVE SMOOTH",
"647 418 OFFCURVE",
"659 555 OFFCURVE",
"666 622 CURVE",
"733 636 LINE",
"740 680 LINE",
"523 680 LINE"
);
}
);
width = 709;
},
{
anchors = (
{
name = bottom;
position = "{291, 0}";
},
{
name = ogonek;
position = "{398, 12}";
},
{
name = top;
position = "{424, 680}";
},
{
name = topright;
position = "{753, 700}";
}
);
background = {
paths = (
{
closed = 1;
nodes = (
"49 87 LINE",
"49 169 OFFCURVE",
"49 610 OFFCURVE",
"49 617 CURVE SMOOTH",
"49 628 OFFCURVE",
"49 642 OFFCURVE",
"49 650 CURVE",
"49 650 LINE",
"49 700 LINE",
"49 700 LINE",
"49 653 LINE",
"49 645 LINE",
"49 613 OFFCURVE",
"49 448 OFFCURVE",
"49 327 CURVE SMOOTH",
"49 220 OFFCURVE",
"49 44 OFFCURVE",
"49 0 CURVE"
);
}
);
};
layerId = "977FCFA9-45AC-4A33-B2D7-4D17E6BBF8E0";
paths = (
{
closed = 1;
nodes = (
"494 616 LINE",
"577 605 LINE",
"589 577 OFFCURVE",
"580 480 OFFCURVE",
"563 304 CURVE SMOOTH",
"550 169 OFFCURVE",
"493 117 OFFCURVE",
"453 91 CURVE",
"311 73 OFFCURVE",
"258 155 OFFCURVE",
"271 301 CURVE SMOOTH",
"277 368 OFFCURVE",
"288 459 OFFCURVE",
"298 574 CURVE SMOOTH",
"299 591 OFFCURVE",
"274 604 OFFCURVE",
"261 606 CURVE",
"299 610 OFFCURVE",
"337 613 OFFCURVE",
"362 615 CURVE",
"373 679 LINE",
"78 679 LINE",
"67 616 LINE",
"131 608 LINE",
"140 573 OFFCURVE",
"116 374 OFFCURVE",
"107 265 CURVE SMOOTH",
"100 184 OFFCURVE",
"118 114 OFFCURVE",
"149 69 CURVE SMOOTH",
"206 -17 OFFCURVE",
"379 -45 OFFCURVE",
"485 2 CURVE SMOOTH",
"571 40 OFFCURVE",
"649 125 OFFCURVE",
"662 272 CURVE SMOOTH",
"674 409 OFFCURVE",
"687 537 OFFCURVE",
"697 604 CURVE",
"764 615 LINE",
"775 680 LINE",
"504 680 LINE"
);
}
);
width = 739;
}
);
leftMetricsKey = H;
rightKerningGroup = U;
unicode = 0055;
},
{
color = 1;
glyphname = U.001;
lastChange = "2018-06-18 14:45:50 +0000";
layers = (
{
anchors = (
{
name = bottom;
position = "{347, 0}";
},
{
name = ogonek;
position = "{442, 10}";
},
{
name = top;
position = "{354, 680}";
},
{
name = topright;
position = "{677, 700}";
}
);
guideLines = (
{
angle = 86;
position = "{721, 233}";
},
{
angle = 86;
position = "{485, 329}";
}
);
layerId = "977FCFA9-45AC-4A33-B2D7-4D17E6BBF8E0";
paths = (
{
closed = 1;
nodes = (
"398 659 OFFCURVE",
"395 607 OFFCURVE",
"396 581 CURVE",
"482 571 LINE",
"496 543 OFFCURVE",
"495 486 OFFCURVE",
"494 304 CURVE SMOOTH",
"493 177 OFFCURVE",
"465 142 OFFCURVE",
"429 116 CURVE",
"289 98 OFFCURVE",
"270 176 OFFCURVE",
"272 326 CURVE SMOOTH",
"273 393 OFFCURVE",
"275 420 OFFCURVE",
"275 535 CURVE SMOOTH",
"275 555 OFFCURVE",
"254 569 OFFCURVE",
"235 572 CURVE",
"334 581 LINE",
"339 607 OFFCURVE",
"342 660 OFFCURVE",
"341 686 CURVE",
"18 686 LINE",
"13 660 OFFCURVE",
"10 607 OFFCURVE",
"11 581 CURVE",
"75 574 LINE",
"87 539 OFFCURVE",
"81 379 OFFCURVE",
"81 270 CURVE SMOOTH",
"81 65 OFFCURVE",
"157 -28 OFFCURVE",
"366 -21 CURVE SMOOTH",
"534 -15 OFFCURVE",
"622 88 OFFCURVE",
"622 272 CURVE SMOOTH",
"622 409 OFFCURVE",
"624 503 OFFCURVE",
"628 570 CURVE",
"692 581 LINE",
"697 607 OFFCURVE",
"700 659 OFFCURVE",
"699 686 CURVE",
"403 686 LINE"
);
}
);
width = 709;
},
{
anchors = (
{
name = bottom;
position = "{318, 0}";
},
{
name = ogonek;
position = "{458, 10}";
},
{
name = top;
position = "{340, 680}";
},
{
name = topright;
position = "{648, 700}";
}
);
background = {
paths = (
{
closed = 1;
nodes = (
"194 626 LINE",
"271 633 LINE",
"275 680 LINE",
"50 680 LINE",
"44 635 LINE",
"114 620 LINE",
"114 222 LINE SMOOTH",
"114 72 OFFCURVE",
"196 -13 OFFCURVE",
"346 -13 CURVE SMOOTH",
"513 -13 OFFCURVE",
"609 71 OFFCURVE",
"609 221 CURVE SMOOTH",
"609 621 LINE",
"681 633 LINE",
"687 680 LINE",
"464 679 LINE",
"461 632 LINE",
"551 623 LINE",
"551 561 OFFCURVE",
"551 444 OFFCURVE",
"550 227 CURVE SMOOTH",
"549 109 OFFCURVE",
"487 48 OFFCURVE",
"372 48 CURVE SMOOTH",
"257 48 OFFCURVE",
"194 124 OFFCURVE",
"194 265 CURVE SMOOTH"
);
}
);
};
guideLines = (
{
angle = 85;
position = "{431, 371}";
}
);
layerId = "71FD7A9F-05F5-4D76-8D4F-547475A05E4C";
paths = (
{
closed = 1;
nodes = (
"459 665 OFFCURVE",
"457 648 OFFCURVE",
"458 633 CURVE",
"537 623 LINE",
"546 605 OFFCURVE",
"548 561 OFFCURVE",
"548 479 CURVE SMOOTH",
"548 432 OFFCURVE",
"547 351 OFFCURVE",
"547 285 CURVE SMOOTH",
"547 146 OFFCURVE",
"522 85 OFFCURVE",
"424 49 CURVE",
"273 47 OFFCURVE",
"196 97 OFFCURVE",
"196 249 CURVE SMOOTH",
"196 422 OFFCURVE",
"199 534 OFFCURVE",
"199 588 CURVE SMOOTH",
"199 610 OFFCURVE",
"172 622 OFFCURVE",
"162 624 CURVE",
"200 626 OFFCURVE",
"253 633 OFFCURVE",
"275 634 CURVE",
"278 648 OFFCURVE",
"281 666 OFFCURVE",
"280 680 CURVE",
"51 680 LINE",
"48 665 OFFCURVE",
"46 650 OFFCURVE",
"47 635 CURVE",
"111 621 LINE",
"116 601 OFFCURVE",
"115 531 OFFCURVE",
"115 452 CURVE SMOOTH",
"115 386 OFFCURVE",
"114 295 OFFCURVE",
"114 245 CURVE SMOOTH",
"114 75 OFFCURVE",
"181 -14 OFFCURVE",
"351 -14 CURVE SMOOTH",
"481 -14 OFFCURVE",
"578 41 OFFCURVE",
"603 166 CURVE SMOOTH",
"609 196 OFFCURVE",
"611 243 OFFCURVE",
"611 283 CURVE SMOOTH",
"611 420 OFFCURVE",
"611 555 OFFCURVE",
"612 622 CURVE",
"677 633 LINE",
"680 648 OFFCURVE",
"682 665 OFFCURVE",
"681 680 CURVE",
"462 680 LINE"
);
}
);
width = 697;
}
);
rightKerningGroup = U;
},
{
color = 8;
glyphname = V;
lastChange = "2017-09-10 18:25:38 +0000";
layers = (
{
layerId = "71FD7A9F-05F5-4D76-8D4F-547475A05E4C";
paths = (
{
closed = 1;
nodes = (
"356 71 LINE",
"302 281 OFFCURVE",
"219 581 OFFCURVE",
"217 591 CURVE SMOOTH",
"212 613 OFFCURVE",
"192 624 OFFCURVE",
"170 626 CURVE",
"268 635 LINE",
"276 680 LINE",
"65 680 LINE",
"57 635 LINE",
"111 625 LINE",
"124 593 OFFCURVE",
"168 442 OFFCURVE",
"201 321 CURVE SMOOTH",
"231 209 OFFCURVE",
"275 63 OFFCURVE",
"297 -7 CURVE"
);
},
{
closed = 1;
nodes = (
"575 594 OFFCURVE",
"515 462 OFFCURVE",
"495 412 CURVE SMOOTH",
"406 199 OFFCURVE",
"324 37 OFFCURVE",
"297 -7 CURVE",
"368 4 LINE",
"489 268 OFFCURVE",
"602 518 OFFCURVE",
"649 622 CURVE",
"713 635 LINE",
"721 680 LINE",
"502 680 LINE",
"493 635 LINE",
"569 626 LINE"
);
}
);
width = 675;
},
{
background = {
paths = (
{
closed = 1;
nodes = (
"789 193 LINE",
"759 344 OFFCURVE",
"704 594 OFFCURVE",
"702 605 CURVE SMOOTH",
"698 634 OFFCURVE",
"711 650 OFFCURVE",
"744 650 CURVE",
"749 700 LINE",
"506 700 LINE",
"497 653 LINE",
"544 643 LINE",
"585 519 OFFCURVE",
"643 278 OFFCURVE",
"709 0 CURVE",
"711 0 LINE",
"810 58 LINE"
);
},
{
closed = 1;
nodes = (
"553 424 OFFCURVE",
"510 304 OFFCURVE",
"467 193 CURVE",
"443 349 OFFCURVE",
"387 613 OFFCURVE",
"384 618 CURVE SMOOTH",
"378 629 OFFCURVE",
"368 641 OFFCURVE",
"346 651 CURVE",
"427 651 LINE",
"432 700 LINE",
"189 700 LINE",
"180 653 LINE",
"231 647 LINE",
"264 569 OFFCURVE",
"364 110 OFFCURVE",
"383 0 CURVE",
"488 0 LINE",
"658 511 LINE",
"591 538 LINE"
);
},
{
closed = 1;
nodes = (
"920 614 OFFCURVE",
"890 518 OFFCURVE",
"874 468 CURVE SMOOTH",
"756 87 OFFCURVE",
"755 75 OFFCURVE",
"709 0 CURVE",
"813 0 LINE",
"903 276 OFFCURVE",
"990 534 OFFCURVE",
"1009 580 CURVE SMOOTH",
"1034 640 OFFCURVE",
"1073 650 OFFCURVE",
"1099 650 CURVE",
"1104 700 LINE",
"858 700 LINE",
"849 653 LINE",
"912 644 LINE"
);
}
);
};
layerId = "977FCFA9-45AC-4A33-B2D7-4D17E6BBF8E0";
paths = (
{
closed = 1;
nodes = (
"413 117 LINE",
"399 189 OFFCURVE",
"299 561 OFFCURVE",
"296 571 CURVE SMOOTH",
"291 593 OFFCURVE",
"268 604 OFFCURVE",
"247 606 CURVE",
"344 615 LINE",
"355 680 LINE",
"60 680 LINE",
"49 615 LINE",
"114 605 LINE",
"128 573 OFFCURVE",
"172 442 OFFCURVE",
"204 321 CURVE SMOOTH",
"233 209 OFFCURVE",
"279 65 OFFCURVE",
"295 -8 CURVE"
);
},
{
closed = 1;
nodes = (
"590 574 OFFCURVE",
"539 463 OFFCURVE",
"519 412 CURVE SMOOTH",
"380 66 OFFCURVE",
"322 36 OFFCURVE",
"295 -8 CURVE",
"438 4 LINE",
"557 274 OFFCURVE",
"654 496 OFFCURVE",
"709 598 CURVE",
"778 615 LINE",
"789 680 LINE",
"519 680 LINE",
"508 615 LINE",
"584 606 LINE"
);
}
);
width = 753;
}
);
leftKerningGroup = V;
rightKerningGroup = V;
unicode = 0056;
},
{
color = 1;
glyphname = V.001;
lastChange = "2018-06-18 14:45:50 +0000";
layers = (
{
anchors = (
{
name = bottom;
position = "{372, 0}";
},
{
name = bottom_;
position = "{372, 0}";
},
{
name = top;
position = "{372, 680}";
}
);
background = {
components = (
{
name = W;
transform = "{1, 0, 0, 1, 28, 0}";
}
);
};
guideLines = (
{
position = "{1082, 225}";
},
{
angle = 86;
position = "{696, 338}";
}
);
layerId = "977FCFA9-45AC-4A33-B2D7-4D17E6BBF8E0";
paths = (
{
closed = 1;
nodes = (
"418 142 LINE",
"403 195 OFFCURVE",
"341 389 OFFCURVE",
"308 492 CURVE SMOOTH",
"296 529 OFFCURVE",
"293 534 OFFCURVE",
"292 537 CURVE SMOOTH",
"285 559 OFFCURVE",
"261 570 OFFCURVE",
"239 572 CURVE",
"343 581 LINE",
"348 608 OFFCURVE",
"351 659 OFFCURVE",
"350 686 CURVE",
"19 686 LINE",
"14 659 OFFCURVE",
"10 608 OFFCURVE",
"11 581 CURVE",
"70 571 LINE",
"79 553 OFFCURVE",
"90 533 OFFCURVE",
"114 479 CURVE SMOOTH",
"133 434 OFFCURVE",
"155 380 OFFCURVE",
"174 321 CURVE SMOOTH",
"210 209 OFFCURVE",
"266 65 OFFCURVE",
"288 -8 CURVE"
);
},
{
closed = 1;
nodes = (
"489 553 OFFCURVE",
"484 534 OFFCURVE",
"472 494 CURVE SMOOTH",
"463 468 OFFCURVE",
"454 442 OFFCURVE",
"448 422 CURVE SMOOTH",
"340 76 OFFCURVE",
"311 36 OFFCURVE",
"288 -8 CURVE",
"337 -7 OFFCURVE",
"396 -3 OFFCURVE",
"443 4 CURVE",
"514 204 OFFCURVE",
"571 370 OFFCURVE",
"614 484 CURVE SMOOTH",
"629 524 OFFCURVE",
"637 538 OFFCURVE",
"649 565 CURVE",
"716 581 LINE",
"721 608 OFFCURVE",
"725 659 OFFCURVE",
"724 686 CURVE",
"407 686 LINE",
"402 659 OFFCURVE",
"399 608 OFFCURVE",
"400 581 CURVE",
"484 572 LINE"
);
}
);
width = 734;
},
{
anchors = (
{
name = bottom;
position = "{314, -1}";
},
{
name = top;
position = "{314, 680}";
}
);
background = {
paths = (
{
closed = 1;
nodes = (
"105 503 OFFCURVE",
"127 433 OFFCURVE",
"150 364 CURVE SMOOTH",
"193 225 OFFCURVE",
"230 105 OFFCURVE",
"267 -18 CURVE",
"336 5 LINE",
"566 583 LINE SMOOTH",
"573 603 OFFCURVE",
"581 615 OFFCURVE",
"590 623 CURVE",
"600 631 OFFCURVE",
"615 633 OFFCURVE",
"636 634 CURVE",
"645 684 LINE",
"631 683 OFFCURVE",
"618 683 OFFCURVE",
"605 682 CURVE SMOOTH",
"594 681 OFFCURVE",
"581 681 OFFCURVE",
"567 681 CURVE SMOOTH",
"553 681 OFFCURVE",
"540 681 OFFCURVE",
"527 681 CURVE SMOOTH",
"509 681 OFFCURVE",
"492 681 OFFCURVE",
"474 682 CURVE",
"437 682 OFFCURVE",
"405 685 OFFCURVE",
"374 689 CURVE",
"368 643 LINE",
"370 638 LINE",
"426 638 LINE SMOOTH",
"478 638 OFFCURVE",
"499 626 OFFCURVE",
"499 596 CURVE SMOOTH",
"499 590 OFFCURVE",
"496 577 OFFCURVE",
"491 558 CURVE",
"484 538 OFFCURVE",
"476 514 OFFCURVE",
"466 485 CURVE",
"445 429 OFFCURVE",
"419 357 OFFCURVE",
"394 289 CURVE SMOOTH",
"367 219 OFFCURVE",
"340 151 OFFCURVE",
"322 104 CURVE",
"312 104 LINE",
"287 189 OFFCURVE",
"264 267 OFFCURVE",
"245 338 CURVE SMOOTH",
"236 368 OFFCURVE",
"228 398 OFFCURVE",
"220 427 CURVE SMOOTH",
"203 485 OFFCURVE",
"191 535 OFFCURVE",
"184 568 CURVE",
"180 584 OFFCURVE",
"178 595 OFFCURVE",
"178 599 CURVE SMOOTH",
"178 615 OFFCURVE",
"184 626 OFFCURVE",
"197 631 CURVE SMOOTH",
"210 636 OFFCURVE",
"235 641 OFFCURVE",
"273 644 CURVE",
"277 685 LINE",
"274 693 LINE",
"253 691 OFFCURVE",
"234 689 OFFCURVE",
"215 687 CURVE SMOOTH",
"182 683 OFFCURVE",
"142 681 OFFCURVE",
"113 681 CURVE SMOOTH",
"104 681 OFFCURVE",
"93 681 OFFCURVE",
"79 681 CURVE SMOOTH",
"65 681 OFFCURVE",
"51 681 OFFCURVE",
"37 682 CURVE SMOOTH",
"21 683 OFFCURVE",
"5 683 OFFCURVE",
"-11 684 CURVE",
"-18 638 LINE",
"-16 634 LINE",
"40 633 OFFCURVE",
"70 615 OFFCURVE",
"82 573 CURVE SMOOTH"
);
}
);
};
guideLines = (
{
angle = 85;
position = "{413, 503}";
}
);
layerId = "71FD7A9F-05F5-4D76-8D4F-547475A05E4C";
paths = (
{
closed = 1;
nodes = (
"329 72 LINE",
"271 282 OFFCURVE",
"183 581 OFFCURVE",
"180 591 CURVE SMOOTH",
"173 613 OFFCURVE",
"152 624 OFFCURVE",
"130 626 CURVE",
"239 635 LINE",
"242 650 OFFCURVE",
"244 665 OFFCURVE",
"243 680 CURVE",
"4 680 LINE",
"1 665 OFFCURVE",
"-1 650 OFFCURVE",
"0 635 CURVE",
"63 625 LINE",
"79 593 OFFCURVE",
"134 442 OFFCURVE",
"170 321 CURVE SMOOTH",
"203 209 OFFCURVE",
"252 57 OFFCURVE",
"277 -16 CURVE"
);
},
{
closed = 1;
nodes = (
"499 623 OFFCURVE",
"499 620 OFFCURVE",
"499 616 CURVE SMOOTH",
"499 573 OFFCURVE",
"453 458 OFFCURVE",
"438 412 CURVE SMOOTH",
"368 201 OFFCURVE",
"300 28 OFFCURVE",
"277 -16 CURVE",
"301 -12 OFFCURVE",
"324 -4 OFFCURVE",
"347 8 CURVE",
"445 272 OFFCURVE",
"538 518 OFFCURVE",
"576 622 CURVE",
"637 635 LINE",
"640 650 OFFCURVE",
"642 665 OFFCURVE",
"641 680 CURVE",
"415 680 LINE",
"411 666 OFFCURVE",
"410 651 OFFCURVE",
"410 635 CURVE",
"498 626 LINE"
);
}
);
width = 641;
}
);
leftKerningGroup = V;
rightKerningGroup = V;
},
{
color = 8;
glyphname = W;
lastChange = "2017-09-10 18:25:38 +0000";
layers = (
{
layerId = "71FD7A9F-05F5-4D76-8D4F-547475A05E4C";
paths = (
{
closed = 1;
nodes = (
"767 635 LINE",
"850 626 LINE",
"856 594 OFFCURVE",
"812 464 OFFCURVE",
"793 412 CURVE SMOOTH",
"738 270 OFFCURVE",
"704 181 OFFCURVE",
"681 123 CURVE",
"658 222 OFFCURVE",
"569 581 OFFCURVE",
"561 622 CURVE",
"652 635 LINE",
"660 680 LINE",
"413 680 LINE",
"405 635 LINE",
"475 625 LINE",
"479 614 OFFCURVE",
"486 587 OFFCURVE",
"494 552 CURVE",
"477 497 OFFCURVE",
"445 419 OFFCURVE",
"430 382 CURVE SMOOTH",
"381 261 OFFCURVE",
"346 179 OFFCURVE",
"321 123 CURVE",
"304 204 OFFCURVE",
"221 582 OFFCURVE",
"218 592 CURVE SMOOTH",
"214 606 OFFCURVE",
"203 618 OFFCURVE",
"176 626 CURVE",
"288 636 LINE",
"296 680 LINE",
"66 680 LINE",
"58 636 LINE",
"114 626 LINE",
"128 594 OFFCURVE",
"163 442 OFFCURVE",
"194 321 CURVE SMOOTH",
"222 209 OFFCURVE",
"254 37 OFFCURVE",
"265 -7 CURVE",
"328 7 LINE",
"418 226 OFFCURVE",
"483 383 OFFCURVE",
"514 465 CURVE",
"525 418 OFFCURVE",
"538 367 OFFCURVE",
"550 321 CURVE SMOOTH",
"561 279 OFFCURVE",
"616 58 OFFCURVE",
"631 -5 CURVE",
"694 9 LINE",
"836 384 OFFCURVE",
"910 577 OFFCURVE",
"935 624 CURVE",
"997 635 LINE",
"1005 680 LINE",
"775 680 LINE"
);
}
);
width = 959;
},
{
anchors = (
{
name = bottom;
position = "{434, 0}";
},
{
name = top;
position = "{593, 680}";
}
);
guideLines = (
{
position = "{690, 177}";
}
);
layerId = "977FCFA9-45AC-4A33-B2D7-4D17E6BBF8E0";
paths = (
{
closed = 1;
nodes = (
"762 615 LINE",
"837 606 LINE",
"843 577 OFFCURVE",
"802 465 OFFCURVE",
"783 412 CURVE SMOOTH",
"756 339 OFFCURVE",
"728 267 OFFCURVE",
"701 194 CURVE",
"672 344 OFFCURVE",
"620 591 OFFCURVE",
"619 599 CURVE",
"709 615 LINE",
"720 680 LINE",
"396 680 LINE",
"385 615 LINE",
"461 605 LINE",
"465 594 OFFCURVE",
"471 570 OFFCURVE",
"479 540 CURVE",
"464 493 OFFCURVE",
"445 440 OFFCURVE",
"433 412 CURVE SMOOTH",
"399 331 OFFCURVE",
"372 268 OFFCURVE",
"351 217 CURVE",
"325 343 OFFCURVE",
"284 539 OFFCURVE",
"282 547 CURVE SMOOTH",
"277 568 OFFCURVE",
"265 598 OFFCURVE",
"239 606 CURVE",
"334 615 LINE",
"344 680 LINE",
"60 680 LINE",
"49 615 LINE",
"100 605 LINE",
"115 572 OFFCURVE",
"149 441 OFFCURVE",
"177 321 CURVE SMOOTH",
"202 209 OFFCURVE",
"239 35 OFFCURVE",
"249 -9 CURVE",
"361 6 LINE",
"422 164 OFFCURVE",
"474 307 OFFCURVE",
"511 407 CURVE",
"518 379 OFFCURVE",
"525 350 OFFCURVE",
"533 321 CURVE SMOOTH",
"562 210 OFFCURVE",
"593 37 OFFCURVE",
"604 -7 CURVE",
"720 7 LINE",
"868 407 OFFCURVE",
"947 553 OFFCURVE",
"969 601 CURVE",
"1025 615 LINE",
"1036 680 LINE",
"773 680 LINE"
);
}
);
width = 1000;
}
);
leftKerningGroup = V;
rightKerningGroup = V;
unicode = 0057;
},
{
color = 1;
glyphname = W.001;
lastChange = "2018-06-18 14:45:50 +0000";
layers = (
{
anchors = (
{
name = bottom;
position = "{509, 0}";
},
{
name = top;
position = "{509, 680}";
}
);
background = {
components = (
{
name = V;
transform = "{1, 0, 0, 1, 295, 0}";
}
);
};
guideLines = (
{
position = "{1443, 214}";
},
{
angle = 70;
position = "{814, 288}";
},
{
angle = 86;
position = "{974, 387}";
}
);
layerId = "977FCFA9-45AC-4A33-B2D7-4D17E6BBF8E0";
paths = (
{
closed = 1;
nodes = (
"63 570 LINE",
"105 484 OFFCURVE",
"114 453 OFFCURVE",
"156 317 CURVE SMOOTH",
"190 205 OFFCURVE",
"238 35 OFFCURVE",
"252 -9 CURVE",
"300 -7 OFFCURVE",
"365 -2 OFFCURVE",
"413 6 CURVE",
"445 107 OFFCURVE",
"466 138 OFFCURVE",
"494 233 CURVE",
"537 107 OFFCURVE",
"557 57 OFFCURVE",
"580 -7 CURVE",
"629 -5 OFFCURVE",
"693 -1 OFFCURVE",
"742 7 CURVE",
"807 232 OFFCURVE",
"888 497 OFFCURVE",
"929 570 CURVE",
"988 581 LINE",
"993 608 OFFCURVE",
"996 659 OFFCURVE",
"995 686 CURVE",
"704 686 LINE",
"699 659 OFFCURVE",
"696 608 OFFCURVE",
"697 581 CURVE",
"774 570 LINE",
"779 554 OFFCURVE",
"758 482 OFFCURVE",
"737 408 CURVE SMOOTH",
"710 317 OFFCURVE",
"697 275 OFFCURVE",
"682 222 CURVE",
"655 330 OFFCURVE",
"613 496 OFFCURVE",
"597 570 CURVE",
"666 581 LINE",
"670 608 OFFCURVE",
"674 659 OFFCURVE",
"674 686 CURVE",
"342 686 LINE",
"338 659 OFFCURVE",
"335 608 OFFCURVE",
"335 581 CURVE",
"393 570 LINE",
"446 400 LINE",
"374 220 LINE",
"342 332 OFFCURVE",
"314 443 OFFCURVE",
"287 533 CURVE SMOOTH",
"281 553 OFFCURVE",
"265 564 OFFCURVE",
"238 572 CURVE",
"302 581 LINE",
"306 608 OFFCURVE",
"309 659 OFFCURVE",
"309 686 CURVE",
"18 686 LINE",
"13 659 OFFCURVE",
"10 608 OFFCURVE",
"11 581 CURVE"
);
}
);
width = 1005;
},
{
anchors = (
{
name = bottom;
position = "{456, 0}";
},
{
name = top;
position = "{456, 680}";
}
);
background = {
paths = (
{
closed = 1;
nodes = (
"894 580 LINE SMOOTH",
"901 601 OFFCURVE",
"909 613 OFFCURVE",
"918 620 CURVE SMOOTH",
"928 628 OFFCURVE",
"941 630 OFFCURVE",
"962 631 CURVE",
"969 681 LINE",
"957 680 OFFCURVE",
"944 680 OFFCURVE",
"931 679 CURVE SMOOTH",
"919 678 OFFCURVE",
"908 678 OFFCURVE",
"895 678 CURVE SMOOTH",
"881 678 OFFCURVE",
"868 678 OFFCURVE",
"857 678 CURVE SMOOTH",
"840 678 OFFCURVE",
"823 678 OFFCURVE",
"805 679 CURVE",
"769 679 OFFCURVE",
"739 682 OFFCURVE",
"709 685 CURVE",
"701 639 LINE",
"703 635 LINE",
"757 635 LINE SMOOTH",
"808 635 OFFCURVE",
"829 624 OFFCURVE",
"829 598 CURVE SMOOTH",
"829 592 OFFCURVE",
"826 580 OFFCURVE",
"821 561 CURVE",
"808 521 OFFCURVE",
"788 462 OFFCURVE",
"763 393 CURVE SMOOTH",
"738 323 OFFCURVE",
"712 252 OFFCURVE",
"688 188 CURVE SMOOTH",
"676 155 OFFCURVE",
"665 128 OFFCURVE",
"657 103 CURVE",
"650 103 LINE",
"626 188 OFFCURVE",
"604 266 OFFCURVE",
"584 336 CURVE SMOOTH",
"576 366 OFFCURVE",
"567 396 OFFCURVE",
"560 424 CURVE SMOOTH",
"544 483 OFFCURVE",
"532 531 OFFCURVE",
"525 565 CURVE",
"521 581 OFFCURVE",
"518 591 OFFCURVE",
"518 596 CURVE SMOOTH",
"518 612 OFFCURVE",
"525 622 OFFCURVE",
"538 628 CURVE SMOOTH",
"549 633 OFFCURVE",
"574 637 OFFCURVE",
"611 640 CURVE",
"615 682 LINE",
"612 689 LINE",
"595 687 OFFCURVE",
"577 685 OFFCURVE",
"559 683 CURVE SMOOTH",
"528 680 OFFCURVE",
"491 678 OFFCURVE",
"458 678 CURVE SMOOTH",
"448 678 OFFCURVE",
"438 678 OFFCURVE",
"424 678 CURVE SMOOTH",
"410 678 OFFCURVE",
"397 678 OFFCURVE",
"384 679 CURVE SMOOTH",
"369 680 OFFCURVE",
"354 680 OFFCURVE",
"338 681 CURVE",
"330 635 LINE",
"332 631 LINE",
"384 628 OFFCURVE",
"414 613 OFFCURVE",
"428 570 CURVE SMOOTH",
"447 512 LINE",
"297 103 LINE",
"291 103 LINE",
"266 187 OFFCURVE",
"244 265 OFFCURVE",
"225 334 CURVE SMOOTH",
"216 364 OFFCURVE",
"208 394 OFFCURVE",
"200 422 CURVE SMOOTH",
"184 481 OFFCURVE",
"173 530 OFFCURVE",
"165 564 CURVE SMOOTH",
"162 580 OFFCURVE",
"160 591 OFFCURVE",
"160 597 CURVE SMOOTH",
"160 612 OFFCURVE",
"166 622 OFFCURVE",
"179 628 CURVE SMOOTH",
"191 633 OFFCURVE",
"215 637 OFFCURVE",
"251 640 CURVE",
"256 682 LINE",
"252 689 LINE",
"237 687 OFFCURVE",
"221 685 OFFCURVE",
"204 683 CURVE SMOOTH",
"175 680 OFFCURVE",
"135 678 OFFCURVE",
"98 678 CURVE SMOOTH",
"89 678 OFFCURVE",
"78 678 OFFCURVE",
"64 678 CURVE SMOOTH",
"50 678 OFFCURVE",
"38 678 OFFCURVE",
"25 679 CURVE SMOOTH",
"10 680 OFFCURVE",
"-6 680 OFFCURVE",
"-22 681 CURVE",
"-28 635 LINE",
"-28 634 OFFCURVE",
"-28 634 OFFCURVE",
"-27 633 CURVE",
"-27 632 OFFCURVE",
"-27 632 OFFCURVE",
"-27 631 CURVE",
"27 630 OFFCURVE",
"56 612 OFFCURVE",
"68 570 CURVE SMOOTH",
"114 431 OFFCURVE",
"158 286 OFFCURVE",
"191 172 CURVE SMOOTH",
"210 106 OFFCURVE",
"228 43 OFFCURVE",
"246 -18 CURVE",
"314 5 LINE",
"465 433 LINE",
"472 433 LINE",
"490 374 OFFCURVE",
"508 318 OFFCURVE",
"524 265 CURVE SMOOTH",
"556 157 OFFCURVE",
"580 67 OFFCURVE",
"605 -18 CURVE",
"671 5 LINE"
);
}
);
};
guideLines = (
{
position = "{1390, 194}";
},
{
position = "{425, 130}";
}
);
layerId = "71FD7A9F-05F5-4D76-8D4F-547475A05E4C";
paths = (
{
closed = 1;
nodes = (
"299 107 LINE",
"278 180 OFFCURVE",
"236 303 OFFCURVE",
"158 592 CURVE SMOOTH",
"154 607 OFFCURVE",
"134 618 OFFCURVE",
"107 626 CURVE",
"218 636 LINE",
"221 651 OFFCURVE",
"223 665 OFFCURVE",
"222 680 CURVE",
"-4 680 LINE",
"-7 665 OFFCURVE",
"-9 651 OFFCURVE",
"-8 636 CURVE",
"47 626 LINE",
"64 594 OFFCURVE",
"113 442 OFFCURVE",
"151 321 CURVE SMOOTH",
"186 209 OFFCURVE",
"237 33 OFFCURVE",
"252 -11 CURVE"
);
},
{
closed = 1;
nodes = (
"444 589 LINE",
"444 546 OFFCURVE",
"400 430 OFFCURVE",
"384 381 CURVE SMOOTH",
"293 99 OFFCURVE",
"262 29 OFFCURVE",
"252 -11 CURVE",
"274 -9 OFFCURVE",
"294 -1 OFFCURVE",
"314 7 CURVE",
"405 271 OFFCURVE",
"467 453 OFFCURVE",
"481 510 CURVE"
);
},
{
closed = 1;
nodes = (
"658 93 LINE",
"636 165 OFFCURVE",
"506 581 OFFCURVE",
"494 624 CURVE",
"589 635 LINE",
"592 650 OFFCURVE",
"594 665 OFFCURVE",
"593 680 CURVE",
"338 680 LINE",
"335 665 OFFCURVE",
"333 650 OFFCURVE",
"334 635 CURVE",
"412 625 LINE",
"424 584 OFFCURVE",
"615 -15 OFFCURVE",
"614 -11 CURVE"
);
},
{
closed = 1;
nodes = (
"832 588 OFFCURVE",
"787 460 OFFCURVE",
"770 412 CURVE SMOOTH",
"651 75 OFFCURVE",
"625 31 OFFCURVE",
"613 -11 CURVE",
"635 -9 OFFCURVE",
"659 1 OFFCURVE",
"679 9 CURVE",
"818 384 OFFCURVE",
"887 577 OFFCURVE",
"908 624 CURVE",
"961 635 LINE",
"964 650 OFFCURVE",
"966 665 OFFCURVE",
"965 680 CURVE",
"743 680 LINE",
"740 665 OFFCURVE",
"738 650 OFFCURVE",
"739 635 CURVE",
"823 626 LINE"
);
}
);
width = 957;
}
);
leftKerningGroup = V;
rightKerningGroup = V;
},
{
color = 8;
glyphname = X;
lastChange = "2017-09-10 18:25:38 +0000";
layers = (
{
layerId = "71FD7A9F-05F5-4D76-8D4F-547475A05E4C";
paths = (
{
closed = 1;
nodes = (
"328 328 LINE",
"387 214 OFFCURVE",
"419 163 OFFCURVE",
"442 119 CURVE SMOOTH",
"462 80 OFFCURVE",
"485 59 OFFCURVE",
"504 56 CURVE",
"393 45 LINE",
"385 0 LINE",
"643 0 LINE",
"651 45 LINE",
"585 56 LINE",
"524 154 OFFCURVE",
"474 232 OFFCURVE",
"403 353 CURVE"
);
},
{
closed = 1;
nodes = (
"493 551 OFFCURVE",
"409 428 OFFCURVE",
"349 352 CURVE",
"396 327 LINE",
"465 420 OFFCURVE",
"588 593 OFFCURVE",
"616 624 CURVE",
"688 635 LINE",
"696 680 LINE",
"461 680 LINE",
"452 635 LINE",
"538 625 LINE"
);
},
{
closed = 1;
nodes = (
"197 113 OFFCURVE",
"313 280 OFFCURVE",
"347 326 CURVE",
"307 363 LINE",
"247 275 OFFCURVE",
"116 94 OFFCURVE",
"75 58 CURVE",
"-2 45 LINE",
"-10 0 LINE",
"231 0 LINE",
"239 46 LINE",
"163 55 LINE"
);
},
{
closed = 1;
nodes = (
"391 341 LINE",
"344 418 OFFCURVE",
"259 570 OFFCURVE",
"231 624 CURVE",
"319 635 LINE",
"327 680 LINE",
"69 680 LINE",
"60 635 LINE",
"124 625 LINE",
"176 546 OFFCURVE",
"274 375 OFFCURVE",
"313 318 CURVE"
);
}
);
width = 671;
},
{
background = {
paths = (
{
closed = 1;
nodes = (
"374 352 LINE",
"382 272 OFFCURVE",
"462 52 OFFCURVE",
"489 32 CURVE SMOOTH",
"498 25 OFFCURVE",
"570 -1 OFFCURVE",
"623 -1 CURVE",
"658 7 OFFCURVE",
"685 25 OFFCURVE",
"690 28 CURVE",
"685 74 LINE",
"665 66 OFFCURVE",
"651 65 OFFCURVE",
"640 63 CURVE",
"587 119 OFFCURVE",
"484 326 OFFCURVE",
"460 425 CURVE"
);
},
{
closed = 1;
nodes = (
"142 700 LINE",
"134 653 LINE",
"180 644 LINE",
"191 619 OFFCURVE",
"183 487 OFFCURVE",
"178 427 CURVE SMOOTH",
"166 292 OFFCURVE",
"139 104 OFFCURVE",
"142 88 CURVE SMOOTH",
"143 79 OFFCURVE",
"151 62 OFFCURVE",
"189 50 CURVE",
"82 50 LINE",
"78 0 LINE",
"359 0 LINE",
"366 47 LINE",
"310 55 LINE",
"275 114 OFFCURVE",
"294 286 OFFCURVE",
"305 408 CURVE SMOOTH",
"315 521 OFFCURVE",
"324 598 OFFCURVE",
"336 620 CURVE SMOOTH",
"348 640 OFFCURVE",
"365 648 OFFCURVE",
"388 650 CURVE",
"392 699 LINE"
);
},
{
closed = 1;
nodes = (
"511 584 OFFCURVE",
"365 400 OFFCURVE",
"286 312 CURVE",
"284 203 LINE",
"432 372 LINE",
"511 465 OFFCURVE",
"613 586 OFFCURVE",
"641 615 CURVE SMOOTH",
"665 639 OFFCURVE",
"689 650 OFFCURVE",
"716 650 CURVE",
"720 700 LINE",
"498 700 LINE",
"490 651 LINE",
"540 642 LINE"
);
}
);
};
layerId = "977FCFA9-45AC-4A33-B2D7-4D17E6BBF8E0";
paths = (
{
closed = 1;
nodes = (
"318 328 LINE",
"377 214 OFFCURVE",
"393 181 OFFCURVE",
"416 137 CURVE SMOOTH",
"437 98 OFFCURVE",
"459 77 OFFCURVE",
"479 74 CURVE",
"362 64 LINE",
"353 0 LINE",
"690 0 LINE",
"699 66 LINE",
"629 77 LINE",
"568 175 OFFCURVE",
"523 246 OFFCURVE",
"453 367 CURVE"
);
},
{
closed = 1;
nodes = (
"467 531 OFFCURVE",
"395 428 OFFCURVE",
"335 352 CURVE",
"432 327 LINE",
"501 420 OFFCURVE",
"622 573 OFFCURVE",
"649 604 CURVE",
"720 617 LINE",
"731 680 LINE",
"443 680 LINE",
"432 615 LINE",
"512 605 LINE"
);
},
{
closed = 1;
nodes = (
"259 132 OFFCURVE",
"359 280 OFFCURVE",
"393 326 CURVE",
"303 363 LINE",
"243 275 OFFCURVE",
"110 111 OFFCURVE",
"70 75 CURVE",
"-4 65 LINE",
"-13 0 LINE",
"277 0 LINE",
"287 65 LINE",
"225 74 LINE"
);
},
{
closed = 1;
nodes = (
"437 341 LINE",
"390 418 OFFCURVE",
"315 551 OFFCURVE",
"286 605 CURVE",
"365 615 LINE",
"375 680 LINE",
"60 680 LINE",
"49 615 LINE",
"112 605 LINE",
"165 526 OFFCURVE",
"250 375 OFFCURVE",
"289 318 CURVE"
);
}
);
width = 727;
}
);
leftKerningGroup = X;
rightKerningGroup = X;
unicode = 0058;
},
{
color = 1;
glyphname = X.001;
lastChange = "2018-06-18 14:45:50 +0000";
layers = (
{
anchors = (
{
name = bottom;
position = "{355, 0}";
},
{
name = top;
position = "{355, 680}";
}
);
background = {
paths = (
{
closed = 1;
nodes = (
"313 328 LINE",
"382 214 OFFCURVE",
"401 181 OFFCURVE",
"428 137 CURVE SMOOTH",
"452 98 OFFCURVE",
"476 77 OFFCURVE",
"496 74 CURVE",
"384 64 LINE",
"376 0 LINE",
"711 0 LINE",
"717 66 LINE",
"646 77 LINE",
"576 175 OFFCURVE",
"525 246 OFFCURVE",
"444 367 CURVE"
);
},
{
closed = 1;
nodes = (
"444 531 OFFCURVE",
"381 428 OFFCURVE",
"328 352 CURVE",
"427 327 LINE",
"488 420 OFFCURVE",
"566 530 OFFCURVE",
"591 561 CURVE SMOOTH",
"611 585 OFFCURVE",
"646 615 OFFCURVE",
"688 615 CURVE",
"695 680 LINE",
"411 680 LINE",
"402 615 LINE",
"483 605 LINE"
);
},
{
closed = 1;
nodes = (
"271 132 OFFCURVE",
"358 280 OFFCURVE",
"388 326 CURVE",
"295 363 LINE",
"242 275 OFFCURVE",
"149 146 OFFCURVE",
"112 110 CURVE SMOOTH",
"86 85 OFFCURVE",
"44 65 OFFCURVE",
"17 65 CURVE",
"10 0 LINE",
"300 0 LINE",
"308 65 LINE",
"242 74 LINE"
);
},
{
closed = 1;
nodes = (
"431 341 LINE",
"377 418 OFFCURVE",
"321 503 OFFCURVE",
"288 557 CURVE SMOOTH",
"267 591 OFFCURVE",
"286 614 OFFCURVE",
"330 615 CURVE",
"339 680 LINE",
"24 680 LINE",
"16 615 LINE",
"82 605 LINE",
"141 526 OFFCURVE",
"241 375 OFFCURVE",
"285 318 CURVE"
);
}
);
};
guideLines = (
{
angle = 56;
position = "{339, 360}";
}
);
layerId = "977FCFA9-45AC-4A33-B2D7-4D17E6BBF8E0";
paths = (
{
closed = 1;
nodes = (
"292 327 LINE",
"326 266 OFFCURVE",
"374 178 OFFCURVE",
"384 163 CURVE SMOOTH",
"408 125 OFFCURVE",
"441 112 OFFCURVE",
"461 109 CURVE",
"371 99 LINE",
"365 73 OFFCURVE",
"364 26 OFFCURVE",
"364 0 CURVE",
"709 0 LINE",
"715 27 OFFCURVE",
"716 74 OFFCURVE",
"716 101 CURVE",
"647 112 LINE",
"574 198 OFFCURVE",
"509 286 OFFCURVE",
"449 378 CURVE"
);
},
{
closed = 1;
nodes = (
"436 495 OFFCURVE",
"395 453 OFFCURVE",
"330 358 CURVE",
"444 333 LINE",
"507 428 OFFCURVE",
"578 513 OFFCURVE",
"629 569 CURVE",
"702 582 LINE",
"707 608 OFFCURVE",
"710 660 OFFCURVE",
"709 686 CURVE",
"403 686 LINE",
"398 659 OFFCURVE",
"394 607 OFFCURVE",
"395 582 CURVE",
"473 569 LINE"
);
},
{
closed = 1;
nodes = (
"305 163 OFFCURVE",
"404 334 OFFCURVE",
"404 334 CURVE",
"286 369 LINE",
"245 301 OFFCURVE",
"153 162 OFFCURVE",
"101 110 CURVE",
"30 100 LINE",
"25 73 OFFCURVE",
"21 26 OFFCURVE",
"23 0 CURVE",
"327 0 LINE",
"333 27 OFFCURVE",
"334 73 OFFCURVE",
"334 100 CURVE",
"276 109 LINE"
);
},
{
closed = 1;
nodes = (
"449 356 LINE",
"414 406 OFFCURVE",
"326 538 OFFCURVE",
"304 569 CURVE",
"354 582 LINE",
"358 607 OFFCURVE",
"361 659 OFFCURVE",
"361 686 CURVE",
"26 686 LINE",
"21 659 OFFCURVE",
"17 607 OFFCURVE",
"18 582 CURVE",
"87 569 LINE",
"112 536 OFFCURVE",
"271 317 OFFCURVE",
"291 292 CURVE"
);
}
);
width = 733;
},
{
anchors = (
{
name = bottom;
position = "{287, 0}";
},
{
name = top;
position = "{287, 680}";
}
);
background = {
paths = (
{
closed = 1;
nodes = (
"92 114 OFFCURVE",
"47 65 OFFCURVE",
"-16 47 CURVE",
"-23 3 LINE",
"-19 -4 LINE",
"-7 -3 OFFCURVE",
"5 -3 OFFCURVE",
"18 -2 CURVE SMOOTH",
"39 -1 OFFCURVE",
"65 0 OFFCURVE",
"86 0 CURVE SMOOTH",
"106 0 OFFCURVE",
"135 -1 OFFCURVE",
"159 -4 CURVE",
"173 -5 OFFCURVE",
"188 -6 OFFCURVE",
"203 -7 CURVE",
"210 38 LINE",
"208 42 LINE",
"167 46 OFFCURVE",
"146 56 OFFCURVE",
"146 74 CURVE SMOOTH",
"146 84 OFFCURVE",
"151 96 OFFCURVE",
"158 108 CURVE SMOOTH",
"166 121 OFFCURVE",
"180 141 OFFCURVE",
"201 169 CURVE SMOOTH",
"298 298 LINE",
"414 124 LINE SMOOTH",
"428 104 OFFCURVE",
"435 90 OFFCURVE",
"435 77 CURVE SMOOTH",
"435 66 OFFCURVE",
"429 56 OFFCURVE",
"415 51 CURVE SMOOTH",
"401 46 OFFCURVE",
"381 41 OFFCURVE",
"352 40 CURVE",
"348 -1 LINE",
"351 -8 LINE",
"372 -7 OFFCURVE",
"391 -5 OFFCURVE",
"411 -4 CURVE",
"445 -1 OFFCURVE",
"486 0 OFFCURVE",
"516 0 CURVE SMOOTH",
"540 0 OFFCURVE",
"573 -1 OFFCURVE",
"600 -2 CURVE SMOOTH",
"616 -3 OFFCURVE",
"632 -3 OFFCURVE",
"647 -3 CURVE",
"655 42 LINE",
"653 47 LINE",
"586 52 OFFCURVE",
"546 80 OFFCURVE",
"507 135 CURVE SMOOTH",
"352 361 LINE",
"481 523 LINE SMOOTH",
"511 560 OFFCURVE",
"530 584 OFFCURVE",
"551 601 CURVE SMOOTH",
"572 618 OFFCURVE",
"592 626 OFFCURVE",
"625 634 CURVE",
"632 673 LINE",
"627 680 LINE",
"616 679 OFFCURVE",
"603 679 OFFCURVE",
"591 678 CURVE",
"571 677 OFFCURVE",
"545 676 OFFCURVE",
"524 676 CURVE SMOOTH",
"504 676 OFFCURVE",
"476 676 OFFCURVE",
"451 679 CURVE",
"437 680 OFFCURVE",
"422 683 OFFCURVE",
"408 684 CURVE",
"401 642 LINE",
"403 638 LINE",
"426 636 OFFCURVE",
"442 633 OFFCURVE",
"451 628 CURVE",
"461 623 OFFCURVE",
"465 616 OFFCURVE",
"465 606 CURVE SMOOTH",
"465 599 OFFCURVE",
"460 587 OFFCURVE",
"450 571 CURVE SMOOTH",
"430 539 OFFCURVE",
"400 498 OFFCURVE",
"368 456 CURVE SMOOTH",
"352 435 OFFCURVE",
"338 416 OFFCURVE",
"326 400 CURVE",
"290 454 OFFCURVE",
"261 500 OFFCURVE",
"239 536 CURVE SMOOTH",
"217 571 OFFCURVE",
"206 593 OFFCURVE",
"206 602 CURVE SMOOTH",
"206 614 OFFCURVE",
"212 623 OFFCURVE",
"225 628 CURVE SMOOTH",
"238 634 OFFCURVE",
"259 638 OFFCURVE",
"289 640 CURVE",
"292 677 LINE",
"289 685 LINE",
"277 684 OFFCURVE",
"263 681 OFFCURVE",
"248 680 CURVE",
"223 677 OFFCURVE",
"187 676 OFFCURVE",
"145 676 CURVE SMOOTH",
"134 676 OFFCURVE",
"119 676 OFFCURVE",
"102 676 CURVE SMOOTH",
"84 676 OFFCURVE",
"67 676 OFFCURVE",
"51 677 CURVE SMOOTH",
"33 678 OFFCURVE",
"13 678 OFFCURVE",
"-7 679 CURVE",
"-14 638 LINE",
"-12 634 LINE",
"53 625 OFFCURVE",
"99 598 OFFCURVE",
"134 546 CURVE SMOOTH",
"273 338 LINE",
"156 193 LINE SMOOTH"
);
}
);
};
guideLines = (
{
angle = 90;
position = "{-1, 123}";
}
);
layerId = "71FD7A9F-05F5-4D76-8D4F-547475A05E4C";
paths = (
{
closed = 1;
nodes = (
"282 324 LINE",
"354 210 OFFCURVE",
"388 163 OFFCURVE",
"417 119 CURVE SMOOTH",
"442 81 OFFCURVE",
"465 60 OFFCURVE",
"485 56 CURVE",
"380 45 LINE",
"377 30 OFFCURVE",
"375 15 OFFCURVE",
"376 0 CURVE",
"630 0 LINE",
"633 15 OFFCURVE",
"635 30 OFFCURVE",
"634 45 CURVE",
"567 56 LINE",
"496 154 OFFCURVE",
"437 230 OFFCURVE",
"355 351 CURVE"
);
},
{
closed = 1;
nodes = (
"444 551 OFFCURVE",
"373 454 OFFCURVE",
"313 378 CURVE",
"346 331 LINE",
"407 424 OFFCURVE",
"536 593 OFFCURVE",
"561 624 CURVE",
"625 635 LINE",
"628 650 OFFCURVE",
"630 665 OFFCURVE",
"629 680 CURVE",
"394 680 LINE",
"390 665 OFFCURVE",
"389 650 OFFCURVE",
"389 635 CURVE",
"483 625 LINE"
);
},
{
closed = 1;
nodes = (
"168 113 OFFCURVE",
"286 267 OFFCURVE",
"316 313 CURVE",
"284 350 LINE",
"216 262 OFFCURVE",
"93 94 OFFCURVE",
"56 58 CURVE",
"-11 45 LINE",
"-14 30 OFFCURVE",
"-16 15 OFFCURVE",
"-15 0 CURVE",
"231 0 LINE",
"234 15 OFFCURVE",
"236 31 OFFCURVE",
"235 46 CURVE",
"135 55 LINE"
);
},
{
closed = 1;
nodes = (
"357 341 LINE",
"303 418 OFFCURVE",
"208 571 OFFCURVE",
"176 625 CURVE",
"268 635 LINE",
"271 650 OFFCURVE",
"274 665 OFFCURVE",
"273 680 CURVE",
"4 680 LINE",
"0 665 OFFCURVE",
"-1 650 OFFCURVE",
"-1 635 CURVE",
"73 625 LINE",
"132 546 OFFCURVE",
"243 372 OFFCURVE",
"287 315 CURVE"
);
}
);
width = 619;
}
);
leftKerningGroup = X;
rightKerningGroup = X;
},
{
color = 8;
glyphname = Y;
lastChange = "2017-09-10 18:25:38 +0000";
layers = (
{
anchors = (
{
name = bottom;
position = "{289, 0}";
},
{
name = top;
position = "{360, 680}";
},
{
name = topleft;
position = "{66, 680}";
}
);
layerId = "71FD7A9F-05F5-4D76-8D4F-547475A05E4C";
paths = (
{
closed = 1;
nodes = (
"501 568 OFFCURVE",
"401 398 OFFCURVE",
"337 296 CURVE",
"364 238 LINE",
"412 331 OFFCURVE",
"580 591 OFFCURVE",
"605 624 CURVE",
"666 635 LINE",
"674 680 LINE",
"451 680 LINE",
"443 635 LINE",
"528 626 LINE"
);
},
{
closed = 1;
nodes = (
"352 301 LINE",
"317 394 OFFCURVE",
"217 606 OFFCURVE",
"210 626 CURVE",
"297 635 LINE",
"304 680 LINE",
"65 680 LINE",
"57 635 LINE",
"113 626 LINE",
"163 519 OFFCURVE",
"210 427 OFFCURVE",
"294 244 CURVE"
);
},
{
closed = 1;
nodes = (
"356 102 OFFCURVE",
"372 235 OFFCURVE",
"380 313 CURVE",
"291 297 LINE",
"283 188 OFFCURVE",
"278 147 OFFCURVE",
"274 96 CURVE SMOOTH",
"272 73 OFFCURVE",
"284 64 OFFCURVE",
"312 55 CURVE",
"189 45 LINE",
"182 0 LINE",
"446 0 LINE",
"456 45 LINE",
"374 55 LINE"
);
}
);
width = 628;
},
{
anchors = (
{
name = bottom;
position = "{283, 0}";
},
{
name = top;
position = "{392, 680}";
},
{
name = topleft;
position = "{135, 700}";
}
);
background = {
paths = (
{
closed = 1;
nodes = (
"327 341 LINE",
"364 247 OFFCURVE",
"410 130 OFFCURVE",
"432 82 CURVE SMOOTH",
"437 71 OFFCURVE",
"449 59 OFFCURVE",
"472 49 CURVE",
"392 49 LINE",
"387 0 LINE",
"653 0 LINE",
"658 47 LINE",
"611 55 LINE",
"543 158 OFFCURVE",
"468 318 OFFCURVE",
"426 403 CURVE"
);
},
{
closed = 1;
nodes = (
"505 562 OFFCURVE",
"422 446 OFFCURVE",
"380 396 CURVE",
"415 320 LINE",
"483 413 OFFCURVE",
"609 586 OFFCURVE",
"638 615 CURVE SMOOTH",
"662 639 OFFCURVE",
"686 650 OFFCURVE",
"713 650 CURVE",
"718 700 LINE",
"484 700 LINE",
"479 653 LINE",
"533 645 LINE"
);
},
{
closed = 1;
nodes = (
"262 113 OFFCURVE",
"351 257 OFFCURVE",
"382 307 CURVE",
"333 361 LINE",
"275 268 OFFCURVE",
"162 112 OFFCURVE",
"131 85 CURVE SMOOTH",
"103 61 OFFCURVE",
"79 50 OFFCURVE",
"52 50 CURVE",
"47 0 LINE",
"270 0 LINE",
"275 47 LINE",
"228 55 LINE"
);
},
{
closed = 1;
nodes = (
"419 394 LINE",
"378 478 OFFCURVE",
"356 521 OFFCURVE",
"337 574 CURVE SMOOTH",
"324 610 OFFCURVE",
"310 651 OFFCURVE",
"369 651 CURVE",
"374 700 LINE",
"117 700 LINE",
"112 653 LINE",
"159 643 LINE",
"232 505 OFFCURVE",
"287 388 OFFCURVE",
"318 321 CURVE"
);
}
);
};
layerId = "977FCFA9-45AC-4A33-B2D7-4D17E6BBF8E0";
paths = (
{
closed = 1;
nodes = (
"480 548 OFFCURVE",
"398 375 OFFCURVE",
"310 258 CURVE",
"378 202 LINE",
"426 295 OFFCURVE",
"591 570 OFFCURVE",
"616 603 CURVE",
"691 615 LINE",
"701 680 LINE",
"434 680 LINE",
"423 615 LINE",
"508 606 LINE"
);
},
{
closed = 1;
nodes = (
"394 328 LINE",
"354 418 OFFCURVE",
"279 586 OFFCURVE",
"273 606 CURVE",
"343 617 LINE",
"354 680 LINE",
"62 680 LINE",
"50 616 LINE",
"108 605 LINE",
"209 404 OFFCURVE",
"251 327 OFFCURVE",
"297 214 CURVE"
);
},
{
closed = 1;
nodes = (
"403 117 OFFCURVE",
"412 232 OFFCURVE",
"420 310 CURVE",
"268 294 LINE",
"254 185 OFFCURVE",
"254 203 OFFCURVE",
"247 123 CURVE SMOOTH",
"246 103 OFFCURVE",
"258 85 OFFCURVE",
"286 76 CURVE",
"167 66 LINE",
"158 0 LINE",
"490 0 LINE",
"501 66 LINE",
"429 76 LINE"
);
}
);
width = 665;
}
);
leftKerningGroup = V;
rightKerningGroup = V;
unicode = 0059;
},
{
color = 1;
glyphname = Y.001;
lastChange = "2018-06-18 14:45:50 +0000";
layers = (
{
anchors = (
{
name = bottom;
position = "{325, 0}";
},
{
name = top;
position = "{336, 680}";
},
{
name = topleft;
position = "{5, 700}";
}
);
annotations = (
{
position = "{-186, 798}";
text = "82";
type = Text;
},
{
position = "{224, -14}";
text = "This Serif!";
type = Text;
width = 83;
}
);
background = {
components = (
{
name = I;
transform = "{1, 0, 0, 1, 149, 0}";
}
);
};
guideLines = (
{
position = "{243, 273}";
},
{
angle = 86;
position = "{19, 459}";
},
{
position = "{-317, 582}";
}
);
layerId = "977FCFA9-45AC-4A33-B2D7-4D17E6BBF8E0";
paths = (
{
closed = 1;
nodes = (
"399 511 OFFCURVE",
"349 384 OFFCURVE",
"271 267 CURVE",
"366 185 LINE",
"406 278 OFFCURVE",
"539 533 OFFCURVE",
"561 566 CURVE",
"627 582 LINE",
"631 607 OFFCURVE",
"636 659 OFFCURVE",
"634 686 CURVE",
"364 686 LINE",
"359 659 OFFCURVE",
"355 607 OFFCURVE",
"356 582 CURVE",
"421 569 LINE"
);
},
{
closed = 1;
nodes = (
"356 391 LINE",
"313 471 OFFCURVE",
"275 549 OFFCURVE",
"267 569 CURVE",
"317 582 LINE",
"322 608 OFFCURVE",
"326 660 OFFCURVE",
"325 686 CURVE",
"19 686 LINE",
"14 660 OFFCURVE",
"10 607 OFFCURVE",
"11 582 CURVE",
"73 568 LINE",
"191 367 OFFCURVE",
"218 300 OFFCURVE",
"274 187 CURVE"
);
},
{
closed = 1;
nodes = (
"408 152 OFFCURVE",
"409 205 OFFCURVE",
"411 310 CURVE",
"232 333 LINE",
"232 260 OFFCURVE",
"230 236 OFFCURVE",
"230 158 CURVE SMOOTH",
"230 138 OFFCURVE",
"237 120 OFFCURVE",
"271 111 CURVE",
"153 101 LINE",
"148 74 OFFCURVE",
"145 27 OFFCURVE",
"146 0 CURVE",
"500 0 LINE",
"506 27 OFFCURVE",
"507 74 OFFCURVE",
"507 101 CURVE",
"430 111 LINE"
);
}
);
width = 644;
},
{
anchors = (
{
name = bottom;
position = "{306, 0}";
},
{
name = top;
position = "{289, 680}";
},
{
name = topleft;
position = "{-14, 700}";
}
);
annotations = (
{
position = "{-186, 798}";
text = "82";
type = Text;
},
{
position = "{224, -14}";
text = "This Serif!";
type = Text;
width = 83;
}
);
guideLines = (
{
position = "{224, 273}";
}
);
layerId = "71FD7A9F-05F5-4D76-8D4F-547475A05E4C";
paths = (
{
closed = 1;
nodes = (
"146 623 LINE",
"228 635 LINE",
"232 651 OFFCURVE",
"234 665 OFFCURVE",
"234 680 CURVE",
"12 680 OFFCURVE",
"13 680 OFFCURVE",
"-1 680 CURVE",
"-5 666 OFFCURVE",
"-8 651 OFFCURVE",
"-8 635 CURVE",
"51 625 LINE",
"62 604 OFFCURVE",
"95 539 OFFCURVE",
"108 514 CURVE SMOOTH",
"151 429 OFFCURVE",
"200 345 OFFCURVE",
"242 260 CURVE",
"242 231 OFFCURVE",
"240 129 OFFCURVE",
"240 108 CURVE SMOOTH",
"240 83 OFFCURVE",
"252 65 OFFCURVE",
"272 62 CURVE",
"227 57 OFFCURVE",
"195 53 OFFCURVE",
"159 47 CURVE",
"156 31 OFFCURVE",
"154 15 OFFCURVE",
"153 0 CURVE",
"410 0 LINE",
"415 16 OFFCURVE",
"416 31 OFFCURVE",
"417 47 CURVE",
"325 58 LINE",
"322 77 OFFCURVE",
"320 99 OFFCURVE",
"320 122 CURVE SMOOTH",
"320 142 OFFCURVE",
"320 236 OFFCURVE",
"320 262 CURVE",
"444 498 LINE SMOOTH",
"471 549 OFFCURVE",
"502 604 OFFCURVE",
"520 625 CURVE",
"578 635 LINE",
"582 651 OFFCURVE",
"584 665 OFFCURVE",
"584 680 CURVE",
"369 680 LINE",
"366 665 OFFCURVE",
"364 650 OFFCURVE",
"365 635 CURVE",
"449 624 LINE",
"292 326 LINE",
"169 574 LINE"
);
}
);
width = 576;
}
);
leftKerningGroup = V;
rightKerningGroup = V;
},
{
color = 8;
glyphname = Z;
lastChange = "2017-09-10 18:25:38 +0000";
layers = (
{
anchors = (
{
name = bottom;
position = "{246, 0}";
},
{
name = top;
position = "{317, 680}";
}
);
layerId = "71FD7A9F-05F5-4D76-8D4F-547475A05E4C";
paths = (
{
closed = 1;
nodes = (
"378 678 OFFCURVE",
"204 678 OFFCURVE",
"73 685 CURVE",
"59 539 LINE",
"101 533 LINE",
"138 621 LINE",
"181 627 OFFCURVE",
"376 629 OFFCURVE",
"430 628 CURVE",
"395 570 OFFCURVE",
"291 423 OFFCURVE",
"207 308 CURVE SMOOTH",
"110 175 OFFCURVE",
"22 53 OFFCURVE",
"-6 42 CURVE",
"4 0 LINE",
"160 5 OFFCURVE",
"342 0 OFFCURVE",
"486 0 CURVE",
"518 150 LINE",
"473 154 LINE",
"430 68 LINE",
"361 55 OFFCURVE",
"230 53 OFFCURVE",
"118 53 CURVE",
"158 117 OFFCURVE",
"236 228 OFFCURVE",
"330 360 CURVE SMOOTH",
"412 476 OFFCURVE",
"510 620 OFFCURVE",
"548 640 CURVE",
"538 683 LINE"
);
}
);
width = 542;
},
{
anchors = (
{
name = bottom;
position = "{203, 0}";
},
{
name = top;
position = "{310, 680}";
}
);
background = {
components = (
{
name = T;
transform = "{1, 0, 0, 1, 6, 0}";
}
);
};
guideLines = (
{
position = "{431, 746}";
},
{
position = "{418, 865}";
}
);
layerId = "977FCFA9-45AC-4A33-B2D7-4D17E6BBF8E0";
paths = (
{
closed = 1;
nodes = (
"420 681 OFFCURVE",
"243 681 OFFCURVE",
"77 688 CURVE",
"61 494 LINE",
"121 486 LINE",
"155 574 LINE",
"209 585 OFFCURVE",
"305 591 OFFCURVE",
"382 589 CURVE",
"351 531 OFFCURVE",
"276 422 OFFCURVE",
"197 308 CURVE SMOOTH",
"104 173 OFFCURVE",
"20 76 OFFCURVE",
"-8 65 CURVE",
"11 0 LINE",
"166 5 OFFCURVE",
"384 2 OFFCURVE",
"526 -1 CURVE",
"566 194 LINE",
"498 201 LINE",
"452 109 LINE",
"383 96 OFFCURVE",
"321 90 OFFCURVE",
"213 92 CURVE",
"251 156 OFFCURVE",
"301 226 OFFCURVE",
"386 359 CURVE SMOOTH",
"462 479 OFFCURVE",
"557 600 OFFCURVE",
"591 617 CURVE",
"577 686 LINE"
);
}
);
width = 581;
}
);
leftKerningGroup = X;
rightKerningGroup = X;
unicode = 005A;
},
{
color = 1;
glyphname = Z.001;
lastChange = "2018-06-18 14:45:50 +0000";
layers = (
{
anchors = (
{
name = bottom;
position = "{315, 0}";
},
{
name = top;
position = "{315, 680}";
}
);
background = {
paths = (
{
closed = 1;
nodes = (
"401 681 OFFCURVE",
"216 681 OFFCURVE",
"49 688 CURVE",
"48 467 LINE",
"77 461 OFFCURVE",
"130 460 OFFCURVE",
"162 462 CURVE",
"189 560 LINE",
"237 569 OFFCURVE",
"255 570 OFFCURVE",
"332 568 CURVE",
"306 510 OFFCURVE",
"253 422 OFFCURVE",
"185 308 CURVE SMOOTH",
"104 172 OFFCURVE",
"41 84 OFFCURVE",
"14 73 CURVE",
"19 48 OFFCURVE",
"27 23 OFFCURVE",
"38 0 CURVE",
"193 5 OFFCURVE",
"416 2 OFFCURVE",
"559 -1 CURVE",
"585 223 LINE",
"555 228 OFFCURVE",
"502 231 OFFCURVE",
"472 230 CURVE",
"433 128 LINE",
"365 115 OFFCURVE",
"346 117 OFFCURVE",
"270 117 CURVE",
"303 181 OFFCURVE",
"338 233 OFFCURVE",
"410 359 CURVE SMOOTH",
"478 479 OFFCURVE",
"544 592 OFFCURVE",
"577 609 CURVE",
"573 636 OFFCURVE",
"567 661 OFFCURVE",
"557 686 CURVE"
);
}
);
};
guideLines = (
{
angle = 90;
position = "{559, 271}";
}
);
layerId = "977FCFA9-45AC-4A33-B2D7-4D17E6BBF8E0";
paths = (
{
closed = 1;
nodes = (
"401 681 OFFCURVE",
"216 681 OFFCURVE",
"49 688 CURVE",
"48 467 LINE",
"77 461 OFFCURVE",
"132 460 OFFCURVE",
"164 462 CURVE",
"189 552 LINE",
"237 561 OFFCURVE",
"278 561 OFFCURVE",
"328 560 CURVE",
"302 502 OFFCURVE",
"253 422 OFFCURVE",
"185 308 CURVE SMOOTH",
"104 172 OFFCURVE",
"41 94 OFFCURVE",
"14 83 CURVE",
"19 58 OFFCURVE",
"27 23 OFFCURVE",
"38 0 CURVE",
"193 5 OFFCURVE",
"416 2 OFFCURVE",
"559 -1 CURVE",
"585 223 LINE",
"555 228 OFFCURVE",
"500 231 OFFCURVE",
"470 230 CURVE",
"433 135 LINE",
"365 123 OFFCURVE",
"337 124 OFFCURVE",
"276 124 CURVE",
"309 188 OFFCURVE",
"338 233 OFFCURVE",
"410 359 CURVE SMOOTH",
"478 479 OFFCURVE",
"544 582 OFFCURVE",
"577 599 CURVE",
"573 626 OFFCURVE",
"567 661 OFFCURVE",
"557 686 CURVE"
);
}
);
width = 606;
},
{
anchors = (
{
name = bottom;
position = "{298, 0}";
},
{
name = top;
position = "{298, 680}";
}
);
guideLines = (
{
angle = 90;
position = "{542, 270}";
}
);
layerId = "71FD7A9F-05F5-4D76-8D4F-547475A05E4C";
paths = (
{
closed = 1;
nodes = (
"450 681 OFFCURVE",
"373 679 OFFCURVE",
"300 679 CURVE SMOOTH",
"213 679 OFFCURVE",
"136 681 OFFCURVE",
"65 685 CURVE",
"63 539 LINE",
"76 534 OFFCURVE",
"90 532 OFFCURVE",
"105 533 CURVE",
"135 617 LINE",
"174 622 OFFCURVE",
"339 626 OFFCURVE",
"420 626 CURVE",
"390 568 OFFCURVE",
"299 423 OFFCURVE",
"225 308 CURVE SMOOTH",
"139 175 OFFCURVE",
"62 53 OFFCURVE",
"35 42 CURVE",
"37 27 OFFCURVE",
"41 13 OFFCURVE",
"49 0 CURVE",
"101 2 OFFCURVE",
"155 2 OFFCURVE",
"211 2 CURVE SMOOTH",
"322 2 OFFCURVE",
"435 1 OFFCURVE",
"531 -1 CURVE",
"549 150 LINE",
"535 154 OFFCURVE",
"518 156 OFFCURVE",
"504 154 CURVE",
"470 73 LINE",
"402 60 OFFCURVE",
"270 55 OFFCURVE",
"158 57 CURVE",
"192 121 OFFCURVE",
"261 228 OFFCURVE",
"343 360 CURVE SMOOTH",
"415 476 OFFCURVE",
"500 620 OFFCURVE",
"537 640 CURVE",
"535 655 OFFCURVE",
"531 670 OFFCURVE",
"523 683 CURVE"
);
}
);
width = 584;
}
);
leftKerningGroup = X;
rightKerningGroup = X;
},
{
color = 8;
glyphname = Z.ss01;
lastChange = "2017-09-10 18:25:38 +0000";
layers = (
{
layerId = "71FD7A9F-05F5-4D76-8D4F-547475A05E4C";
paths = (
{
closed = 1;
nodes = (
"389 678 OFFCURVE",
"252 679 OFFCURVE",
"85 685 CURVE",
"67 520 LINE",
"110 514 LINE",
"125 556 OFFCURVE",
"133 571 OFFCURVE",
"143 598 CURVE",
"187 604 OFFCURVE",
"385 606 OFFCURVE",
"440 605 CURVE",
"404 547 OFFCURVE",
"315 423 OFFCURVE",
"233 317 CURVE SMOOTH",
"131 185 OFFCURVE",
"22 53 OFFCURVE",
"-6 42 CURVE",
"4 0 LINE",
"159 5 OFFCURVE",
"342 0 OFFCURVE",
"486 0 CURVE",
"519 168 LINE",
"475 172 LINE",
"433 91 LINE",
"364 78 OFFCURVE",
"238 76 OFFCURVE",
"126 76 CURVE",
"166 140 OFFCURVE",
"224 224 OFFCURVE",
"328 357 CURVE SMOOTH",
"416 470 OFFCURVE",
"520 620 OFFCURVE",
"559 640 CURVE",
"549 683 LINE"
);
},
{
closed = 1;
nodes = (
"127 316 LINE",
"224 319 OFFCURVE",
"323 319 OFFCURVE",
"422 316 CURVE",
"432 324 LINE",
"440 373 LINE",
"340 371 OFFCURVE",
"241 371 OFFCURVE",
"145 373 CURVE",
"135 365 LINE"
);
}
);
width = 542;
},
{
anchors = (
{
name = bottom;
position = "{202, 0}";
},
{
name = top;
position = "{317, 656}";
}
);
background = {
components = (
{
name = T;
transform = "{1, 0, 0, 1, 17, 0}";
}
);
};
layerId = "977FCFA9-45AC-4A33-B2D7-4D17E6BBF8E0";
paths = (
{
closed = 1;
nodes = (
"428 681 OFFCURVE",
"251 681 OFFCURVE",
"85 688 CURVE",
"58 445 LINE",
"118 437 LINE",
"154 525 LINE",
"208 536 OFFCURVE",
"322 542 OFFCURVE",
"399 540 CURVE",
"367 482 OFFCURVE",
"318 415 OFFCURVE",
"236 312 CURVE SMOOTH",
"95 133 OFFCURVE",
"21 76 OFFCURVE",
"-8 65 CURVE",
"7 0 LINE",
"162 5 OFFCURVE",
"380 2 OFFCURVE",
"522 -1 CURVE",
"573 230 LINE",
"504 237 LINE",
"457 145 LINE",
"387 132 OFFCURVE",
"319 129 OFFCURVE",
"210 131 CURVE",
"263 203 OFFCURVE",
"294 244 OFFCURVE",
"393 377 CURVE SMOOTH",
"482 496 OFFCURVE",
"564 600 OFFCURVE",
"598 617 CURVE",
"585 686 LINE"
);
},
{
closed = 1;
nodes = (
"143 301 LINE",
"243 307 OFFCURVE",
"361 307 OFFCURVE",
"461 304 CURVE",
"476 316 LINE",
"488 387 LINE",
"389 384 OFFCURVE",
"271 387 OFFCURVE",
"171 387 CURVE",
"157 375 LINE"
);
}
);
width = 584;
}
);
leftKerningGroup = X;
leftMetricsKey = Z;
rightKerningGroup = X;
rightMetricsKey = Z;
},
{
color = 1;
glyphname = a;
lastChange = "2018-06-18 14:35:13 +0000";
layers = (
{
anchors = (
{
name = bottom;
position = "{223, 0}";
},
{
name = ogonek;
position = "{359, 2}";
},
{
name = top;
position = "{290, 508}";
}
);
background = {
components = (
{
name = n;
transform = "{-1, 0, 0, -1, 519, 483}";
}
);
};
components = (
{
name = _part.bowl;
transform = "{-1, 0, -0.0524, -1, 487, 476}";
}
);
guideLines = (
{
angle = 84;
position = "{225, 57}";
},
{
position = "{435, 715}";
},
{
position = "{-104, 250}";
}
);
layerId = "71FD7A9F-05F5-4D76-8D4F-547475A05E4C";
paths = (
{
closed = 1;
nodes = (
"372 274 LINE",
"302 58 OFFCURVE",
"293 16 OFFCURVE",
"314 -5 CURVE",
"360 1 OFFCURVE",
"435 21 OFFCURVE",
"471 39 CURVE",
"467 80 LINE",
"394 71 LINE",
"387 115 OFFCURVE",
"425 295 OFFCURVE",
"473 481 CURVE",
"464 489 OFFCURVE",
"442 494 OFFCURVE",
"426 492 CURVE",
"387 403 LINE",
"349 281 LINE"
);
}
);
width = 518;
},
{
anchors = (
{
name = bottom;
position = "{281, 0}";
},
{
name = ogonek;
position = "{488, 10}";
},
{
name = top;
position = "{323, 480}";
}
);
background = {
components = (
{
name = n;
transform = "{-1, 0, 0, -1, 566, 483}";
}
);
};
components = (
{
name = _part.bowl;
piece = {
"b/q?" = 1;
};
transform = "{-1, 0, 0, -1, 468, 487}";
}
);
guideLines = (
{
angle = -20;
position = "{490, 503}";
},
{
position = "{258, 262}";
}
);
layerId = "977FCFA9-45AC-4A33-B2D7-4D17E6BBF8E0";
paths = (
{
closed = 1;
nodes = (
"476 122 LINE",
"476 177 OFFCURVE",
"517 390 OFFCURVE",
"543 500 CURVE",
"517 511 OFFCURVE",
"488 513 OFFCURVE",
"460 512 CURVE",
"269 195 LINE",
"338 191 LINE",
"312 95 OFFCURVE",
"293 30 OFFCURVE",
"319 -7 CURVE",
"381 -1 OFFCURVE",
"468 10 OFFCURVE",
"530 30 CURVE",
"533 56 OFFCURVE",
"535 101 OFFCURVE",
"531 126 CURVE"
);
}
);
width = 585;
}
);
leftKerningGroup = o;
leftMetricsKey = o;
rightKerningGroup = i;
rightMetricsKey = n;
unicode = 0061;
},
{
glyphname = aogonek;
lastChange = "2018-04-04 18:48:07 +0000";
layers = (
{
color = 1;
components = (
{
alignment = -1;
name = a;
},
{
alignment = -1;
name = ogonekcomb;
transform = "{1, 0, 0, 1, -78, -8}";
}
);
layerId = "71FD7A9F-05F5-4D76-8D4F-547475A05E4C";
width = 481;
},
{
anchors = (
{
name = _ogonek;
position = "{434, 10}";
}
);
components = (
{
name = a;
}
);
layerId = "977FCFA9-45AC-4A33-B2D7-4D17E6BBF8E0";
paths = (
{
closed = 1;
nodes = (
"279 -267 OFFCURVE",
"408 -257 OFFCURVE",
"483 -202 CURVE",
"478 -146 LINE",
"428 -181 OFFCURVE",
"353 -169 OFFCURVE",
"356 -110 CURVE SMOOTH",
"359 -59 OFFCURVE",
"401 -5 OFFCURVE",
"453 18 CURVE",
"434 44 LINE",
"330 23 OFFCURVE",
"186 -102 OFFCURVE",
"240 -198 CURVE SMOOTH"
);
}
);
width = 515;
}
);
leftKerningGroup = o;
rightKerningGroup = i;
unicode = 0105;
},
{
glyphname = ae;
lastChange = "2018-04-04 18:50:23 +0000";
layers = (
{
anchors = (
{
name = bottom;
position = "{188, 0}";
},
{
name = ogonek;
position = "{353, 10}";
},
{
name = top;
position = "{238, 480}";
}
);
components = (
{
alignment = -1;
name = e;
transform = "{1, 0, 0, 1, 287, 0}";
},
{
name = _part.bowl;
transform = "{-1, 0, 0, -1, 467, 476}";
}
);
layerId = "71FD7A9F-05F5-4D76-8D4F-547475A05E4C";
width = 688;
},
{
anchors = (
{
name = bottom;
position = "{442, 0}";
},
{
name = ogonek;
position = "{607, 10}";
},
{
name = top;
position = "{492, 480}";
}
);
background = {
paths = (
{
closed = 1;
nodes = (
"341 369 OFFCURVE",
"236 386 OFFCURVE",
"175 382 CURVE",
"193 439 LINE",
"231 410 LINE",
"171 377 OFFCURVE",
"154 306 OFFCURVE",
"151 237 CURVE SMOOTH",
"148 170 OFFCURVE",
"166 109 OFFCURVE",
"224 106 CURVE",
"200 78 LINE",
"160 99 LINE",
"190 99 OFFCURVE",
"316 213 OFFCURVE",
"374 346 CURVE"
);
},
{
closed = 1;
nodes = (
"430 359 LINE",
"344 156 OFFCURVE",
"246 36 OFFCURVE",
"189 -5 CURVE",
"55 -9 OFFCURVE",
"0 112 OFFCURVE",
"9 231 CURVE SMOOTH",
"17 342 OFFCURVE",
"111 476 OFFCURVE",
"240 484 CURVE",
"297 479 OFFCURVE",
"435 451 OFFCURVE",
"471 414 CURVE"
);
}
);
};
components = (
{
name = e;
},
{
name = _part.bowl;
piece = {
"b/q?" = 1;
};
transform = "{-1, 0, 0, -1, 458, 480}";
}
);
layerId = "977FCFA9-45AC-4A33-B2D7-4D17E6BBF8E0";
width = 508;
}
);
leftKerningGroup = o;
leftMetricsKey = a;
rightKerningGroup = o;
rightMetricsKey = e;
unicode = 00E6;
},
{
color = 1;
glyphname = b;
lastChange = "2018-06-18 14:35:07 +0000";
layers = (
{
anchors = (
{
name = bottom;
position = "{210, 0}";
},
{
name = top;
position = "{260, 480}";
}
);
background = {
components = (
{
name = h;
transform = "{1, 0, 0, 1, -2, 0}";
}
);
};
components = (
{
name = _part.bowl;
piece = {
"b/q?" = 1;
};
transform = "{1, 0, 0, 1, 39, 5}";
}
);
guideLines = (
{
angle = -10.1326;
position = "{181, 724}";
},
{
angle = -20;
position = "{19, -2}";
},
{
position = "{1131, 137}";
},
{
position = "{1843, 225}";
}
);
layerId = "71FD7A9F-05F5-4D76-8D4F-547475A05E4C";
paths = (
{
closed = 1;
nodes = (
"111 89 LINE",
"131 174 LINE",
"117 178 LINE",
"155 365 OFFCURVE",
"234 670 OFFCURVE",
"248 741 CURVE",
"227 747 OFFCURVE",
"122 746 OFFCURVE",
"92 738 CURVE",
"86 701 LINE",
"150 682 LINE",
"152 658 OFFCURVE",
"139 576 OFFCURVE",
"125 491 CURVE SMOOTH",
"92 292 OFFCURVE",
"67 148 OFFCURVE",
"37 35 CURVE"
);
}
);
width = 490;
},
{
anchors = (
{
name = bottom;
position = "{259, 0}";
},
{
name = top;
position = "{335, 740}";
}
);
background = {
components = (
{
name = h;
transform = "{1, 0, 0, 1, -16, 0}";
}
);
};
components = (
{
name = _part.bowl;
piece = {
"b/q?" = 1;
};
transform = "{1, 0, 0, 1, 77, 5}";
}
);
guideLines = (
{
angle = -12;
position = "{229, 724}";
},
{
angle = -20;
position = "{67, -2}";
},
{
position = "{-326, 189}";
},
{
position = "{751, 276}";
}
);
layerId = "977FCFA9-45AC-4A33-B2D7-4D17E6BBF8E0";
paths = (
{
closed = 1;
nodes = (
"167 119 LINE",
"215 286 LINE",
"182 287 LINE",
"250 492 OFFCURVE",
"299 602 OFFCURVE",
"343 740 CURVE",
"272 751 OFFCURVE",
"102 746 OFFCURVE",
"88 739 CURVE",
"78 706 OFFCURVE",
"70 672 OFFCURVE",
"68 635 CURVE",
"120 625 LINE",
"121 606 OFFCURVE",
"115 547 OFFCURVE",
"92 426 CURVE SMOOTH",
"54 225 OFFCURVE",
"43 169 OFFCURVE",
"13 43 CURVE"
);
}
);
width = 546;
}
);
leftKerningGroup = l;
rightKerningGroup = o;
rightMetricsKey = o;
unicode = 0062;
},
{
color = 1;
glyphname = c;
lastChange = "2018-06-19 19:29:50 +0000";
layers = (
{
anchors = (
{
name = bottom;
position = "{263, 0}";
},
{
name = top;
position = "{240, 508}";
}
);
background = {
anchors = (
{
name = bottom;
position = "{204, 0}";
},
{
name = ogonek;
position = "{351, 10}";
},
{
name = top;
position = "{254, 480}";
}
);
components = (
{
name = e;
transform = "{1, 0, 0, 1, 6, 0}";
}
);
};
guideLines = (
{
position = "{-30, -6}";
},
{
angle = 180;
position = "{-223, 489}";
},
{
position = "{-154, 169}";
}
);
layerId = "71FD7A9F-05F5-4D76-8D4F-547475A05E4C";
paths = (
{
closed = 1;
nodes = (
"267 431 OFFCURVE",
"300 425 OFFCURVE",
"334 399 CURVE",
"354 405 LINE",
"380 468 LINE",
"370 476 OFFCURVE",
"342 487 OFFCURVE",
"300 487 CURVE SMOOTH",
"165 487 OFFCURVE",
"69 365 OFFCURVE",
"45 227 CURVE SMOOTH",
"23 104 OFFCURVE",
"56 -8 OFFCURVE",
"181 -8 CURVE",
"217 -3 OFFCURVE",
"251 6 OFFCURVE",
"312 31 CURVE",
"313 46 OFFCURVE",
"314 62 OFFCURVE",
"310 75 CURVE",
"223 55 LINE",
"157 55 OFFCURVE",
"135 93 OFFCURVE",
"124 142 CURVE SMOOTH",
"105 236 OFFCURVE",
"137 381 OFFCURVE",
"237 434 CURVE"
);
}
);
width = 362;
},
{
anchors = (
{
name = bottom;
position = "{209, 0}";
},
{
name = top;
position = "{241, 480}";
}
);
background = {
anchors = (
{
name = bottom;
position = "{211, 0}";
},
{
name = ogonek;
position = "{358, 10}";
},
{
name = top;
position = "{261, 480}";
}
);
paths = (
{
closed = 1;
nodes = (
"370 372 LINE",
"407 482 LINE",
"383 495 OFFCURVE",
"356 501 OFFCURVE",
"309 501 CURVE SMOOTH",
"121 501 OFFCURVE",
"34 368 OFFCURVE",
"20 237 CURVE SMOOTH",
"6 104 OFFCURVE",
"73 -18 OFFCURVE",
"231 -12 CURVE",
"275 -7 OFFCURVE",
"343 17 OFFCURVE",
"383 33 CURVE",
"386 59 OFFCURVE",
"386 91 OFFCURVE",
"379 118 CURVE",
"325 110 OFFCURVE",
"304 107 OFFCURVE",
"268 104 CURVE",
"219 108 OFFCURVE",
"201 169 OFFCURVE",
"202 220 CURVE SMOOTH",
"203 295 OFFCURVE",
"219 351 OFFCURVE",
"260 387 CURVE",
"287 387 OFFCURVE",
"310 377 OFFCURVE",
"334 359 CURVE"
);
}
);
};
guideLines = (
{
position = "{-16, 93}";
},
{
position = "{-5, 36}";
}
);
layerId = "977FCFA9-45AC-4A33-B2D7-4D17E6BBF8E0";
paths = (
{
closed = 1;
nodes = (
"400 359 LINE",
"434 482 LINE",
"410 495 OFFCURVE",
"374 501 OFFCURVE",
"327 501 CURVE SMOOTH",
"139 501 OFFCURVE",
"44 368 OFFCURVE",
"20 237 CURVE SMOOTH",
"-3 104 OFFCURVE",
"55 -18 OFFCURVE",
"213 -12 CURVE",
"257 -7 OFFCURVE",
"317 17 OFFCURVE",
"358 33 CURVE",
"363 59 OFFCURVE",
"366 97 OFFCURVE",
"361 124 CURVE",
"250 110 LINE",
"206 123 OFFCURVE",
"197 188 OFFCURVE",
"202 239 CURVE SMOOTH",
"208 314 OFFCURVE",
"233 348 OFFCURVE",
"273 374 CURVE",
"300 369 OFFCURVE",
"335 359 OFFCURVE",
"363 346 CURVE"
);
}
);
width = 417;
}
);
leftKerningGroup = o;
leftMetricsKey = o;
rightKerningGroup = z;
unicode = 0063;
},
{
color = 1;
glyphname = d;
lastChange = "2018-06-19 19:33:46 +0000";
layers = (
{
anchors = (
{
name = bottom;
position = "{254, 0}";
},
{
name = center;
position = "{131, 260}";
},
{
name = top;
position = "{304, 480}";
},
{
name = topright;
position = "{535, 480}";
}
);
background = {
components = (
{
name = q;
transform = "{1, 0, 0, 1, 16, 0}";
}
);
};
components = (
{
name = _part.bowl;
transform = "{-1, 0, 0, -1, 473, 478}";
}
);
guideLines = (
{
position = "{338, 410}";
},
{
angle = -18;
position = "{537, 111}";
},
{
position = "{1205, 374}";
}
);
layerId = "71FD7A9F-05F5-4D76-8D4F-547475A05E4C";
paths = (
{
closed = 1;
nodes = (
"367 1 OFFCURVE",
"431 17 OFFCURVE",
"478 38 CURVE",
"473 78 LINE",
"394 69 LINE",
"390 108 OFFCURVE",
"423 265 OFFCURVE",
"457 432 CURVE SMOOTH",
"475 521 OFFCURVE",
"504 636 OFFCURVE",
"528 742 CURVE",
"496 750 OFFCURVE",
"395 746 OFFCURVE",
"372 739 CURVE",
"365 701 LINE",
"430 684 LINE",
"429 623 OFFCURVE",
"408 473 OFFCURVE",
"379 326 CURVE",
"371 284 LINE",
"357 228 OFFCURVE",
"332 139 OFFCURVE",
"321 98 CURVE SMOOTH",
"312 63 OFFCURVE",
"300 16 OFFCURVE",
"319 -6 CURVE"
);
}
);
width = 513;
},
{
anchors = (
{
name = bottom;
position = "{224, 0}";
},
{
name = center;
position = "{394, 562}";
},
{
name = top;
position = "{300, 740}";
},
{
name = topright;
position = "{504, 480}";
}
);
background = {
anchors = (
{
name = bottom;
position = "{256, 0}";
},
{
name = center;
position = "{230, 240}";
},
{
name = ogonek;
position = "{469, 10}";
},
{
name = top;
position = "{283, 480}";
},
{
name = topright;
position = "{507, 480}";
}
);
components = (
{
name = p;
transform = "{-1, 0, 0, -1, 511, 483}";
}
);
};
components = (
{
name = _part.bowl;
transform = "{-1, 0, 0, -1, 467, 482}";
}
);
guideLines = (
{
angle = -18;
position = "{506, 111}";
},
{
position = "{1174, 374}";
},
{
position = "{862, 284}";
}
);
layerId = "977FCFA9-45AC-4A33-B2D7-4D17E6BBF8E0";
paths = (
{
closed = 1;
nodes = (
"341 191 LINE",
"316 95 OFFCURVE",
"299 30 OFFCURVE",
"325 -7 CURVE",
"388 -1 OFFCURVE",
"478 10 OFFCURVE",
"539 30 CURVE",
"542 56 OFFCURVE",
"542 101 OFFCURVE",
"539 126 CURVE",
"484 122 LINE",
"482 155 OFFCURVE",
"496 260 OFFCURVE",
"519 371 CURVE SMOOTH",
"556 549 OFFCURVE",
"600 703 OFFCURVE",
"606 740 CURVE",
"576 749 OFFCURVE",
"412 749 OFFCURVE",
"361 740 CURVE",
"351 707 OFFCURVE",
"346 672 OFFCURVE",
"347 635 CURVE",
"401 625 LINE",
"404 577 OFFCURVE",
"399 495 OFFCURVE",
"387 420 CURVE",
"322 195 LINE"
);
}
);
width = 570;
}
);
leftKerningGroup = o;
leftMetricsKey = o;
rightKerningGroup = i;
unicode = 0064;
},
{
glyphname = eth;
lastChange = "2017-05-20 11:10:27 +0000";
layers = (
{
components = (
{
name = d;
}
);
layerId = "71FD7A9F-05F5-4D76-8D4F-547475A05E4C";
paths = (
{
closed = 1;
nodes = (
"267 538 LINE",
"361 540 OFFCURVE",
"458 538 OFFCURVE",
"550 538 CURVE",
"554 598 LINE",
"459 596 OFFCURVE",
"368 596 OFFCURVE",
"273 598 CURVE"
);
}
);
width = 519;
},
{
components = (
{
name = d;
}
);
layerId = "977FCFA9-45AC-4A33-B2D7-4D17E6BBF8E0";
paths = (
{
closed = 1;
nodes = (
"267 538 LINE",
"361 540 OFFCURVE",
"456 540 OFFCURVE",
"550 538 CURVE",
"554 598 LINE",
"459 596 OFFCURVE",
"368 596 OFFCURVE",
"273 598 CURVE"
);
}
);
width = 524;
}
);
leftKerningGroup = o;
rightKerningGroup = i;
unicode = 00F0;
},
{
color = 1;
glyphname = e;
lastChange = "2018-06-18 14:36:13 +0000";
layers = (
{
anchors = (
{
name = bottom;
position = "{200, 0}";
},
{
name = ogonek;
position = "{347, 10}";
},
{
name = top;
position = "{250, 508}";
}
);
background = {
components = (
{
name = n;
transform = "{1, 0, 0, 1, -143, 0}";
}
);
};
guideLines = (
{
position = "{439, 715}";
}
);
layerId = "71FD7A9F-05F5-4D76-8D4F-547475A05E4C";
paths = (
{
closed = 1;
nodes = (
"125 323 OFFCURVE",
"167 397 OFFCURVE",
"227 433 CURVE",
"283 433 OFFCURVE",
"323 410 OFFCURVE",
"330 362 CURVE",
"289 318 OFFCURVE",
"226 281 OFFCURVE",
"102 245 CURVE",
"105 204 LINE",
"242 238 OFFCURVE",
"378 288 OFFCURVE",
"391 378 CURVE SMOOTH",
"402 443 OFFCURVE",
"363 487 OFFCURVE",
"290 487 CURVE SMOOTH",
"162 487 OFFCURVE",
"65 363 OFFCURVE",
"45 230 CURVE SMOOTH",
"25 110 OFFCURVE",
"56 -8 OFFCURVE",
"184 -8 CURVE",
"232 0 OFFCURVE",
"278 11 OFFCURVE",
"334 35 CURVE",
"335 50 OFFCURVE",
"335 66 OFFCURVE",
"331 79 CURVE",
"287 68 OFFCURVE",
"264 62 OFFCURVE",
"224 55 CURVE",
"138 53 OFFCURVE",
"113 130 OFFCURVE",
"119 221 CURVE SMOOTH"
);
}
);
width = 412;
},
{
anchors = (
{
name = bottom;
position = "{228, 0}";
},
{
name = ogonek;
position = "{375, 10}";
},
{
name = top;
position = "{278, 480}";
}
);
background = {
components = (
{
name = c;
transform = "{1, 0, 0, 1, 45, 0}";
}
);
};
layerId = "977FCFA9-45AC-4A33-B2D7-4D17E6BBF8E0";
paths = (
{
closed = 1;
nodes = (
"159 164 LINE",
"287 197 OFFCURVE",
"444 252 OFFCURVE",
"460 348 CURVE SMOOTH",
"479 459 OFFCURVE",
"401 501 OFFCURVE",
"328 501 CURVE SMOOTH",
"140 501 OFFCURVE",
"44 368 OFFCURVE",
"20 237 CURVE SMOOTH",
"-3 104 OFFCURVE",
"56 -18 OFFCURVE",
"214 -12 CURVE",
"258 -7 OFFCURVE",
"347 20 OFFCURVE",
"388 36 CURVE",
"393 62 OFFCURVE",
"395 100 OFFCURVE",
"390 127 CURVE",
"335 121 OFFCURVE",
"285 114 OFFCURVE",
"249 111 CURVE",
"201 124 OFFCURVE",
"197 169 OFFCURVE",
"201 220 CURVE SMOOTH",
"208 295 OFFCURVE",
"227 351 OFFCURVE",
"271 387 CURVE",
"298 387 OFFCURVE",
"318 355 OFFCURVE",
"320 321 CURVE",
"303 292 OFFCURVE",
"262 273 OFFCURVE",
"170 246 CURVE"
);
}
);
width = 466;
}
);
leftKerningGroup = o;
leftMetricsKey = o;
note = " p ";
rightKerningGroup = o;
unicode = 0065;
},
{
color = 1;
glyphname = f;
lastChange = "2018-06-18 14:36:30 +0000";
layers = (
{
anchors = (
{
name = bottom;
position = "{96, 0}";
},
{
name = top;
position = "{146, 480}";
}
);
background = {
components = (
{
name = n;
transform = "{1, 0, 0, 1, -26, 0}";
}
);
};
layerId = "71FD7A9F-05F5-4D76-8D4F-547475A05E4C";
paths = (
{
closed = 1;
nodes = (
"37 437 LINE",
"104 427 LINE",
"58 116 LINE",
"34 -48 OFFCURVE",
"27 -110 OFFCURVE",
"-25 -162 CURVE",
"-71 -159 OFFCURVE",
"-106 -154 OFFCURVE",
"-133 -150 CURVE",
"-154 -156 LINE",
"-166 -215 LINE",
"-148 -241 OFFCURVE",
"-86 -241 OFFCURVE",
"-40 -217 CURVE SMOOTH",
"59 -165 OFFCURVE",
"102 -76 OFFCURVE",
"127 84 CURVE SMOOTH",
"182 432 LINE",
"313 422 LINE",
"324 422 OFFCURVE",
"330 438 OFFCURVE",
"335 483 CURVE",
"191 480 LINE",
"215 610 OFFCURVE",
"230 646 OFFCURVE",
"292 676 CURVE",
"334 676 OFFCURVE",
"381 667 OFFCURVE",
"416 639 CURVE",
"434 645 LINE",
"439 670 OFFCURVE",
"444 694 OFFCURVE",
"448 719 CURVE",
"390 760 OFFCURVE",
"285 751 OFFCURVE",
"211 680 CURVE SMOOTH",
"166 636 OFFCURVE",
"133 572 OFFCURVE",
"116 480 CURVE",
"43 476 LINE"
);
}
);
width = 232;
},
{
anchors = (
{
name = bottom;
position = "{179, 260}";
},
{
name = top;
position = "{228, 740}";
}
);
background = {
components = (
{
name = t;
transform = "{1, 0, 0, 1, 1, 0}";
}
);
};
layerId = "977FCFA9-45AC-4A33-B2D7-4D17E6BBF8E0";
paths = (
{
closed = 1;
nodes = (
"28 445 OFFCURVE",
"23 412 OFFCURVE",
"25 378 CURVE",
"85 368 LINE",
"54 102 LINE SMOOTH",
"37 -39 OFFCURVE",
"26 -73 OFFCURVE",
"-2 -100 CURVE",
"-48 -96 OFFCURVE",
"-73 -95 OFFCURVE",
"-107 -91 CURVE",
"-136 -104 LINE",
"-150 -217 LINE",
"-123 -267 OFFCURVE",
"16 -231 OFFCURVE",
"81 -172 CURVE SMOOTH",
"152 -108 OFFCURVE",
"198 -22 OFFCURVE",
"223 133 CURVE SMOOTH",
"260 365 LINE",
"334 359 LINE SMOOTH",
"341 358 OFFCURVE",
"355 362 OFFCURVE",
"367 483 CURVE",
"272 480 LINE",
"279 551 OFFCURVE",
"284 590 OFFCURVE",
"301 614 CURVE",
"338 619 OFFCURVE",
"373 610 OFFCURVE",
"411 578 CURVE",
"449 597 LINE",
"456 613 OFFCURVE",
"467 681 OFFCURVE",
"471 718 CURVE",
"441 767 OFFCURVE",
"317 767 OFFCURVE",
"216 698 CURVE SMOOTH",
"153 654 OFFCURVE",
"114 582 OFFCURVE",
"98 481 CURVE",
"39 479 LINE"
);
}
);
width = 345;
}
);
leftKerningGroup = f;
rightKerningGroup = f;
unicode = 0066;
},
{
color = 5;
glyphname = f.001;
lastChange = "2017-09-10 18:57:27 +0000";
layers = (
{
anchors = (
{
name = bottom;
position = "{110, 0}";
},
{
name = top;
position = "{160, 480}";
}
);
background = {
anchors = (
{
name = bottom;
position = "{96, 0}";
},
{
name = top;
position = "{146, 480}";
}
);
paths = (
{
closed = 1;
nodes = (
"24 437 LINE",
"92 427 LINE",
"68 116 LINE",
"55 -48 OFFCURVE",
"52 -110 OFFCURVE",
"4 -162 CURVE",
"-42 -159 OFFCURVE",
"-77 -154 OFFCURVE",
"-105 -150 CURVE",
"-125 -156 LINE",
"-133 -215 LINE",
"-113 -241 OFFCURVE",
"-51 -241 OFFCURVE",
"-7 -217 CURVE SMOOTH",
"88 -165 OFFCURVE",
"125 -76 OFFCURVE",
"139 84 CURVE SMOOTH",
"170 432 LINE",
"301 422 LINE",
"312 422 OFFCURVE",
"317 438 OFFCURVE",
"319 483 CURVE",
"175 480 LINE",
"190 610 OFFCURVE",
"195 628 OFFCURVE",
"227 672 CURVE",
"264 669 OFFCURVE",
"288 666 OFFCURVE",
"328 660 CURVE",
"348 669 LINE",
"351 694 OFFCURVE",
"353 704 OFFCURVE",
"356 729 CURVE",
"308 754 OFFCURVE",
"241 751 OFFCURVE",
"172 680 CURVE SMOOTH",
"130 636 OFFCURVE",
"111 572 OFFCURVE",
"100 480 CURVE",
"28 476 LINE"
);
}
);
};
guideLines = (
{
position = "{215, -230}";
}
);
layerId = "71FD7A9F-05F5-4D76-8D4F-547475A05E4C";
paths = (
{
closed = 1;
nodes = (
"24 437 LINE",
"92 427 LINE",
"68 116 LINE",
"55 -48 OFFCURVE",
"52 -110 OFFCURVE",
"4 -162 CURVE",
"-42 -159 OFFCURVE",
"-77 -154 OFFCURVE",
"-105 -150 CURVE",
"-125 -156 LINE",
"-133 -215 LINE",
"-113 -241 OFFCURVE",
"-51 -241 OFFCURVE",
"-7 -217 CURVE SMOOTH",
"88 -165 OFFCURVE",
"125 -76 OFFCURVE",
"139 84 CURVE SMOOTH",
"170 432 LINE",
"301 422 LINE",
"312 422 OFFCURVE",
"317 438 OFFCURVE",
"319 483 CURVE",
"175 480 LINE",
"190 610 OFFCURVE",
"195 628 OFFCURVE",
"227 672 CURVE",
"263 669 OFFCURVE",
"288 666 OFFCURVE",
"328 660 CURVE",
"348 669 LINE",
"351 694 OFFCURVE",
"353 704 OFFCURVE",
"356 729 CURVE",
"308 754 OFFCURVE",
"241 751 OFFCURVE",
"172 680 CURVE SMOOTH",
"130 636 OFFCURVE",
"111 572 OFFCURVE",
"100 480 CURVE",
"28 476 LINE"
);
}
);
width = 229;
},
{
anchors = (
{
name = bottom;
position = "{100, 0}";
},
{
name = top;
position = "{150, 480}";
}
);
background = {
paths = (
{
closed = 1;
nodes = (
"1 425 LINE",
"72 414 LINE",
"51 102 LINE SMOOTH",
"39 -73 OFFCURVE",
"36 -111 OFFCURVE",
"9 -138 CURVE",
"-37 -134 OFFCURVE",
"-64 -131 OFFCURVE",
"-98 -126 CURVE",
"-126 -139 LINE",
"-135 -217 LINE",
"-107 -267 OFFCURVE",
"-9 -251 OFFCURVE",
"54 -192 CURVE SMOOTH",
"123 -128 OFFCURVE",
"156 -61 OFFCURVE",
"171 94 CURVE SMOOTH",
"202 414 LINE",
"326 408 LINE SMOOTH",
"333 408 OFFCURVE",
"347 411 OFFCURVE",
"350 483 CURVE",
"208 480 LINE",
"220 589 OFFCURVE",
"222 616 OFFCURVE",
"250 647 CURVE",
"286 645 OFFCURVE",
"312 642 OFFCURVE",
"355 638 CURVE",
"387 655 LINE",
"391 684 OFFCURVE",
"394 703 OFFCURVE",
"398 740 CURVE",
"366 762 OFFCURVE",
"284 770 OFFCURVE",
"189 698 CURVE SMOOTH",
"127 651 OFFCURVE",
"94 582 OFFCURVE",
"81 481 CURVE",
"7 479 LINE"
);
}
);
};
layerId = "977FCFA9-45AC-4A33-B2D7-4D17E6BBF8E0";
paths = (
{
closed = 1;
nodes = (
"1 425 LINE",
"72 414 LINE",
"51 102 LINE SMOOTH",
"39 -73 OFFCURVE",
"36 -111 OFFCURVE",
"9 -138 CURVE",
"-37 -134 OFFCURVE",
"-64 -131 OFFCURVE",
"-98 -126 CURVE",
"-126 -139 LINE",
"-135 -217 LINE",
"-107 -267 OFFCURVE",
"-9 -251 OFFCURVE",
"54 -192 CURVE SMOOTH",
"123 -128 OFFCURVE",
"156 -61 OFFCURVE",
"171 94 CURVE SMOOTH",
"202 414 LINE",
"326 408 LINE SMOOTH",
"333 408 OFFCURVE",
"347 411 OFFCURVE",
"350 483 CURVE",
"208 480 LINE",
"220 589 OFFCURVE",
"222 616 OFFCURVE",
"250 647 CURVE",
"286 645 OFFCURVE",
"312 642 OFFCURVE",
"355 638 CURVE",
"387 655 LINE",
"391 684 OFFCURVE",
"394 703 OFFCURVE",
"398 740 CURVE",
"366 762 OFFCURVE",
"284 770 OFFCURVE",
"189 698 CURVE SMOOTH",
"127 651 OFFCURVE",
"94 582 OFFCURVE",
"81 481 CURVE",
"7 479 LINE"
);
}
);
width = 303;
}
);
leftKerningGroup = f;
leftMetricsKey = f;
rightKerningGroup = f;
},
